M48
;GenerationSoftware,Autodesk,EAGLE,9.5.2*%
;CreationDate,2021-04-28T17:33:02Z*%
FMAT,2
ICI,OFF
METRIC,TZ,000.000
T1C0.350
%
G90
M71
T1
X9600Y12300
X16250Y12003
X20600Y650
X4750Y600
X13450Y20800
X14600Y20450
X10400Y20750
X5000Y14050
X4800Y13050
X5000Y12050
X4000Y14050
X12350Y18100
X11450Y18100
X16600Y20450
X20850Y14150
X19150Y14209
X20250Y13150
X3907Y12000
X20550Y10450
X9700Y15857
X3300Y9750
X10800Y12200
X15241Y11990
X22650Y11300
X22650Y10300
X22650Y9300
M30