G04 EAGLE Gerber RS-274X export*
G75*
%MOMM*%
%FSLAX34Y34*%
%LPD*%
%INBottom Copper*%
%IPPOS*%
%AMOC8*
5,1,8,0,0,1.08239X$1,22.5*%
G01*
%ADD10C,0.152400*%
%ADD11C,0.756400*%

G36*
X254336Y-34074D02*
X254336Y-34074D01*
X254355Y-34076D01*
X254457Y-34054D01*
X254559Y-34038D01*
X254576Y-34028D01*
X254596Y-34024D01*
X254685Y-33971D01*
X254776Y-33922D01*
X254790Y-33908D01*
X254807Y-33898D01*
X254874Y-33819D01*
X254946Y-33744D01*
X254954Y-33726D01*
X254967Y-33711D01*
X255006Y-33615D01*
X255049Y-33521D01*
X255051Y-33501D01*
X255059Y-33483D01*
X255077Y-33316D01*
X255077Y216316D01*
X255074Y216336D01*
X255076Y216355D01*
X255054Y216457D01*
X255038Y216559D01*
X255028Y216576D01*
X255024Y216596D01*
X254971Y216685D01*
X254922Y216776D01*
X254908Y216790D01*
X254898Y216807D01*
X254819Y216874D01*
X254744Y216946D01*
X254726Y216954D01*
X254711Y216967D01*
X254615Y217006D01*
X254521Y217049D01*
X254501Y217051D01*
X254483Y217059D01*
X254316Y217077D01*
X13184Y217077D01*
X13164Y217074D01*
X13145Y217076D01*
X13043Y217054D01*
X12941Y217038D01*
X12924Y217028D01*
X12904Y217024D01*
X12815Y216971D01*
X12724Y216922D01*
X12710Y216908D01*
X12693Y216898D01*
X12626Y216819D01*
X12554Y216744D01*
X12546Y216726D01*
X12533Y216711D01*
X12494Y216615D01*
X12451Y216521D01*
X12449Y216501D01*
X12441Y216483D01*
X12423Y216316D01*
X12423Y-33316D01*
X12426Y-33336D01*
X12424Y-33355D01*
X12446Y-33457D01*
X12462Y-33559D01*
X12472Y-33576D01*
X12476Y-33596D01*
X12529Y-33685D01*
X12578Y-33776D01*
X12592Y-33790D01*
X12602Y-33807D01*
X12681Y-33874D01*
X12756Y-33946D01*
X12774Y-33954D01*
X12789Y-33967D01*
X12885Y-34006D01*
X12979Y-34049D01*
X12999Y-34051D01*
X13017Y-34059D01*
X13184Y-34077D01*
X254316Y-34077D01*
X254336Y-34074D01*
G37*
%LPC*%
G36*
X87689Y4915D02*
X87689Y4915D01*
X87090Y6712D01*
X89821Y12173D01*
X89845Y12250D01*
X89877Y12324D01*
X89881Y12367D01*
X89894Y12408D01*
X89892Y12489D01*
X89899Y12569D01*
X89889Y12611D01*
X89888Y12654D01*
X89861Y12730D01*
X89842Y12808D01*
X89819Y12845D01*
X89804Y12885D01*
X89754Y12948D01*
X89711Y13017D01*
X89669Y13055D01*
X89651Y13078D01*
X89628Y13093D01*
X89587Y13130D01*
X88289Y14073D01*
X86923Y18277D01*
X88288Y22481D01*
X91833Y25057D01*
X91889Y25113D01*
X91951Y25163D01*
X91975Y25200D01*
X92006Y25232D01*
X92041Y25303D01*
X92084Y25370D01*
X92095Y25413D01*
X92115Y25453D01*
X92125Y25532D01*
X92144Y25609D01*
X92141Y25653D01*
X92147Y25696D01*
X92131Y25775D01*
X92125Y25854D01*
X92108Y25894D01*
X92100Y25938D01*
X92060Y26007D01*
X92029Y26080D01*
X91992Y26126D01*
X91978Y26152D01*
X91957Y26170D01*
X91924Y26211D01*
X91294Y26841D01*
X91294Y30159D01*
X91291Y30179D01*
X91293Y30198D01*
X91271Y30300D01*
X91254Y30402D01*
X91245Y30419D01*
X91241Y30439D01*
X91188Y30528D01*
X91139Y30619D01*
X91125Y30633D01*
X91115Y30650D01*
X91036Y30717D01*
X90961Y30789D01*
X90943Y30797D01*
X90928Y30810D01*
X90831Y30849D01*
X90738Y30892D01*
X90718Y30894D01*
X90700Y30902D01*
X90533Y30920D01*
X88941Y30920D01*
X87727Y30920D01*
X85408Y32259D01*
X84069Y34578D01*
X84069Y40072D01*
X84069Y40073D01*
X84069Y41335D01*
X84069Y42438D01*
X84069Y42597D01*
X84069Y43405D01*
X86996Y46331D01*
X94528Y46331D01*
X95868Y44992D01*
X95868Y26841D01*
X95406Y26379D01*
X95364Y26321D01*
X95314Y26269D01*
X95292Y26222D01*
X95262Y26180D01*
X95241Y26111D01*
X95211Y26046D01*
X95205Y25994D01*
X95190Y25944D01*
X95192Y25873D01*
X95184Y25802D01*
X95195Y25751D01*
X95196Y25699D01*
X95221Y25631D01*
X95236Y25561D01*
X95263Y25516D01*
X95281Y25468D01*
X95325Y25412D01*
X95362Y25350D01*
X95402Y25316D01*
X95434Y25276D01*
X95495Y25237D01*
X95549Y25190D01*
X95597Y25171D01*
X95641Y25143D01*
X95711Y25125D01*
X95777Y25098D01*
X95848Y25090D01*
X95880Y25082D01*
X95903Y25084D01*
X95944Y25080D01*
X99538Y25080D01*
X100877Y23740D01*
X100877Y23085D01*
X100887Y23026D01*
X100877Y22939D01*
X100877Y5590D01*
X99538Y4250D01*
X97643Y4250D01*
X96304Y5590D01*
X96304Y10714D01*
X96300Y10734D01*
X96303Y10753D01*
X96281Y10854D01*
X96264Y10957D01*
X96255Y10974D01*
X96250Y10994D01*
X96197Y11083D01*
X96149Y11174D01*
X96134Y11188D01*
X96124Y11205D01*
X96045Y11272D01*
X95970Y11343D01*
X95952Y11352D01*
X95937Y11365D01*
X95841Y11404D01*
X95747Y11447D01*
X95728Y11449D01*
X95709Y11457D01*
X95542Y11475D01*
X95056Y11475D01*
X94966Y11461D01*
X94877Y11454D01*
X94846Y11441D01*
X94813Y11435D01*
X94733Y11393D01*
X94650Y11358D01*
X94625Y11336D01*
X94595Y11320D01*
X94533Y11255D01*
X94466Y11195D01*
X94443Y11159D01*
X94426Y11142D01*
X94413Y11113D01*
X94375Y11054D01*
X91181Y4667D01*
X89384Y4068D01*
X87689Y4915D01*
G37*
%LPD*%
%LPC*%
G36*
X149132Y31065D02*
X149132Y31065D01*
X149101Y31075D01*
X149033Y31106D01*
X148334Y31339D01*
X148334Y31341D01*
X148277Y31405D01*
X148226Y31475D01*
X148196Y31497D01*
X148171Y31525D01*
X148095Y31574D01*
X147860Y32278D01*
X147845Y32307D01*
X147819Y32378D01*
X147490Y33036D01*
X147491Y33038D01*
X147496Y33124D01*
X147510Y33209D01*
X147503Y33246D01*
X147506Y33284D01*
X147471Y33448D01*
X143880Y44220D01*
X144727Y45914D01*
X146524Y46513D01*
X148219Y45666D01*
X149239Y42605D01*
X149240Y42603D01*
X149240Y42601D01*
X149298Y42493D01*
X149354Y42387D01*
X149355Y42386D01*
X149356Y42384D01*
X149445Y42300D01*
X149531Y42217D01*
X149533Y42216D01*
X149535Y42215D01*
X149646Y42164D01*
X149754Y42113D01*
X149756Y42113D01*
X149758Y42112D01*
X149877Y42099D01*
X149999Y42085D01*
X150001Y42086D01*
X150003Y42085D01*
X150123Y42112D01*
X150239Y42137D01*
X150241Y42138D01*
X150243Y42138D01*
X150346Y42200D01*
X150451Y42262D01*
X150452Y42264D01*
X150454Y42265D01*
X150532Y42357D01*
X150611Y42449D01*
X150612Y42451D01*
X150613Y42452D01*
X150683Y42605D01*
X151704Y45666D01*
X153398Y46513D01*
X155195Y45914D01*
X155525Y45255D01*
X155564Y45201D01*
X155595Y45141D01*
X155636Y45102D01*
X155669Y45055D01*
X155724Y45017D01*
X155771Y44970D01*
X155823Y44946D01*
X155869Y44912D01*
X155933Y44893D01*
X155993Y44864D01*
X156050Y44857D01*
X156105Y44841D01*
X156171Y44843D01*
X156238Y44835D01*
X156293Y44846D01*
X156351Y44848D01*
X156413Y44871D01*
X156478Y44884D01*
X156528Y44913D01*
X156581Y44933D01*
X156633Y44975D01*
X156691Y45008D01*
X156728Y45051D01*
X156773Y45087D01*
X156809Y45143D01*
X156853Y45194D01*
X156875Y45246D01*
X156905Y45294D01*
X156921Y45359D01*
X156947Y45421D01*
X156951Y45478D01*
X156965Y45533D01*
X156959Y45600D01*
X156964Y45666D01*
X156948Y45745D01*
X156945Y45778D01*
X156936Y45804D01*
X156930Y45830D01*
X156923Y45851D01*
X158108Y49496D01*
X161209Y51750D01*
X169492Y51750D01*
X170832Y50410D01*
X170832Y48516D01*
X169492Y47176D01*
X163126Y47176D01*
X163094Y47171D01*
X163007Y47167D01*
X162833Y47139D01*
X162742Y47109D01*
X162650Y47086D01*
X162619Y47069D01*
X162599Y47062D01*
X162573Y47042D01*
X162504Y47003D01*
X162222Y46798D01*
X162200Y46776D01*
X162173Y46759D01*
X162114Y46689D01*
X162049Y46623D01*
X162035Y46595D01*
X162015Y46570D01*
X161946Y46418D01*
X161838Y46086D01*
X161836Y46072D01*
X161830Y46059D01*
X161828Y46042D01*
X161821Y46025D01*
X161814Y45934D01*
X161801Y45843D01*
X161804Y45824D01*
X161803Y45815D01*
X161805Y45802D01*
X161804Y45780D01*
X161838Y45615D01*
X161946Y45283D01*
X161960Y45255D01*
X161968Y45224D01*
X162016Y45147D01*
X162058Y45065D01*
X162081Y45043D01*
X162098Y45016D01*
X162222Y44903D01*
X162504Y44698D01*
X162589Y44655D01*
X162671Y44606D01*
X162705Y44597D01*
X162724Y44587D01*
X162757Y44583D01*
X162833Y44562D01*
X163007Y44534D01*
X163040Y44534D01*
X163126Y44525D01*
X167686Y44525D01*
X169025Y43185D01*
X169025Y41291D01*
X167686Y39951D01*
X165292Y39951D01*
X164029Y39951D01*
X163997Y39946D01*
X163910Y39942D01*
X163457Y39870D01*
X163367Y39840D01*
X163274Y39817D01*
X163243Y39799D01*
X163223Y39793D01*
X163197Y39773D01*
X163128Y39734D01*
X162395Y39201D01*
X162372Y39178D01*
X162345Y39162D01*
X162286Y39091D01*
X162222Y39026D01*
X162208Y38998D01*
X162187Y38973D01*
X162118Y38820D01*
X161838Y37958D01*
X161833Y37926D01*
X161821Y37897D01*
X161815Y37806D01*
X161801Y37715D01*
X161806Y37683D01*
X161804Y37652D01*
X161838Y37487D01*
X162118Y36625D01*
X162133Y36596D01*
X162140Y36565D01*
X162189Y36488D01*
X162231Y36406D01*
X162254Y36384D01*
X162271Y36357D01*
X162395Y36244D01*
X163128Y35711D01*
X163213Y35668D01*
X163295Y35619D01*
X163329Y35610D01*
X163348Y35600D01*
X163381Y35596D01*
X163457Y35575D01*
X163910Y35503D01*
X163943Y35503D01*
X164029Y35494D01*
X169492Y35494D01*
X170933Y34052D01*
X170992Y34011D01*
X171044Y33961D01*
X171091Y33939D01*
X171133Y33909D01*
X171202Y33888D01*
X171267Y33858D01*
X171318Y33852D01*
X171368Y33837D01*
X171440Y33838D01*
X171511Y33830D01*
X171562Y33842D01*
X171614Y33843D01*
X171681Y33868D01*
X171751Y33883D01*
X171796Y33909D01*
X171845Y33927D01*
X171901Y33972D01*
X171963Y34009D01*
X171996Y34048D01*
X172037Y34081D01*
X172076Y34141D01*
X172123Y34196D01*
X172142Y34244D01*
X172170Y34288D01*
X172188Y34357D01*
X172214Y34424D01*
X172222Y34495D01*
X172230Y34526D01*
X172228Y34550D01*
X172233Y34591D01*
X172233Y35057D01*
X173572Y36397D01*
X176370Y36397D01*
X177709Y35057D01*
X177709Y32260D01*
X176370Y30920D01*
X173572Y30920D01*
X172071Y32422D01*
X172054Y32434D01*
X172042Y32449D01*
X171955Y32505D01*
X171871Y32566D01*
X171852Y32572D01*
X171835Y32582D01*
X171735Y32608D01*
X171636Y32638D01*
X171616Y32638D01*
X171597Y32642D01*
X171494Y32634D01*
X171390Y32632D01*
X171371Y32625D01*
X171351Y32623D01*
X171256Y32583D01*
X171159Y32547D01*
X171143Y32535D01*
X171125Y32527D01*
X170994Y32422D01*
X169492Y30920D01*
X161819Y30920D01*
X158243Y33518D01*
X156877Y37723D01*
X158144Y41623D01*
X158149Y41654D01*
X158161Y41684D01*
X158168Y41775D01*
X158182Y41866D01*
X158176Y41897D01*
X158178Y41929D01*
X158144Y42093D01*
X157472Y44163D01*
X157469Y44168D01*
X157469Y44173D01*
X157413Y44277D01*
X157359Y44382D01*
X157355Y44385D01*
X157353Y44390D01*
X157267Y44471D01*
X157182Y44553D01*
X157178Y44555D01*
X157174Y44559D01*
X157067Y44608D01*
X156960Y44659D01*
X156955Y44659D01*
X156951Y44662D01*
X156834Y44674D01*
X156716Y44688D01*
X156711Y44687D01*
X156706Y44688D01*
X156589Y44662D01*
X156475Y44639D01*
X156471Y44636D01*
X156466Y44635D01*
X156364Y44574D01*
X156263Y44515D01*
X156260Y44511D01*
X156255Y44508D01*
X156177Y44417D01*
X156101Y44329D01*
X156099Y44325D01*
X156096Y44321D01*
X156026Y44169D01*
X152452Y33448D01*
X152446Y33411D01*
X152432Y33376D01*
X152427Y33290D01*
X152413Y33205D01*
X152419Y33168D01*
X152417Y33130D01*
X152436Y33042D01*
X152103Y32378D01*
X152094Y32347D01*
X152062Y32278D01*
X151829Y31580D01*
X151828Y31579D01*
X151763Y31522D01*
X151693Y31472D01*
X151671Y31441D01*
X151643Y31416D01*
X151595Y31341D01*
X150890Y31106D01*
X150861Y31091D01*
X150790Y31065D01*
X150132Y30736D01*
X150130Y30736D01*
X150044Y30742D01*
X149959Y30755D01*
X149922Y30749D01*
X149885Y30752D01*
X149797Y30733D01*
X149132Y31065D01*
G37*
%LPD*%
%LPC*%
G36*
X99550Y30920D02*
X99550Y30920D01*
X98211Y32260D01*
X98211Y34154D01*
X99434Y35378D01*
X99446Y35394D01*
X99462Y35407D01*
X99518Y35494D01*
X99578Y35578D01*
X99584Y35597D01*
X99595Y35614D01*
X99620Y35714D01*
X99650Y35813D01*
X99650Y35833D01*
X99655Y35852D01*
X99647Y35955D01*
X99644Y36059D01*
X99637Y36078D01*
X99636Y36097D01*
X99595Y36192D01*
X99560Y36290D01*
X99547Y36305D01*
X99539Y36324D01*
X99434Y36455D01*
X98211Y37678D01*
X98211Y42349D01*
X100464Y45450D01*
X104110Y46635D01*
X107756Y45450D01*
X109837Y42586D01*
X109842Y42580D01*
X109846Y42573D01*
X109930Y42494D01*
X110012Y42413D01*
X110019Y42409D01*
X110025Y42404D01*
X110130Y42355D01*
X110232Y42304D01*
X110240Y42303D01*
X110248Y42300D01*
X110362Y42287D01*
X110476Y42272D01*
X110484Y42274D01*
X110492Y42273D01*
X110604Y42297D01*
X110718Y42319D01*
X110725Y42323D01*
X110732Y42325D01*
X110831Y42384D01*
X110931Y42441D01*
X110937Y42447D01*
X110944Y42451D01*
X111018Y42539D01*
X111095Y42625D01*
X111098Y42632D01*
X111103Y42638D01*
X111147Y42746D01*
X111192Y42851D01*
X111192Y42859D01*
X111195Y42866D01*
X111214Y43033D01*
X111214Y44992D01*
X112553Y46331D01*
X114065Y46331D01*
X114085Y46334D01*
X114104Y46332D01*
X114206Y46354D01*
X114308Y46371D01*
X114325Y46380D01*
X114345Y46384D01*
X114434Y46438D01*
X114525Y46486D01*
X114539Y46500D01*
X114556Y46511D01*
X114623Y46589D01*
X114695Y46664D01*
X114703Y46682D01*
X114716Y46697D01*
X114755Y46794D01*
X114798Y46887D01*
X114800Y46907D01*
X114808Y46926D01*
X114826Y47092D01*
X114826Y50410D01*
X116166Y51750D01*
X118060Y51750D01*
X119400Y50410D01*
X119400Y47092D01*
X119403Y47073D01*
X119401Y47053D01*
X119423Y46951D01*
X119439Y46850D01*
X119449Y46832D01*
X119453Y46812D01*
X119506Y46723D01*
X119555Y46632D01*
X119569Y46618D01*
X119579Y46601D01*
X119658Y46534D01*
X119733Y46463D01*
X119736Y46461D01*
X121206Y44992D01*
X121206Y43097D01*
X119724Y41615D01*
X119701Y41603D01*
X119687Y41588D01*
X119670Y41578D01*
X119603Y41499D01*
X119531Y41424D01*
X119523Y41406D01*
X119510Y41391D01*
X119471Y41295D01*
X119428Y41201D01*
X119426Y41182D01*
X119418Y41163D01*
X119400Y40996D01*
X119400Y34578D01*
X118061Y32259D01*
X115742Y30920D01*
X112553Y30920D01*
X111214Y32260D01*
X111214Y33824D01*
X111206Y33871D01*
X111208Y33919D01*
X111186Y33992D01*
X111174Y34066D01*
X111152Y34109D01*
X111138Y34155D01*
X111094Y34217D01*
X111059Y34284D01*
X111024Y34317D01*
X110997Y34356D01*
X110936Y34401D01*
X110881Y34453D01*
X110837Y34473D01*
X110799Y34502D01*
X110726Y34525D01*
X110658Y34557D01*
X110610Y34562D01*
X110564Y34577D01*
X110488Y34575D01*
X110413Y34584D01*
X110366Y34574D01*
X110318Y34573D01*
X110247Y34548D01*
X110173Y34532D01*
X110132Y34507D01*
X110086Y34491D01*
X110027Y34444D01*
X109962Y34405D01*
X109931Y34369D01*
X109893Y34339D01*
X109816Y34236D01*
X109802Y34218D01*
X109799Y34212D01*
X109793Y34204D01*
X108670Y32259D01*
X106352Y30920D01*
X99550Y30920D01*
G37*
%LPD*%
%LPC*%
G36*
X224302Y87693D02*
X224302Y87693D01*
X221193Y90802D01*
X221193Y95198D01*
X223457Y97462D01*
X223468Y97478D01*
X223484Y97490D01*
X223540Y97578D01*
X223600Y97661D01*
X223606Y97680D01*
X223617Y97697D01*
X223642Y97798D01*
X223673Y97897D01*
X223672Y97916D01*
X223677Y97936D01*
X223669Y98039D01*
X223666Y98142D01*
X223660Y98161D01*
X223658Y98181D01*
X223618Y98276D01*
X223582Y98373D01*
X223569Y98389D01*
X223562Y98407D01*
X223457Y98538D01*
X221193Y100802D01*
X221193Y105198D01*
X223457Y107462D01*
X223468Y107478D01*
X223484Y107490D01*
X223540Y107578D01*
X223600Y107661D01*
X223606Y107680D01*
X223617Y107697D01*
X223642Y107798D01*
X223673Y107897D01*
X223672Y107916D01*
X223677Y107936D01*
X223669Y108039D01*
X223666Y108142D01*
X223660Y108161D01*
X223658Y108181D01*
X223618Y108276D01*
X223582Y108373D01*
X223569Y108389D01*
X223562Y108407D01*
X223457Y108538D01*
X221193Y110802D01*
X221193Y115198D01*
X224302Y118307D01*
X228698Y118307D01*
X231807Y115198D01*
X231807Y110802D01*
X229543Y108538D01*
X229532Y108522D01*
X229516Y108510D01*
X229460Y108422D01*
X229400Y108339D01*
X229394Y108320D01*
X229383Y108303D01*
X229358Y108202D01*
X229327Y108103D01*
X229328Y108084D01*
X229323Y108064D01*
X229331Y107961D01*
X229334Y107858D01*
X229340Y107839D01*
X229342Y107819D01*
X229382Y107724D01*
X229418Y107627D01*
X229431Y107611D01*
X229438Y107593D01*
X229543Y107462D01*
X231807Y105198D01*
X231807Y100802D01*
X229543Y98538D01*
X229532Y98522D01*
X229516Y98510D01*
X229460Y98422D01*
X229400Y98339D01*
X229394Y98320D01*
X229383Y98303D01*
X229358Y98202D01*
X229327Y98103D01*
X229328Y98084D01*
X229323Y98064D01*
X229331Y97961D01*
X229334Y97858D01*
X229340Y97839D01*
X229342Y97819D01*
X229382Y97724D01*
X229418Y97627D01*
X229431Y97611D01*
X229438Y97593D01*
X229543Y97462D01*
X231807Y95198D01*
X231807Y90802D01*
X228698Y87693D01*
X224302Y87693D01*
G37*
%LPD*%
%LPC*%
G36*
X118699Y4959D02*
X118699Y4959D01*
X118141Y6770D01*
X121473Y13062D01*
X121500Y13142D01*
X121534Y13218D01*
X121538Y13257D01*
X121551Y13295D01*
X121551Y13379D01*
X121560Y13462D01*
X121551Y13501D01*
X121551Y13541D01*
X121525Y13621D01*
X121506Y13702D01*
X121486Y13737D01*
X121473Y13775D01*
X121422Y13841D01*
X121379Y13913D01*
X121341Y13948D01*
X121324Y13971D01*
X121300Y13987D01*
X121257Y14028D01*
X118476Y16113D01*
X118208Y17989D01*
X119345Y19504D01*
X121220Y19772D01*
X124326Y17443D01*
X124342Y17434D01*
X124354Y17422D01*
X124450Y17378D01*
X124544Y17329D01*
X124561Y17326D01*
X124578Y17318D01*
X124682Y17307D01*
X124787Y17290D01*
X124804Y17293D01*
X124822Y17291D01*
X124925Y17314D01*
X125029Y17331D01*
X125045Y17340D01*
X125062Y17344D01*
X125153Y17398D01*
X125246Y17448D01*
X125258Y17461D01*
X125273Y17470D01*
X125342Y17550D01*
X125414Y17627D01*
X125422Y17643D01*
X125433Y17657D01*
X125473Y17755D01*
X125517Y17851D01*
X125519Y17868D01*
X125525Y17885D01*
X125544Y18052D01*
X125544Y23740D01*
X126883Y25080D01*
X128778Y25080D01*
X130117Y23740D01*
X130117Y12172D01*
X130123Y12140D01*
X130125Y12065D01*
X130229Y11336D01*
X130228Y11335D01*
X130195Y11255D01*
X130156Y11178D01*
X130150Y11141D01*
X130136Y11106D01*
X130117Y10940D01*
X130117Y7815D01*
X130129Y7744D01*
X130131Y7673D01*
X130149Y7624D01*
X130157Y7572D01*
X130191Y7509D01*
X130215Y7442D01*
X130248Y7401D01*
X130272Y7355D01*
X130324Y7306D01*
X130369Y7250D01*
X130413Y7222D01*
X130450Y7186D01*
X130515Y7156D01*
X130576Y7117D01*
X130626Y7104D01*
X130673Y7082D01*
X130745Y7074D01*
X130814Y7057D01*
X130866Y7061D01*
X130918Y7055D01*
X130988Y7070D01*
X131059Y7076D01*
X131107Y7096D01*
X131158Y7107D01*
X131220Y7144D01*
X131286Y7172D01*
X131342Y7217D01*
X131369Y7233D01*
X131385Y7251D01*
X131417Y7277D01*
X132964Y8824D01*
X133572Y8824D01*
X133592Y8827D01*
X133612Y8825D01*
X133713Y8847D01*
X133815Y8863D01*
X133832Y8873D01*
X133852Y8877D01*
X133941Y8930D01*
X134032Y8979D01*
X134046Y8993D01*
X134063Y9003D01*
X134130Y9082D01*
X134202Y9157D01*
X134210Y9175D01*
X134223Y9190D01*
X134262Y9286D01*
X134305Y9380D01*
X134307Y9400D01*
X134315Y9418D01*
X134333Y9585D01*
X134333Y23740D01*
X135673Y25080D01*
X137567Y25080D01*
X138907Y23740D01*
X138907Y7908D01*
X137568Y5589D01*
X135249Y4250D01*
X132964Y4250D01*
X131409Y5805D01*
X131393Y5817D01*
X131380Y5832D01*
X131293Y5888D01*
X131209Y5948D01*
X131190Y5954D01*
X131173Y5965D01*
X131073Y5990D01*
X130974Y6021D01*
X130954Y6020D01*
X130935Y6025D01*
X130832Y6017D01*
X130728Y6014D01*
X130709Y6008D01*
X130690Y6006D01*
X130595Y5966D01*
X130497Y5930D01*
X130482Y5917D01*
X130463Y5910D01*
X130332Y5805D01*
X128778Y4250D01*
X126883Y4250D01*
X125544Y5590D01*
X125544Y7912D01*
X125534Y7973D01*
X125534Y8035D01*
X125514Y8094D01*
X125504Y8155D01*
X125475Y8210D01*
X125455Y8268D01*
X125418Y8318D01*
X125389Y8373D01*
X125344Y8415D01*
X125307Y8464D01*
X125256Y8499D01*
X125211Y8542D01*
X125154Y8568D01*
X125103Y8603D01*
X125044Y8619D01*
X124988Y8646D01*
X124926Y8652D01*
X124866Y8669D01*
X124805Y8666D01*
X124743Y8673D01*
X124683Y8659D01*
X124621Y8656D01*
X124563Y8634D01*
X124503Y8620D01*
X124450Y8589D01*
X124392Y8566D01*
X124345Y8526D01*
X124292Y8494D01*
X124251Y8447D01*
X124204Y8407D01*
X124153Y8332D01*
X124132Y8307D01*
X124125Y8291D01*
X124110Y8269D01*
X122183Y4630D01*
X120373Y4073D01*
X118699Y4959D01*
G37*
%LPD*%
%LPC*%
G36*
X64772Y30920D02*
X64772Y30920D01*
X61615Y32743D01*
X59793Y35900D01*
X59793Y46770D01*
X61615Y49927D01*
X64772Y51750D01*
X72058Y51750D01*
X73397Y50410D01*
X73397Y32260D01*
X72058Y30920D01*
X67857Y30920D01*
X64772Y30920D01*
G37*
%LPD*%
%LPC*%
G36*
X203083Y31777D02*
X203083Y31777D01*
X202663Y33624D01*
X203418Y34823D01*
X203463Y34930D01*
X203511Y35036D01*
X203511Y35043D01*
X203514Y35050D01*
X203523Y35166D01*
X203534Y35281D01*
X203532Y35288D01*
X203533Y35295D01*
X203504Y35407D01*
X203478Y35520D01*
X203474Y35527D01*
X203472Y35534D01*
X203409Y35631D01*
X203348Y35729D01*
X203341Y35735D01*
X203338Y35740D01*
X203322Y35753D01*
X203224Y35843D01*
X201181Y37342D01*
X200893Y39214D01*
X202013Y40742D01*
X203885Y41030D01*
X205580Y39787D01*
X205622Y39765D01*
X205659Y39736D01*
X205731Y39710D01*
X205799Y39675D01*
X205846Y39668D01*
X205890Y39652D01*
X205967Y39651D01*
X206043Y39639D01*
X206089Y39648D01*
X206136Y39647D01*
X206209Y39670D01*
X206285Y39683D01*
X206326Y39706D01*
X206371Y39720D01*
X206433Y39765D01*
X206500Y39802D01*
X206532Y39836D01*
X206570Y39864D01*
X206653Y39968D01*
X206667Y39983D01*
X206669Y39988D01*
X206675Y39995D01*
X207599Y41463D01*
X207640Y41560D01*
X207686Y41656D01*
X207688Y41673D01*
X207694Y41689D01*
X207702Y41795D01*
X207715Y41901D01*
X207712Y41917D01*
X207713Y41934D01*
X207686Y42038D01*
X207665Y42141D01*
X207655Y42160D01*
X207652Y42173D01*
X207635Y42199D01*
X207588Y42290D01*
X207031Y43126D01*
X206976Y43185D01*
X206929Y43249D01*
X206893Y43274D01*
X206892Y43275D01*
X206347Y44151D01*
X206341Y44158D01*
X206334Y44171D01*
X205764Y45027D01*
X205757Y45064D01*
X205732Y45117D01*
X205723Y45145D01*
X205707Y45168D01*
X205685Y45216D01*
X205355Y45746D01*
X205911Y49365D01*
X208691Y51750D01*
X212353Y51750D01*
X215132Y49365D01*
X215688Y45746D01*
X215383Y45255D01*
X215367Y45218D01*
X214719Y44188D01*
X214719Y44187D01*
X214717Y44185D01*
X214083Y43166D01*
X214047Y43120D01*
X213574Y42369D01*
X213532Y42271D01*
X213486Y42175D01*
X213484Y42158D01*
X213478Y42142D01*
X213470Y42036D01*
X213457Y41930D01*
X213461Y41914D01*
X213459Y41897D01*
X213486Y41794D01*
X213507Y41690D01*
X213517Y41671D01*
X213520Y41658D01*
X213537Y41632D01*
X213584Y41541D01*
X215538Y38610D01*
X215549Y38598D01*
X215563Y38575D01*
X216421Y37431D01*
X216421Y34578D01*
X215082Y32259D01*
X212763Y30920D01*
X209910Y30920D01*
X208712Y31819D01*
X208709Y31820D01*
X208705Y31824D01*
X208153Y32229D01*
X208111Y32250D01*
X208074Y32279D01*
X208002Y32306D01*
X207933Y32340D01*
X207887Y32347D01*
X207843Y32363D01*
X207766Y32365D01*
X207690Y32376D01*
X207644Y32368D01*
X207597Y32369D01*
X207524Y32346D01*
X207448Y32333D01*
X207407Y32310D01*
X207362Y32296D01*
X207300Y32251D01*
X207232Y32214D01*
X207201Y32179D01*
X207163Y32152D01*
X207080Y32048D01*
X207066Y32033D01*
X207064Y32027D01*
X207058Y32021D01*
X206533Y31187D01*
X204686Y30767D01*
X203083Y31777D01*
G37*
%LPD*%
%LPC*%
G36*
X243870Y30920D02*
X243870Y30920D01*
X241132Y32501D01*
X239551Y35239D01*
X239551Y40206D01*
X241132Y42944D01*
X243870Y44525D01*
X247821Y44525D01*
X247841Y44528D01*
X247861Y44526D01*
X247962Y44548D01*
X248064Y44565D01*
X248082Y44574D01*
X248101Y44578D01*
X248190Y44631D01*
X248281Y44680D01*
X248295Y44694D01*
X248312Y44704D01*
X248380Y44783D01*
X248451Y44858D01*
X248459Y44876D01*
X248472Y44891D01*
X248511Y44987D01*
X248554Y45081D01*
X248557Y45101D01*
X248564Y45119D01*
X248582Y45286D01*
X248582Y46415D01*
X248579Y46435D01*
X248581Y46454D01*
X248559Y46556D01*
X248543Y46658D01*
X248533Y46675D01*
X248529Y46695D01*
X248476Y46784D01*
X248428Y46875D01*
X248413Y46889D01*
X248403Y46906D01*
X248324Y46973D01*
X248249Y47045D01*
X248231Y47053D01*
X248216Y47066D01*
X248120Y47105D01*
X248026Y47148D01*
X248006Y47150D01*
X247988Y47158D01*
X247821Y47176D01*
X240891Y47176D01*
X239551Y48516D01*
X239551Y50410D01*
X240891Y51750D01*
X251816Y51750D01*
X253156Y50410D01*
X253156Y41291D01*
X251816Y39951D01*
X245451Y39951D01*
X245419Y39946D01*
X245351Y39945D01*
X245205Y39926D01*
X245142Y39907D01*
X245077Y39897D01*
X245001Y39864D01*
X244970Y39855D01*
X244954Y39843D01*
X244924Y39830D01*
X244671Y39684D01*
X244582Y39611D01*
X244581Y39610D01*
X244579Y39609D01*
X244577Y39607D01*
X244492Y39541D01*
X244486Y39532D01*
X244480Y39528D01*
X244469Y39509D01*
X244417Y39439D01*
X244409Y39431D01*
X244406Y39425D01*
X244392Y39405D01*
X244246Y39152D01*
X244223Y39091D01*
X244191Y39034D01*
X244171Y38953D01*
X244159Y38922D01*
X244158Y38903D01*
X244151Y38871D01*
X244131Y38725D01*
X244132Y38693D01*
X244125Y38626D01*
X244125Y36819D01*
X244130Y36788D01*
X244131Y36720D01*
X244151Y36574D01*
X244170Y36511D01*
X244179Y36446D01*
X244212Y36370D01*
X244222Y36339D01*
X244233Y36323D01*
X244246Y36293D01*
X244392Y36040D01*
X244465Y35951D01*
X244536Y35860D01*
X244544Y35854D01*
X244548Y35849D01*
X244567Y35837D01*
X244671Y35761D01*
X244924Y35615D01*
X244985Y35592D01*
X245042Y35560D01*
X245123Y35540D01*
X245154Y35528D01*
X245173Y35527D01*
X245205Y35519D01*
X245351Y35500D01*
X245383Y35501D01*
X245451Y35494D01*
X251816Y35494D01*
X253156Y34154D01*
X253156Y32260D01*
X251816Y30920D01*
X243870Y30920D01*
G37*
%LPD*%
%LPC*%
G36*
X183703Y30920D02*
X183703Y30920D01*
X180127Y33518D01*
X178761Y37723D01*
X180028Y41623D01*
X180033Y41654D01*
X180045Y41684D01*
X180051Y41775D01*
X180065Y41866D01*
X180060Y41897D01*
X180062Y41929D01*
X180028Y42093D01*
X178807Y45851D01*
X179992Y49496D01*
X183093Y51750D01*
X191376Y51750D01*
X192715Y50410D01*
X192715Y48516D01*
X191376Y47176D01*
X185010Y47176D01*
X184977Y47171D01*
X184891Y47167D01*
X184716Y47139D01*
X184626Y47109D01*
X184534Y47086D01*
X184503Y47069D01*
X184483Y47062D01*
X184457Y47042D01*
X184388Y47003D01*
X184106Y46798D01*
X184083Y46776D01*
X184056Y46759D01*
X183997Y46689D01*
X183933Y46623D01*
X183919Y46595D01*
X183898Y46570D01*
X183829Y46418D01*
X183721Y46086D01*
X183719Y46072D01*
X183713Y46059D01*
X183712Y46042D01*
X183704Y46025D01*
X183698Y45934D01*
X183684Y45843D01*
X183687Y45824D01*
X183686Y45815D01*
X183689Y45802D01*
X183688Y45780D01*
X183721Y45615D01*
X183829Y45283D01*
X183844Y45255D01*
X183851Y45224D01*
X183900Y45147D01*
X183942Y45065D01*
X183965Y45043D01*
X183982Y45016D01*
X184106Y44903D01*
X184388Y44698D01*
X184473Y44655D01*
X184555Y44606D01*
X184589Y44597D01*
X184608Y44587D01*
X184640Y44583D01*
X184716Y44562D01*
X184891Y44534D01*
X184924Y44534D01*
X185010Y44525D01*
X189570Y44525D01*
X190909Y43185D01*
X190909Y41291D01*
X189570Y39951D01*
X187176Y39951D01*
X187175Y39951D01*
X185913Y39951D01*
X185881Y39946D01*
X185794Y39942D01*
X185341Y39870D01*
X185250Y39840D01*
X185158Y39817D01*
X185127Y39799D01*
X185107Y39793D01*
X185081Y39773D01*
X185012Y39734D01*
X184278Y39201D01*
X184256Y39178D01*
X184229Y39162D01*
X184170Y39091D01*
X184105Y39026D01*
X184091Y38998D01*
X184071Y38973D01*
X184002Y38820D01*
X183722Y37958D01*
X183717Y37926D01*
X183705Y37897D01*
X183698Y37806D01*
X183684Y37715D01*
X183690Y37683D01*
X183688Y37652D01*
X183722Y37487D01*
X184002Y36625D01*
X184016Y36596D01*
X184024Y36565D01*
X184072Y36488D01*
X184115Y36406D01*
X184137Y36384D01*
X184154Y36357D01*
X184278Y36244D01*
X185012Y35711D01*
X185097Y35668D01*
X185179Y35619D01*
X185213Y35610D01*
X185232Y35600D01*
X185265Y35596D01*
X185341Y35575D01*
X185794Y35503D01*
X185827Y35503D01*
X185913Y35494D01*
X191376Y35494D01*
X192715Y34154D01*
X192715Y32260D01*
X191376Y30920D01*
X183703Y30920D01*
G37*
%LPD*%
%LPC*%
G36*
X125594Y30920D02*
X125594Y30920D01*
X122856Y32501D01*
X121275Y35239D01*
X121275Y38401D01*
X122845Y41147D01*
X123170Y41339D01*
X123231Y41390D01*
X123297Y41433D01*
X123325Y41468D01*
X123333Y41475D01*
X124229Y41964D01*
X124237Y41970D01*
X124251Y41976D01*
X125133Y42496D01*
X125175Y42501D01*
X125230Y42523D01*
X125259Y42530D01*
X125282Y42545D01*
X125330Y42564D01*
X129161Y44654D01*
X129187Y44674D01*
X129264Y44722D01*
X129383Y44814D01*
X129426Y44861D01*
X129477Y44901D01*
X129527Y44971D01*
X129550Y44995D01*
X129557Y45012D01*
X129576Y45037D01*
X129734Y45313D01*
X129756Y45374D01*
X129788Y45430D01*
X129808Y45513D01*
X129820Y45544D01*
X129820Y45562D01*
X129828Y45593D01*
X129848Y45752D01*
X129848Y45767D01*
X129852Y45782D01*
X129851Y45816D01*
X129855Y45850D01*
X129855Y45851D01*
X129851Y45873D01*
X129853Y45893D01*
X129849Y45913D01*
X129848Y45950D01*
X129829Y46096D01*
X129810Y46159D01*
X129801Y46224D01*
X129768Y46300D01*
X129758Y46332D01*
X129747Y46347D01*
X129734Y46377D01*
X129588Y46630D01*
X129515Y46719D01*
X129444Y46810D01*
X129436Y46815D01*
X129432Y46821D01*
X129413Y46833D01*
X129309Y46909D01*
X129056Y47055D01*
X128995Y47078D01*
X128938Y47110D01*
X128857Y47130D01*
X128826Y47142D01*
X128806Y47143D01*
X128775Y47150D01*
X128629Y47170D01*
X128616Y47169D01*
X128468Y47174D01*
X127871Y47126D01*
X127864Y47124D01*
X127856Y47124D01*
X127692Y47089D01*
X126559Y46712D01*
X126552Y46708D01*
X126545Y46707D01*
X126394Y46633D01*
X125888Y46314D01*
X125871Y46299D01*
X125837Y46279D01*
X125079Y45711D01*
X123204Y45978D01*
X122067Y47494D01*
X122335Y49369D01*
X123093Y49938D01*
X124269Y50820D01*
X127059Y51750D01*
X130110Y51750D01*
X132848Y50169D01*
X134428Y47431D01*
X134428Y44269D01*
X132859Y41523D01*
X132533Y41331D01*
X132473Y41280D01*
X132407Y41237D01*
X132379Y41202D01*
X132371Y41195D01*
X131475Y40706D01*
X131467Y40700D01*
X131453Y40694D01*
X130571Y40174D01*
X130529Y40169D01*
X130474Y40147D01*
X130444Y40140D01*
X130421Y40125D01*
X130374Y40106D01*
X126543Y38016D01*
X126517Y37996D01*
X126439Y37948D01*
X126321Y37856D01*
X126277Y37809D01*
X126227Y37769D01*
X126176Y37699D01*
X126154Y37675D01*
X126146Y37658D01*
X126128Y37633D01*
X125970Y37356D01*
X125947Y37296D01*
X125916Y37240D01*
X125896Y37157D01*
X125884Y37126D01*
X125883Y37107D01*
X125876Y37077D01*
X125855Y36918D01*
X125856Y36903D01*
X125852Y36888D01*
X125855Y36720D01*
X125875Y36574D01*
X125893Y36511D01*
X125903Y36446D01*
X125936Y36370D01*
X125946Y36339D01*
X125957Y36323D01*
X125970Y36293D01*
X126116Y36040D01*
X126189Y35951D01*
X126260Y35860D01*
X126268Y35854D01*
X126272Y35849D01*
X126291Y35837D01*
X126395Y35761D01*
X126648Y35615D01*
X126709Y35592D01*
X126766Y35560D01*
X126847Y35540D01*
X126878Y35528D01*
X126897Y35527D01*
X126929Y35519D01*
X127075Y35500D01*
X127079Y35500D01*
X127082Y35499D01*
X127249Y35497D01*
X128148Y35586D01*
X128176Y35594D01*
X128205Y35594D01*
X128366Y35641D01*
X130026Y36333D01*
X130050Y36348D01*
X130078Y36357D01*
X130218Y36449D01*
X130914Y37024D01*
X130931Y37044D01*
X130969Y37075D01*
X131636Y37747D01*
X133531Y37755D01*
X134876Y36422D01*
X134884Y34527D01*
X134217Y33855D01*
X132820Y32446D01*
X129158Y30920D01*
X125594Y30920D01*
G37*
%LPD*%
%LPC*%
G36*
X156821Y4250D02*
X156821Y4250D01*
X155482Y5590D01*
X155482Y13402D01*
X155481Y13403D01*
X155482Y14665D01*
X155482Y15753D01*
X155482Y15927D01*
X155482Y16735D01*
X158408Y19661D01*
X161945Y19661D01*
X161965Y19664D01*
X161985Y19662D01*
X162086Y19684D01*
X162188Y19701D01*
X162205Y19710D01*
X162225Y19714D01*
X162314Y19768D01*
X162405Y19816D01*
X162419Y19830D01*
X162436Y19841D01*
X162503Y19919D01*
X162575Y19994D01*
X162583Y20012D01*
X162596Y20027D01*
X162635Y20124D01*
X162678Y20217D01*
X162680Y20237D01*
X162688Y20256D01*
X162706Y20422D01*
X162706Y23740D01*
X164046Y25080D01*
X165940Y25080D01*
X167280Y23740D01*
X167280Y5590D01*
X165940Y4250D01*
X164046Y4250D01*
X162706Y5590D01*
X162706Y14326D01*
X162703Y14346D01*
X162705Y14366D01*
X162683Y14467D01*
X162667Y14569D01*
X162657Y14587D01*
X162653Y14606D01*
X162600Y14695D01*
X162552Y14786D01*
X162537Y14800D01*
X162527Y14817D01*
X162448Y14885D01*
X162373Y14956D01*
X162355Y14964D01*
X162340Y14977D01*
X162244Y15016D01*
X162150Y15059D01*
X162130Y15062D01*
X162112Y15069D01*
X161945Y15088D01*
X160816Y15088D01*
X160797Y15084D01*
X160777Y15087D01*
X160676Y15065D01*
X160574Y15048D01*
X160556Y15039D01*
X160536Y15034D01*
X160447Y14981D01*
X160356Y14933D01*
X160342Y14918D01*
X160325Y14908D01*
X160258Y14829D01*
X160187Y14754D01*
X160178Y14736D01*
X160165Y14721D01*
X160127Y14625D01*
X160083Y14531D01*
X160081Y14512D01*
X160073Y14493D01*
X160055Y14326D01*
X160055Y5590D01*
X158715Y4250D01*
X156821Y4250D01*
G37*
%LPD*%
%LPC*%
G36*
X109490Y4395D02*
X109490Y4395D01*
X109459Y4405D01*
X109390Y4436D01*
X108692Y4669D01*
X108691Y4671D01*
X108634Y4735D01*
X108584Y4805D01*
X108553Y4827D01*
X108528Y4855D01*
X108453Y4904D01*
X108218Y5608D01*
X108203Y5637D01*
X108177Y5708D01*
X107847Y6366D01*
X107848Y6368D01*
X107853Y6454D01*
X107867Y6539D01*
X107861Y6576D01*
X107863Y6614D01*
X107828Y6778D01*
X102431Y22968D01*
X103278Y24663D01*
X105076Y25262D01*
X106770Y24415D01*
X109597Y15935D01*
X109598Y15933D01*
X109598Y15931D01*
X109655Y15823D01*
X109711Y15717D01*
X109713Y15716D01*
X109714Y15714D01*
X109803Y15630D01*
X109889Y15547D01*
X109891Y15546D01*
X109892Y15545D01*
X110003Y15494D01*
X110112Y15443D01*
X110114Y15443D01*
X110116Y15442D01*
X110235Y15429D01*
X110356Y15415D01*
X110358Y15416D01*
X110360Y15415D01*
X110480Y15442D01*
X110597Y15467D01*
X110598Y15468D01*
X110601Y15468D01*
X110704Y15531D01*
X110808Y15592D01*
X110810Y15594D01*
X110811Y15595D01*
X110890Y15688D01*
X110968Y15779D01*
X110969Y15781D01*
X110971Y15783D01*
X111041Y15935D01*
X113868Y24415D01*
X115562Y25262D01*
X117359Y24663D01*
X118206Y22968D01*
X116700Y18451D01*
X116700Y18450D01*
X116700Y18449D01*
X116698Y18436D01*
X116690Y18419D01*
X112809Y6778D01*
X112803Y6741D01*
X112789Y6706D01*
X112784Y6620D01*
X112770Y6535D01*
X112777Y6498D01*
X112774Y6460D01*
X112793Y6372D01*
X112461Y5708D01*
X112451Y5677D01*
X112420Y5608D01*
X112187Y4910D01*
X112185Y4909D01*
X112120Y4852D01*
X112051Y4802D01*
X112029Y4771D01*
X112001Y4746D01*
X111952Y4671D01*
X111247Y4436D01*
X111218Y4421D01*
X111148Y4395D01*
X110489Y4066D01*
X110488Y4066D01*
X110402Y4072D01*
X110317Y4085D01*
X110280Y4079D01*
X110242Y4082D01*
X110154Y4063D01*
X109490Y4395D01*
G37*
%LPD*%
%LPC*%
G36*
X33729Y30737D02*
X33729Y30737D01*
X33709Y30747D01*
X33609Y30761D01*
X33510Y30781D01*
X33487Y30778D01*
X33465Y30781D01*
X33301Y30759D01*
X32727Y31103D01*
X32699Y31114D01*
X32602Y31163D01*
X31975Y31399D01*
X31964Y31415D01*
X31956Y31437D01*
X31896Y31517D01*
X31840Y31601D01*
X31822Y31615D01*
X31808Y31633D01*
X31676Y31733D01*
X31514Y32383D01*
X31502Y32410D01*
X31468Y32513D01*
X31191Y33123D01*
X31195Y33143D01*
X31205Y33163D01*
X31219Y33263D01*
X31239Y33362D01*
X31236Y33385D01*
X31239Y33407D01*
X31216Y33573D01*
X28508Y44409D01*
X29482Y46033D01*
X31320Y46492D01*
X32944Y45518D01*
X33636Y42752D01*
X33661Y42694D01*
X33676Y42633D01*
X33709Y42582D01*
X33733Y42527D01*
X33775Y42480D01*
X33810Y42426D01*
X33857Y42389D01*
X33898Y42344D01*
X33953Y42313D01*
X34002Y42273D01*
X34059Y42252D01*
X34112Y42223D01*
X34174Y42211D01*
X34233Y42189D01*
X34294Y42188D01*
X34353Y42176D01*
X34416Y42185D01*
X34479Y42183D01*
X34564Y42205D01*
X34597Y42209D01*
X34613Y42217D01*
X34642Y42224D01*
X35475Y42537D01*
X35491Y42546D01*
X35522Y42556D01*
X36340Y42928D01*
X36348Y42926D01*
X36399Y42933D01*
X37227Y42556D01*
X37245Y42551D01*
X37274Y42537D01*
X38107Y42224D01*
X38169Y42212D01*
X38228Y42190D01*
X38289Y42188D01*
X38348Y42176D01*
X38411Y42184D01*
X38474Y42182D01*
X38532Y42200D01*
X38592Y42208D01*
X38649Y42235D01*
X38710Y42254D01*
X38759Y42289D01*
X38814Y42315D01*
X38859Y42360D01*
X38910Y42396D01*
X38946Y42445D01*
X38989Y42488D01*
X39018Y42544D01*
X39055Y42595D01*
X39085Y42678D01*
X39100Y42707D01*
X39103Y42725D01*
X39113Y42752D01*
X39804Y45518D01*
X41429Y46492D01*
X43267Y46033D01*
X44241Y44409D01*
X41532Y33573D01*
X41531Y33551D01*
X41523Y33530D01*
X41520Y33429D01*
X41512Y33328D01*
X41517Y33306D01*
X41517Y33284D01*
X41558Y33123D01*
X41280Y32513D01*
X41273Y32485D01*
X41235Y32383D01*
X41072Y31733D01*
X41057Y31720D01*
X41037Y31710D01*
X40963Y31641D01*
X40886Y31576D01*
X40875Y31556D01*
X40859Y31541D01*
X40774Y31399D01*
X40147Y31163D01*
X40121Y31149D01*
X40022Y31103D01*
X39448Y30759D01*
X39428Y30760D01*
X39407Y30768D01*
X39306Y30770D01*
X39205Y30779D01*
X39183Y30773D01*
X39161Y30774D01*
X39000Y30733D01*
X38390Y31010D01*
X38362Y31018D01*
X38260Y31056D01*
X37610Y31218D01*
X37597Y31234D01*
X37587Y31254D01*
X37517Y31327D01*
X37452Y31404D01*
X37433Y31416D01*
X37418Y31432D01*
X37275Y31517D01*
X37087Y32019D01*
X37039Y32103D01*
X36996Y32190D01*
X36978Y32209D01*
X36965Y32232D01*
X36892Y32296D01*
X36824Y32366D01*
X36800Y32378D01*
X36781Y32395D01*
X36691Y32433D01*
X36604Y32477D01*
X36578Y32481D01*
X36554Y32491D01*
X36457Y32498D01*
X36361Y32512D01*
X36335Y32508D01*
X36309Y32510D01*
X36215Y32486D01*
X36119Y32468D01*
X36096Y32456D01*
X36071Y32449D01*
X35989Y32397D01*
X35904Y32350D01*
X35886Y32330D01*
X35864Y32316D01*
X35803Y32240D01*
X35738Y32168D01*
X35723Y32139D01*
X35710Y32124D01*
X35699Y32093D01*
X35662Y32019D01*
X35473Y31517D01*
X35457Y31506D01*
X35435Y31498D01*
X35355Y31437D01*
X35271Y31381D01*
X35257Y31364D01*
X35239Y31350D01*
X35139Y31218D01*
X34489Y31056D01*
X34462Y31044D01*
X34359Y31010D01*
X33749Y30733D01*
X33729Y30737D01*
G37*
%LPD*%
%LPC*%
G36*
X142826Y4250D02*
X142826Y4250D01*
X141487Y5590D01*
X141487Y16004D01*
X142825Y18322D01*
X145144Y19661D01*
X146483Y19661D01*
X151042Y19661D01*
X152382Y18322D01*
X152382Y16427D01*
X151102Y15148D01*
X151056Y15083D01*
X151051Y15078D01*
X151045Y15071D01*
X151044Y15070D01*
X151002Y15024D01*
X150985Y14984D01*
X150959Y14948D01*
X150935Y14872D01*
X150903Y14799D01*
X150899Y14755D01*
X150886Y14713D01*
X150889Y14633D01*
X150881Y14554D01*
X150892Y14511D01*
X150893Y14467D01*
X150920Y14392D01*
X150939Y14315D01*
X150962Y14277D01*
X150977Y14236D01*
X151027Y14174D01*
X151069Y14106D01*
X151113Y14067D01*
X151131Y14044D01*
X151154Y14029D01*
X151193Y13993D01*
X152471Y13065D01*
X153565Y9698D01*
X152471Y6331D01*
X149607Y4250D01*
X142826Y4250D01*
G37*
%LPD*%
%LPC*%
G36*
X47839Y31801D02*
X47839Y31801D01*
X45585Y34903D01*
X45585Y42349D01*
X47839Y45450D01*
X51485Y46635D01*
X55130Y45450D01*
X57384Y42349D01*
X57384Y34903D01*
X55131Y31801D01*
X51485Y30617D01*
X47839Y31801D01*
G37*
%LPD*%
%LPC*%
G36*
X170269Y4250D02*
X170269Y4250D01*
X168929Y5590D01*
X168929Y7484D01*
X170269Y8824D01*
X174828Y8824D01*
X174860Y8829D01*
X174928Y8830D01*
X175074Y8849D01*
X175136Y8868D01*
X175201Y8878D01*
X175278Y8911D01*
X175309Y8921D01*
X175325Y8932D01*
X175355Y8945D01*
X175608Y9091D01*
X175697Y9164D01*
X175787Y9234D01*
X175793Y9243D01*
X175798Y9247D01*
X175810Y9266D01*
X175887Y9370D01*
X176033Y9623D01*
X176056Y9684D01*
X176088Y9741D01*
X176108Y9822D01*
X176120Y9853D01*
X176120Y9872D01*
X176128Y9904D01*
X176147Y10050D01*
X176146Y10082D01*
X176154Y10149D01*
X176154Y19181D01*
X176149Y19212D01*
X176148Y19243D01*
X176149Y19250D01*
X176148Y19254D01*
X176147Y19280D01*
X176128Y19426D01*
X176109Y19489D01*
X176100Y19554D01*
X176067Y19630D01*
X176057Y19661D01*
X176046Y19677D01*
X176033Y19707D01*
X175887Y19960D01*
X175814Y20049D01*
X175743Y20139D01*
X175735Y20146D01*
X175731Y20151D01*
X175712Y20163D01*
X175608Y20239D01*
X175355Y20385D01*
X175294Y20408D01*
X175237Y20440D01*
X175156Y20460D01*
X175125Y20472D01*
X175106Y20473D01*
X175074Y20481D01*
X174928Y20500D01*
X174896Y20499D01*
X174828Y20506D01*
X173566Y20506D01*
X170269Y20506D01*
X168929Y21846D01*
X168929Y23740D01*
X170269Y25080D01*
X176091Y25080D01*
X176409Y25080D01*
X179147Y23499D01*
X180727Y20761D01*
X180727Y8569D01*
X179147Y5831D01*
X176409Y4250D01*
X170269Y4250D01*
G37*
%LPD*%
%LPC*%
G36*
X16184Y30920D02*
X16184Y30920D01*
X14844Y32260D01*
X14844Y40072D01*
X14844Y40073D01*
X14844Y41335D01*
X14844Y42376D01*
X14844Y42597D01*
X14844Y43405D01*
X17771Y46331D01*
X25303Y46331D01*
X26642Y44992D01*
X26642Y32260D01*
X25303Y30920D01*
X23408Y30920D01*
X22069Y32260D01*
X22069Y40996D01*
X22066Y41016D01*
X22068Y41036D01*
X22046Y41137D01*
X22029Y41239D01*
X22020Y41257D01*
X22016Y41276D01*
X21962Y41365D01*
X21914Y41456D01*
X21900Y41470D01*
X21889Y41487D01*
X21811Y41555D01*
X21736Y41626D01*
X21718Y41634D01*
X21703Y41647D01*
X21606Y41686D01*
X21513Y41729D01*
X21493Y41732D01*
X21474Y41739D01*
X21308Y41758D01*
X20179Y41758D01*
X20159Y41754D01*
X20139Y41757D01*
X20038Y41735D01*
X19936Y41718D01*
X19918Y41709D01*
X19899Y41704D01*
X19810Y41651D01*
X19719Y41603D01*
X19705Y41588D01*
X19688Y41578D01*
X19620Y41499D01*
X19549Y41424D01*
X19541Y41406D01*
X19528Y41391D01*
X19489Y41295D01*
X19446Y41201D01*
X19443Y41182D01*
X19436Y41163D01*
X19418Y40996D01*
X19418Y32260D01*
X18078Y30920D01*
X16184Y30920D01*
G37*
%LPD*%
%LPC*%
G36*
X231457Y31065D02*
X231457Y31065D01*
X231425Y31075D01*
X231357Y31106D01*
X230659Y31339D01*
X230658Y31341D01*
X230601Y31405D01*
X230551Y31475D01*
X230520Y31497D01*
X230495Y31525D01*
X230420Y31574D01*
X230185Y32278D01*
X230170Y32307D01*
X230143Y32378D01*
X229814Y33036D01*
X229815Y33038D01*
X229820Y33124D01*
X229834Y33209D01*
X229828Y33246D01*
X229830Y33284D01*
X229795Y33448D01*
X226204Y44220D01*
X227051Y45914D01*
X228849Y46513D01*
X230543Y45666D01*
X231563Y42605D01*
X231564Y42603D01*
X231565Y42601D01*
X231622Y42493D01*
X231678Y42387D01*
X231679Y42386D01*
X231680Y42384D01*
X231770Y42300D01*
X231856Y42217D01*
X231858Y42216D01*
X231859Y42215D01*
X231970Y42164D01*
X232079Y42113D01*
X232081Y42113D01*
X232083Y42112D01*
X232201Y42099D01*
X232323Y42085D01*
X232325Y42086D01*
X232327Y42085D01*
X232447Y42112D01*
X232563Y42137D01*
X232565Y42138D01*
X232567Y42138D01*
X232670Y42200D01*
X232775Y42262D01*
X232776Y42264D01*
X232778Y42265D01*
X232856Y42357D01*
X232935Y42449D01*
X232936Y42451D01*
X232938Y42452D01*
X233008Y42605D01*
X234028Y45666D01*
X235723Y46513D01*
X237520Y45914D01*
X238367Y44220D01*
X234776Y33448D01*
X234770Y33411D01*
X234756Y33376D01*
X234751Y33290D01*
X234737Y33205D01*
X234743Y33168D01*
X234741Y33130D01*
X234760Y33042D01*
X234428Y32378D01*
X234418Y32347D01*
X234386Y32278D01*
X234154Y31580D01*
X234152Y31579D01*
X234087Y31522D01*
X234018Y31472D01*
X233996Y31441D01*
X233968Y31416D01*
X233919Y31341D01*
X233214Y31106D01*
X233185Y31091D01*
X233114Y31065D01*
X232456Y30736D01*
X232454Y30736D01*
X232368Y30742D01*
X232284Y30755D01*
X232246Y30749D01*
X232209Y30752D01*
X232121Y30733D01*
X231457Y31065D01*
G37*
%LPD*%
%LPC*%
G36*
X94802Y153261D02*
X94802Y153261D01*
X91693Y156370D01*
X91693Y160766D01*
X94802Y163875D01*
X99198Y163875D01*
X102307Y160766D01*
X102307Y156370D01*
X99198Y153261D01*
X94802Y153261D01*
G37*
%LPD*%
%LPC*%
G36*
X105802Y116693D02*
X105802Y116693D01*
X102693Y119802D01*
X102693Y124198D01*
X105802Y127307D01*
X110198Y127307D01*
X113307Y124198D01*
X113307Y119802D01*
X110198Y116693D01*
X105802Y116693D01*
G37*
%LPD*%
%LPC*%
G36*
X150214Y114593D02*
X150214Y114593D01*
X147105Y117702D01*
X147105Y122098D01*
X150214Y125207D01*
X154610Y125207D01*
X157719Y122098D01*
X157719Y117702D01*
X154610Y114593D01*
X150214Y114593D01*
G37*
%LPD*%
%LPC*%
G36*
X30802Y92193D02*
X30802Y92193D01*
X27693Y95302D01*
X27693Y99698D01*
X30802Y102807D01*
X35198Y102807D01*
X38307Y99698D01*
X38307Y95302D01*
X35198Y92193D01*
X30802Y92193D01*
G37*
%LPD*%
D10*
X250869Y33207D02*
X245451Y33207D01*
X245333Y33209D01*
X245215Y33215D01*
X245097Y33224D01*
X244980Y33238D01*
X244863Y33255D01*
X244746Y33276D01*
X244631Y33301D01*
X244516Y33330D01*
X244402Y33363D01*
X244290Y33399D01*
X244179Y33439D01*
X244069Y33482D01*
X243960Y33529D01*
X243853Y33579D01*
X243748Y33634D01*
X243645Y33691D01*
X243544Y33752D01*
X243444Y33816D01*
X243347Y33883D01*
X243252Y33953D01*
X243160Y34027D01*
X243069Y34103D01*
X242982Y34183D01*
X242897Y34265D01*
X242815Y34350D01*
X242735Y34437D01*
X242659Y34528D01*
X242585Y34620D01*
X242515Y34715D01*
X242448Y34812D01*
X242384Y34912D01*
X242323Y35013D01*
X242266Y35116D01*
X242211Y35221D01*
X242161Y35328D01*
X242114Y35437D01*
X242071Y35547D01*
X242031Y35658D01*
X241995Y35770D01*
X241962Y35884D01*
X241933Y35999D01*
X241908Y36114D01*
X241887Y36231D01*
X241870Y36348D01*
X241856Y36465D01*
X241847Y36583D01*
X241841Y36701D01*
X241839Y36819D01*
X241838Y36819D02*
X241838Y38626D01*
X241839Y38626D02*
X241841Y38744D01*
X241847Y38862D01*
X241856Y38980D01*
X241870Y39097D01*
X241887Y39214D01*
X241908Y39331D01*
X241933Y39446D01*
X241962Y39561D01*
X241995Y39675D01*
X242031Y39787D01*
X242071Y39898D01*
X242114Y40008D01*
X242161Y40117D01*
X242211Y40224D01*
X242266Y40329D01*
X242323Y40432D01*
X242384Y40533D01*
X242448Y40633D01*
X242515Y40730D01*
X242585Y40825D01*
X242659Y40917D01*
X242735Y41008D01*
X242815Y41095D01*
X242897Y41180D01*
X242982Y41262D01*
X243069Y41342D01*
X243160Y41418D01*
X243252Y41492D01*
X243347Y41562D01*
X243444Y41629D01*
X243544Y41693D01*
X243645Y41754D01*
X243748Y41811D01*
X243853Y41866D01*
X243960Y41916D01*
X244069Y41963D01*
X244179Y42006D01*
X244290Y42046D01*
X244402Y42082D01*
X244516Y42115D01*
X244631Y42144D01*
X244746Y42169D01*
X244863Y42190D01*
X244980Y42207D01*
X245097Y42221D01*
X245215Y42230D01*
X245333Y42236D01*
X245451Y42238D01*
X250869Y42238D01*
X250869Y49463D01*
X241838Y49463D01*
X235898Y44044D02*
X232286Y33207D01*
X228673Y44044D01*
X212780Y45399D02*
X212831Y45486D01*
X212880Y45575D01*
X212925Y45665D01*
X212966Y45757D01*
X213004Y45851D01*
X213039Y45946D01*
X213069Y46042D01*
X213097Y46139D01*
X213120Y46237D01*
X213140Y46337D01*
X213155Y46436D01*
X213168Y46537D01*
X213176Y46637D01*
X213180Y46738D01*
X213181Y46839D01*
X213178Y46940D01*
X213170Y47041D01*
X213160Y47141D01*
X213145Y47241D01*
X213126Y47341D01*
X213104Y47439D01*
X213078Y47537D01*
X213048Y47633D01*
X213015Y47729D01*
X212978Y47823D01*
X212938Y47915D01*
X212894Y48006D01*
X212846Y48095D01*
X212796Y48183D01*
X212742Y48268D01*
X212684Y48351D01*
X212624Y48432D01*
X212561Y48511D01*
X212494Y48587D01*
X212425Y48661D01*
X212353Y48732D01*
X212279Y48800D01*
X212202Y48865D01*
X212122Y48927D01*
X212041Y48987D01*
X211957Y49043D01*
X211870Y49096D01*
X211782Y49145D01*
X211693Y49191D01*
X211601Y49234D01*
X211508Y49273D01*
X211414Y49309D01*
X211318Y49341D01*
X211221Y49370D01*
X211123Y49394D01*
X211024Y49415D01*
X210925Y49432D01*
X210824Y49446D01*
X210724Y49455D01*
X210623Y49461D01*
X210522Y49463D01*
X212779Y45399D02*
X205103Y33207D01*
X208264Y45399D02*
X208213Y45486D01*
X208164Y45575D01*
X208119Y45665D01*
X208078Y45757D01*
X208040Y45851D01*
X208005Y45946D01*
X207975Y46042D01*
X207947Y46139D01*
X207924Y46237D01*
X207904Y46337D01*
X207889Y46436D01*
X207876Y46537D01*
X207868Y46637D01*
X207864Y46738D01*
X207863Y46839D01*
X207866Y46940D01*
X207874Y47041D01*
X207884Y47141D01*
X207899Y47241D01*
X207918Y47341D01*
X207940Y47439D01*
X207966Y47537D01*
X207996Y47633D01*
X208029Y47729D01*
X208066Y47823D01*
X208106Y47915D01*
X208150Y48006D01*
X208198Y48095D01*
X208248Y48183D01*
X208302Y48268D01*
X208360Y48351D01*
X208420Y48432D01*
X208483Y48511D01*
X208550Y48587D01*
X208619Y48661D01*
X208691Y48732D01*
X208765Y48800D01*
X208842Y48865D01*
X208922Y48927D01*
X209003Y48987D01*
X209087Y49043D01*
X209174Y49096D01*
X209262Y49145D01*
X209351Y49191D01*
X209443Y49234D01*
X209536Y49273D01*
X209630Y49309D01*
X209726Y49341D01*
X209823Y49370D01*
X209921Y49394D01*
X210020Y49415D01*
X210119Y49432D01*
X210220Y49446D01*
X210320Y49455D01*
X210421Y49461D01*
X210522Y49463D01*
X214134Y35916D02*
X214132Y35815D01*
X214126Y35714D01*
X214117Y35613D01*
X214104Y35512D01*
X214087Y35412D01*
X214066Y35313D01*
X214042Y35215D01*
X214014Y35118D01*
X213982Y35021D01*
X213947Y34926D01*
X213908Y34833D01*
X213866Y34741D01*
X213820Y34650D01*
X213771Y34561D01*
X213719Y34475D01*
X213663Y34390D01*
X213605Y34307D01*
X213543Y34227D01*
X213478Y34149D01*
X213411Y34073D01*
X213341Y34000D01*
X213268Y33930D01*
X213192Y33863D01*
X213114Y33798D01*
X213034Y33736D01*
X212951Y33678D01*
X212866Y33622D01*
X212780Y33570D01*
X212691Y33521D01*
X212600Y33475D01*
X212508Y33433D01*
X212415Y33394D01*
X212320Y33359D01*
X212223Y33327D01*
X212126Y33299D01*
X212028Y33275D01*
X211929Y33254D01*
X211829Y33237D01*
X211728Y33224D01*
X211627Y33215D01*
X211526Y33209D01*
X211425Y33207D01*
X214134Y35916D02*
X214132Y36007D01*
X214127Y36097D01*
X214118Y36188D01*
X214105Y36278D01*
X214089Y36367D01*
X214069Y36456D01*
X214045Y36543D01*
X214018Y36630D01*
X213988Y36716D01*
X213954Y36800D01*
X213917Y36883D01*
X213876Y36964D01*
X213832Y37043D01*
X213785Y37121D01*
X213735Y37197D01*
X213682Y37271D01*
X208264Y45399D01*
X210070Y33659D02*
X210144Y33606D01*
X210220Y33556D01*
X210298Y33509D01*
X210377Y33465D01*
X210458Y33424D01*
X210541Y33387D01*
X210625Y33353D01*
X210711Y33323D01*
X210798Y33296D01*
X210885Y33272D01*
X210974Y33252D01*
X211063Y33236D01*
X211153Y33223D01*
X211244Y33214D01*
X211334Y33209D01*
X211425Y33207D01*
X210070Y33659D02*
X203297Y38626D01*
X190429Y33207D02*
X185913Y33207D01*
X185780Y33209D01*
X185648Y33215D01*
X185516Y33225D01*
X185384Y33238D01*
X185252Y33256D01*
X185122Y33277D01*
X184991Y33302D01*
X184862Y33331D01*
X184734Y33364D01*
X184606Y33400D01*
X184480Y33440D01*
X184355Y33484D01*
X184231Y33532D01*
X184109Y33583D01*
X183988Y33638D01*
X183869Y33696D01*
X183751Y33758D01*
X183636Y33823D01*
X183522Y33892D01*
X183411Y33963D01*
X183302Y34039D01*
X183195Y34117D01*
X183090Y34198D01*
X182988Y34283D01*
X182888Y34370D01*
X182791Y34460D01*
X182696Y34553D01*
X182605Y34649D01*
X182516Y34747D01*
X182430Y34848D01*
X182347Y34952D01*
X182267Y35058D01*
X182191Y35166D01*
X182117Y35276D01*
X182047Y35389D01*
X181980Y35503D01*
X181917Y35620D01*
X181857Y35738D01*
X181800Y35858D01*
X181747Y35980D01*
X181698Y36103D01*
X181652Y36227D01*
X181610Y36353D01*
X181572Y36480D01*
X181537Y36608D01*
X181506Y36737D01*
X181479Y36866D01*
X181456Y36997D01*
X181436Y37128D01*
X181421Y37260D01*
X181409Y37392D01*
X181401Y37524D01*
X181397Y37657D01*
X181397Y37789D01*
X181401Y37922D01*
X181409Y38054D01*
X181421Y38186D01*
X181436Y38318D01*
X181456Y38449D01*
X181479Y38580D01*
X181506Y38709D01*
X181537Y38838D01*
X181572Y38966D01*
X181610Y39093D01*
X181652Y39219D01*
X181698Y39343D01*
X181747Y39466D01*
X181800Y39588D01*
X181857Y39708D01*
X181917Y39826D01*
X181980Y39943D01*
X182047Y40057D01*
X182117Y40170D01*
X182191Y40280D01*
X182267Y40388D01*
X182347Y40494D01*
X182430Y40598D01*
X182516Y40699D01*
X182605Y40797D01*
X182696Y40893D01*
X182791Y40986D01*
X182888Y41076D01*
X182988Y41163D01*
X183090Y41248D01*
X183195Y41329D01*
X183302Y41407D01*
X183411Y41483D01*
X183522Y41554D01*
X183636Y41623D01*
X183751Y41688D01*
X183869Y41750D01*
X183988Y41808D01*
X184109Y41863D01*
X184231Y41914D01*
X184355Y41962D01*
X184480Y42006D01*
X184606Y42046D01*
X184734Y42082D01*
X184862Y42115D01*
X184991Y42144D01*
X185122Y42169D01*
X185252Y42190D01*
X185384Y42208D01*
X185516Y42221D01*
X185648Y42231D01*
X185780Y42237D01*
X185913Y42239D01*
X185010Y49463D02*
X190429Y49463D01*
X185010Y49463D02*
X184891Y49461D01*
X184771Y49455D01*
X184652Y49445D01*
X184534Y49431D01*
X184415Y49414D01*
X184298Y49392D01*
X184181Y49367D01*
X184066Y49337D01*
X183951Y49304D01*
X183837Y49267D01*
X183725Y49227D01*
X183614Y49182D01*
X183505Y49134D01*
X183397Y49083D01*
X183291Y49028D01*
X183187Y48969D01*
X183085Y48907D01*
X182985Y48842D01*
X182887Y48773D01*
X182791Y48701D01*
X182698Y48626D01*
X182608Y48549D01*
X182520Y48468D01*
X182435Y48384D01*
X182353Y48297D01*
X182273Y48208D01*
X182197Y48116D01*
X182123Y48022D01*
X182053Y47925D01*
X181986Y47827D01*
X181922Y47726D01*
X181862Y47622D01*
X181805Y47517D01*
X181752Y47410D01*
X181702Y47302D01*
X181656Y47192D01*
X181614Y47080D01*
X181575Y46967D01*
X181540Y46853D01*
X181509Y46738D01*
X181481Y46621D01*
X181458Y46504D01*
X181438Y46387D01*
X181422Y46268D01*
X181410Y46149D01*
X181402Y46030D01*
X181398Y45911D01*
X181398Y45791D01*
X181402Y45672D01*
X181410Y45553D01*
X181422Y45434D01*
X181438Y45315D01*
X181458Y45198D01*
X181481Y45081D01*
X181509Y44964D01*
X181540Y44849D01*
X181575Y44735D01*
X181614Y44622D01*
X181656Y44510D01*
X181702Y44400D01*
X181752Y44292D01*
X181805Y44185D01*
X181862Y44080D01*
X181922Y43976D01*
X181986Y43875D01*
X182053Y43777D01*
X182123Y43680D01*
X182197Y43586D01*
X182273Y43494D01*
X182353Y43405D01*
X182435Y43318D01*
X182520Y43234D01*
X182608Y43153D01*
X182698Y43076D01*
X182791Y43001D01*
X182887Y42929D01*
X182985Y42860D01*
X183085Y42795D01*
X183187Y42733D01*
X183291Y42674D01*
X183397Y42619D01*
X183505Y42568D01*
X183614Y42520D01*
X183725Y42475D01*
X183837Y42435D01*
X183951Y42398D01*
X184066Y42365D01*
X184181Y42335D01*
X184298Y42310D01*
X184415Y42288D01*
X184534Y42271D01*
X184652Y42257D01*
X184771Y42247D01*
X184891Y42241D01*
X185010Y42239D01*
X185010Y42238D02*
X188622Y42238D01*
X175423Y34110D02*
X175423Y33207D01*
X175423Y34110D02*
X174520Y34110D01*
X174520Y33207D01*
X175423Y33207D01*
X168545Y33207D02*
X164029Y33207D01*
X163896Y33209D01*
X163764Y33215D01*
X163632Y33225D01*
X163500Y33238D01*
X163368Y33256D01*
X163238Y33277D01*
X163107Y33302D01*
X162978Y33331D01*
X162850Y33364D01*
X162722Y33400D01*
X162596Y33440D01*
X162471Y33484D01*
X162347Y33532D01*
X162225Y33583D01*
X162104Y33638D01*
X161985Y33696D01*
X161867Y33758D01*
X161752Y33823D01*
X161638Y33892D01*
X161527Y33963D01*
X161418Y34039D01*
X161311Y34117D01*
X161206Y34198D01*
X161104Y34283D01*
X161004Y34370D01*
X160907Y34460D01*
X160812Y34553D01*
X160721Y34649D01*
X160632Y34747D01*
X160546Y34848D01*
X160463Y34952D01*
X160383Y35058D01*
X160307Y35166D01*
X160233Y35276D01*
X160163Y35389D01*
X160096Y35503D01*
X160033Y35620D01*
X159973Y35738D01*
X159916Y35858D01*
X159863Y35980D01*
X159814Y36103D01*
X159768Y36227D01*
X159726Y36353D01*
X159688Y36480D01*
X159653Y36608D01*
X159622Y36737D01*
X159595Y36866D01*
X159572Y36997D01*
X159552Y37128D01*
X159537Y37260D01*
X159525Y37392D01*
X159517Y37524D01*
X159513Y37657D01*
X159513Y37789D01*
X159517Y37922D01*
X159525Y38054D01*
X159537Y38186D01*
X159552Y38318D01*
X159572Y38449D01*
X159595Y38580D01*
X159622Y38709D01*
X159653Y38838D01*
X159688Y38966D01*
X159726Y39093D01*
X159768Y39219D01*
X159814Y39343D01*
X159863Y39466D01*
X159916Y39588D01*
X159973Y39708D01*
X160033Y39826D01*
X160096Y39943D01*
X160163Y40057D01*
X160233Y40170D01*
X160307Y40280D01*
X160383Y40388D01*
X160463Y40494D01*
X160546Y40598D01*
X160632Y40699D01*
X160721Y40797D01*
X160812Y40893D01*
X160907Y40986D01*
X161004Y41076D01*
X161104Y41163D01*
X161206Y41248D01*
X161311Y41329D01*
X161418Y41407D01*
X161527Y41483D01*
X161638Y41554D01*
X161752Y41623D01*
X161867Y41688D01*
X161985Y41750D01*
X162104Y41808D01*
X162225Y41863D01*
X162347Y41914D01*
X162471Y41962D01*
X162596Y42006D01*
X162722Y42046D01*
X162850Y42082D01*
X162978Y42115D01*
X163107Y42144D01*
X163238Y42169D01*
X163368Y42190D01*
X163500Y42208D01*
X163632Y42221D01*
X163764Y42231D01*
X163896Y42237D01*
X164029Y42239D01*
X163126Y49463D02*
X168545Y49463D01*
X163126Y49463D02*
X163007Y49461D01*
X162887Y49455D01*
X162768Y49445D01*
X162650Y49431D01*
X162531Y49414D01*
X162414Y49392D01*
X162297Y49367D01*
X162182Y49337D01*
X162067Y49304D01*
X161953Y49267D01*
X161841Y49227D01*
X161730Y49182D01*
X161621Y49134D01*
X161513Y49083D01*
X161407Y49028D01*
X161303Y48969D01*
X161201Y48907D01*
X161101Y48842D01*
X161003Y48773D01*
X160907Y48701D01*
X160814Y48626D01*
X160724Y48549D01*
X160636Y48468D01*
X160551Y48384D01*
X160469Y48297D01*
X160389Y48208D01*
X160313Y48116D01*
X160239Y48022D01*
X160169Y47925D01*
X160102Y47827D01*
X160038Y47726D01*
X159978Y47622D01*
X159921Y47517D01*
X159868Y47410D01*
X159818Y47302D01*
X159772Y47192D01*
X159730Y47080D01*
X159691Y46967D01*
X159656Y46853D01*
X159625Y46738D01*
X159597Y46621D01*
X159574Y46504D01*
X159554Y46387D01*
X159538Y46268D01*
X159526Y46149D01*
X159518Y46030D01*
X159514Y45911D01*
X159514Y45791D01*
X159518Y45672D01*
X159526Y45553D01*
X159538Y45434D01*
X159554Y45315D01*
X159574Y45198D01*
X159597Y45081D01*
X159625Y44964D01*
X159656Y44849D01*
X159691Y44735D01*
X159730Y44622D01*
X159772Y44510D01*
X159818Y44400D01*
X159868Y44292D01*
X159921Y44185D01*
X159978Y44080D01*
X160038Y43976D01*
X160102Y43875D01*
X160169Y43777D01*
X160239Y43680D01*
X160313Y43586D01*
X160389Y43494D01*
X160469Y43405D01*
X160551Y43318D01*
X160636Y43234D01*
X160724Y43153D01*
X160814Y43076D01*
X160907Y43001D01*
X161003Y42929D01*
X161101Y42860D01*
X161201Y42795D01*
X161303Y42733D01*
X161407Y42674D01*
X161513Y42619D01*
X161621Y42568D01*
X161730Y42520D01*
X161841Y42475D01*
X161953Y42435D01*
X162067Y42398D01*
X162182Y42365D01*
X162297Y42335D01*
X162414Y42310D01*
X162531Y42288D01*
X162650Y42271D01*
X162768Y42257D01*
X162887Y42247D01*
X163007Y42241D01*
X163126Y42239D01*
X163126Y42238D02*
X166739Y42238D01*
X153574Y44044D02*
X149961Y33207D01*
X146349Y44044D01*
X127175Y33207D02*
X127057Y33209D01*
X126939Y33215D01*
X126821Y33224D01*
X126704Y33238D01*
X126587Y33255D01*
X126470Y33276D01*
X126355Y33301D01*
X126240Y33330D01*
X126126Y33363D01*
X126014Y33399D01*
X125903Y33439D01*
X125793Y33482D01*
X125684Y33529D01*
X125577Y33579D01*
X125472Y33634D01*
X125369Y33691D01*
X125268Y33752D01*
X125168Y33816D01*
X125071Y33883D01*
X124976Y33953D01*
X124884Y34027D01*
X124793Y34103D01*
X124706Y34183D01*
X124621Y34265D01*
X124539Y34350D01*
X124459Y34437D01*
X124383Y34528D01*
X124309Y34620D01*
X124239Y34715D01*
X124172Y34812D01*
X124108Y34912D01*
X124047Y35013D01*
X123990Y35116D01*
X123935Y35221D01*
X123885Y35328D01*
X123838Y35437D01*
X123795Y35547D01*
X123755Y35658D01*
X123719Y35770D01*
X123686Y35884D01*
X123657Y35999D01*
X123632Y36114D01*
X123611Y36231D01*
X123594Y36348D01*
X123580Y36465D01*
X123571Y36583D01*
X123565Y36701D01*
X123563Y36819D01*
X127175Y33207D02*
X127358Y33209D01*
X127540Y33216D01*
X127722Y33227D01*
X127904Y33242D01*
X128086Y33262D01*
X128267Y33286D01*
X128447Y33314D01*
X128627Y33346D01*
X128806Y33383D01*
X128983Y33424D01*
X129160Y33470D01*
X129336Y33519D01*
X129511Y33573D01*
X129684Y33631D01*
X129855Y33693D01*
X130026Y33759D01*
X130194Y33830D01*
X130361Y33904D01*
X130526Y33982D01*
X130689Y34064D01*
X130850Y34150D01*
X131009Y34240D01*
X131166Y34334D01*
X131320Y34431D01*
X131472Y34532D01*
X131622Y34637D01*
X131769Y34745D01*
X131913Y34856D01*
X132055Y34971D01*
X132194Y35090D01*
X132330Y35212D01*
X132463Y35337D01*
X132593Y35465D01*
X132141Y45851D02*
X132139Y45969D01*
X132133Y46087D01*
X132124Y46205D01*
X132110Y46322D01*
X132093Y46439D01*
X132072Y46556D01*
X132047Y46671D01*
X132018Y46786D01*
X131985Y46900D01*
X131949Y47012D01*
X131909Y47123D01*
X131866Y47233D01*
X131819Y47342D01*
X131769Y47449D01*
X131714Y47554D01*
X131657Y47657D01*
X131596Y47758D01*
X131532Y47858D01*
X131465Y47955D01*
X131395Y48050D01*
X131321Y48142D01*
X131245Y48233D01*
X131165Y48320D01*
X131083Y48405D01*
X130998Y48487D01*
X130911Y48567D01*
X130820Y48643D01*
X130728Y48717D01*
X130633Y48787D01*
X130536Y48854D01*
X130436Y48918D01*
X130335Y48979D01*
X130232Y49036D01*
X130127Y49091D01*
X130020Y49141D01*
X129911Y49188D01*
X129801Y49231D01*
X129690Y49271D01*
X129578Y49307D01*
X129464Y49340D01*
X129349Y49369D01*
X129234Y49394D01*
X129117Y49415D01*
X129000Y49432D01*
X128883Y49446D01*
X128765Y49455D01*
X128647Y49461D01*
X128529Y49463D01*
X128368Y49461D01*
X128206Y49455D01*
X128045Y49446D01*
X127884Y49432D01*
X127724Y49415D01*
X127564Y49394D01*
X127404Y49369D01*
X127245Y49340D01*
X127087Y49308D01*
X126930Y49272D01*
X126774Y49232D01*
X126618Y49188D01*
X126464Y49140D01*
X126311Y49089D01*
X126159Y49035D01*
X126008Y48976D01*
X125859Y48915D01*
X125712Y48849D01*
X125566Y48780D01*
X125421Y48708D01*
X125279Y48632D01*
X125138Y48553D01*
X124999Y48471D01*
X124863Y48385D01*
X124728Y48296D01*
X124595Y48204D01*
X124465Y48108D01*
X130336Y42690D02*
X130437Y42752D01*
X130537Y42817D01*
X130634Y42886D01*
X130729Y42958D01*
X130822Y43032D01*
X130912Y43110D01*
X131000Y43191D01*
X131085Y43274D01*
X131167Y43360D01*
X131246Y43449D01*
X131323Y43540D01*
X131396Y43634D01*
X131467Y43730D01*
X131534Y43828D01*
X131598Y43928D01*
X131659Y44031D01*
X131716Y44135D01*
X131770Y44241D01*
X131820Y44349D01*
X131867Y44458D01*
X131911Y44569D01*
X131951Y44681D01*
X131987Y44795D01*
X132019Y44909D01*
X132048Y45025D01*
X132073Y45141D01*
X132094Y45258D01*
X132111Y45376D01*
X132125Y45494D01*
X132134Y45613D01*
X132140Y45732D01*
X132142Y45851D01*
X125368Y39980D02*
X125267Y39918D01*
X125167Y39853D01*
X125070Y39784D01*
X124975Y39712D01*
X124882Y39638D01*
X124792Y39560D01*
X124704Y39479D01*
X124619Y39396D01*
X124537Y39310D01*
X124458Y39221D01*
X124381Y39130D01*
X124308Y39036D01*
X124237Y38940D01*
X124170Y38842D01*
X124106Y38742D01*
X124045Y38639D01*
X123988Y38535D01*
X123934Y38429D01*
X123884Y38321D01*
X123837Y38212D01*
X123793Y38101D01*
X123753Y37989D01*
X123717Y37875D01*
X123685Y37761D01*
X123656Y37645D01*
X123631Y37529D01*
X123610Y37412D01*
X123593Y37294D01*
X123579Y37176D01*
X123570Y37057D01*
X123564Y36938D01*
X123562Y36819D01*
X125368Y39980D02*
X130335Y42690D01*
X118919Y44044D02*
X113501Y44044D01*
X117113Y49463D02*
X117113Y35916D01*
X117111Y35815D01*
X117105Y35714D01*
X117096Y35613D01*
X117083Y35512D01*
X117066Y35412D01*
X117045Y35313D01*
X117021Y35215D01*
X116993Y35118D01*
X116961Y35021D01*
X116926Y34926D01*
X116887Y34833D01*
X116845Y34741D01*
X116799Y34650D01*
X116750Y34561D01*
X116698Y34475D01*
X116642Y34390D01*
X116584Y34307D01*
X116522Y34227D01*
X116457Y34149D01*
X116390Y34073D01*
X116320Y34000D01*
X116247Y33930D01*
X116171Y33863D01*
X116093Y33798D01*
X116013Y33736D01*
X115930Y33678D01*
X115845Y33622D01*
X115758Y33570D01*
X115670Y33521D01*
X115579Y33475D01*
X115487Y33433D01*
X115394Y33394D01*
X115299Y33359D01*
X115202Y33327D01*
X115105Y33299D01*
X115007Y33275D01*
X114908Y33254D01*
X114808Y33237D01*
X114707Y33224D01*
X114606Y33215D01*
X114505Y33209D01*
X114404Y33207D01*
X113501Y33207D01*
X105013Y33207D02*
X100497Y33207D01*
X105013Y33207D02*
X105114Y33209D01*
X105215Y33215D01*
X105316Y33224D01*
X105417Y33237D01*
X105517Y33254D01*
X105616Y33275D01*
X105714Y33299D01*
X105811Y33327D01*
X105908Y33359D01*
X106003Y33394D01*
X106096Y33433D01*
X106188Y33475D01*
X106279Y33521D01*
X106367Y33570D01*
X106454Y33622D01*
X106539Y33678D01*
X106622Y33736D01*
X106702Y33798D01*
X106780Y33863D01*
X106856Y33930D01*
X106929Y34000D01*
X106999Y34073D01*
X107066Y34149D01*
X107131Y34227D01*
X107193Y34307D01*
X107251Y34390D01*
X107307Y34475D01*
X107359Y34561D01*
X107408Y34650D01*
X107454Y34741D01*
X107496Y34833D01*
X107535Y34926D01*
X107570Y35021D01*
X107602Y35118D01*
X107630Y35215D01*
X107654Y35313D01*
X107675Y35412D01*
X107692Y35512D01*
X107705Y35613D01*
X107714Y35714D01*
X107720Y35815D01*
X107722Y35916D01*
X107722Y40432D01*
X107720Y40551D01*
X107714Y40671D01*
X107704Y40790D01*
X107690Y40908D01*
X107673Y41027D01*
X107651Y41144D01*
X107626Y41261D01*
X107596Y41376D01*
X107563Y41491D01*
X107526Y41605D01*
X107486Y41717D01*
X107441Y41828D01*
X107393Y41937D01*
X107342Y42045D01*
X107287Y42151D01*
X107228Y42255D01*
X107166Y42357D01*
X107101Y42457D01*
X107032Y42555D01*
X106960Y42651D01*
X106885Y42744D01*
X106808Y42834D01*
X106727Y42922D01*
X106643Y43007D01*
X106556Y43089D01*
X106467Y43169D01*
X106375Y43245D01*
X106281Y43319D01*
X106184Y43389D01*
X106086Y43456D01*
X105985Y43520D01*
X105881Y43580D01*
X105776Y43637D01*
X105669Y43690D01*
X105561Y43740D01*
X105451Y43786D01*
X105339Y43828D01*
X105226Y43867D01*
X105112Y43902D01*
X104997Y43933D01*
X104880Y43961D01*
X104763Y43984D01*
X104646Y44004D01*
X104527Y44020D01*
X104408Y44032D01*
X104289Y44040D01*
X104170Y44044D01*
X104050Y44044D01*
X103931Y44040D01*
X103812Y44032D01*
X103693Y44020D01*
X103574Y44004D01*
X103457Y43984D01*
X103340Y43961D01*
X103223Y43933D01*
X103108Y43902D01*
X102994Y43867D01*
X102881Y43828D01*
X102769Y43786D01*
X102659Y43740D01*
X102551Y43690D01*
X102444Y43637D01*
X102339Y43580D01*
X102235Y43520D01*
X102134Y43456D01*
X102036Y43389D01*
X101939Y43319D01*
X101845Y43245D01*
X101753Y43169D01*
X101664Y43089D01*
X101577Y43007D01*
X101493Y42922D01*
X101412Y42834D01*
X101335Y42744D01*
X101260Y42651D01*
X101188Y42555D01*
X101119Y42457D01*
X101054Y42357D01*
X100992Y42255D01*
X100933Y42151D01*
X100878Y42045D01*
X100827Y41937D01*
X100779Y41828D01*
X100734Y41717D01*
X100694Y41605D01*
X100657Y41491D01*
X100624Y41376D01*
X100594Y41261D01*
X100569Y41144D01*
X100547Y41027D01*
X100530Y40908D01*
X100516Y40790D01*
X100506Y40671D01*
X100500Y40551D01*
X100498Y40432D01*
X100497Y40432D02*
X100497Y38626D01*
X107722Y38626D01*
X93581Y44044D02*
X93581Y27788D01*
X93581Y44044D02*
X89065Y44044D01*
X88961Y44042D01*
X88858Y44036D01*
X88754Y44026D01*
X88651Y44012D01*
X88549Y43994D01*
X88448Y43973D01*
X88347Y43947D01*
X88248Y43918D01*
X88149Y43885D01*
X88052Y43848D01*
X87957Y43807D01*
X87863Y43763D01*
X87771Y43715D01*
X87681Y43664D01*
X87592Y43609D01*
X87506Y43551D01*
X87423Y43489D01*
X87341Y43425D01*
X87263Y43357D01*
X87187Y43287D01*
X87113Y43214D01*
X87043Y43137D01*
X86975Y43059D01*
X86911Y42977D01*
X86849Y42894D01*
X86791Y42808D01*
X86736Y42719D01*
X86685Y42629D01*
X86637Y42537D01*
X86593Y42443D01*
X86552Y42348D01*
X86515Y42251D01*
X86482Y42152D01*
X86453Y42053D01*
X86427Y41952D01*
X86406Y41851D01*
X86388Y41749D01*
X86374Y41646D01*
X86364Y41542D01*
X86358Y41439D01*
X86356Y41335D01*
X86356Y35916D01*
X86358Y35815D01*
X86364Y35714D01*
X86373Y35613D01*
X86386Y35512D01*
X86403Y35412D01*
X86424Y35313D01*
X86448Y35215D01*
X86476Y35118D01*
X86508Y35021D01*
X86543Y34926D01*
X86582Y34833D01*
X86624Y34741D01*
X86670Y34650D01*
X86719Y34561D01*
X86771Y34475D01*
X86827Y34390D01*
X86885Y34307D01*
X86947Y34227D01*
X87012Y34149D01*
X87079Y34073D01*
X87149Y34000D01*
X87222Y33930D01*
X87298Y33863D01*
X87376Y33798D01*
X87456Y33736D01*
X87539Y33678D01*
X87624Y33622D01*
X87711Y33570D01*
X87799Y33521D01*
X87890Y33475D01*
X87982Y33433D01*
X88075Y33394D01*
X88170Y33359D01*
X88267Y33327D01*
X88364Y33299D01*
X88462Y33275D01*
X88561Y33254D01*
X88661Y33237D01*
X88762Y33224D01*
X88863Y33215D01*
X88964Y33209D01*
X89065Y33207D01*
X93581Y33207D01*
X71110Y33207D02*
X71110Y49463D01*
X66595Y49463D01*
X66464Y49461D01*
X66332Y49455D01*
X66201Y49446D01*
X66071Y49432D01*
X65940Y49415D01*
X65811Y49394D01*
X65682Y49370D01*
X65554Y49341D01*
X65426Y49309D01*
X65300Y49273D01*
X65175Y49234D01*
X65050Y49191D01*
X64928Y49144D01*
X64806Y49094D01*
X64686Y49040D01*
X64568Y48983D01*
X64452Y48922D01*
X64337Y48858D01*
X64224Y48791D01*
X64113Y48720D01*
X64005Y48646D01*
X63898Y48569D01*
X63794Y48489D01*
X63692Y48406D01*
X63593Y48321D01*
X63496Y48232D01*
X63402Y48140D01*
X63310Y48046D01*
X63221Y47949D01*
X63136Y47850D01*
X63053Y47748D01*
X62973Y47644D01*
X62896Y47537D01*
X62822Y47429D01*
X62751Y47318D01*
X62684Y47205D01*
X62620Y47090D01*
X62559Y46974D01*
X62502Y46856D01*
X62448Y46736D01*
X62398Y46614D01*
X62351Y46492D01*
X62308Y46367D01*
X62269Y46242D01*
X62233Y46116D01*
X62201Y45988D01*
X62172Y45860D01*
X62148Y45731D01*
X62127Y45602D01*
X62110Y45471D01*
X62096Y45341D01*
X62087Y45210D01*
X62081Y45078D01*
X62079Y44947D01*
X62079Y37723D01*
X62081Y37592D01*
X62087Y37460D01*
X62096Y37329D01*
X62110Y37199D01*
X62127Y37068D01*
X62148Y36939D01*
X62172Y36810D01*
X62201Y36682D01*
X62233Y36554D01*
X62269Y36428D01*
X62308Y36303D01*
X62351Y36178D01*
X62398Y36056D01*
X62448Y35934D01*
X62502Y35814D01*
X62559Y35696D01*
X62620Y35580D01*
X62684Y35465D01*
X62751Y35352D01*
X62822Y35241D01*
X62896Y35133D01*
X62973Y35026D01*
X63053Y34922D01*
X63136Y34820D01*
X63221Y34721D01*
X63310Y34624D01*
X63402Y34530D01*
X63496Y34438D01*
X63593Y34349D01*
X63692Y34264D01*
X63794Y34181D01*
X63898Y34101D01*
X64005Y34024D01*
X64113Y33950D01*
X64224Y33879D01*
X64337Y33812D01*
X64452Y33748D01*
X64568Y33687D01*
X64686Y33630D01*
X64806Y33576D01*
X64928Y33526D01*
X65050Y33479D01*
X65175Y33436D01*
X65300Y33397D01*
X65426Y33361D01*
X65554Y33329D01*
X65682Y33300D01*
X65811Y33276D01*
X65940Y33255D01*
X66071Y33238D01*
X66201Y33224D01*
X66332Y33215D01*
X66464Y33209D01*
X66595Y33207D01*
X71110Y33207D01*
X55097Y36819D02*
X55097Y40432D01*
X55095Y40551D01*
X55089Y40671D01*
X55079Y40790D01*
X55065Y40908D01*
X55048Y41027D01*
X55026Y41144D01*
X55001Y41261D01*
X54971Y41376D01*
X54938Y41491D01*
X54901Y41605D01*
X54861Y41717D01*
X54816Y41828D01*
X54768Y41937D01*
X54717Y42045D01*
X54662Y42151D01*
X54603Y42255D01*
X54541Y42357D01*
X54476Y42457D01*
X54407Y42555D01*
X54335Y42651D01*
X54260Y42744D01*
X54183Y42834D01*
X54102Y42922D01*
X54018Y43007D01*
X53931Y43089D01*
X53842Y43169D01*
X53750Y43245D01*
X53656Y43319D01*
X53559Y43389D01*
X53461Y43456D01*
X53360Y43520D01*
X53256Y43580D01*
X53151Y43637D01*
X53044Y43690D01*
X52936Y43740D01*
X52826Y43786D01*
X52714Y43828D01*
X52601Y43867D01*
X52487Y43902D01*
X52372Y43933D01*
X52255Y43961D01*
X52138Y43984D01*
X52021Y44004D01*
X51902Y44020D01*
X51783Y44032D01*
X51664Y44040D01*
X51545Y44044D01*
X51425Y44044D01*
X51306Y44040D01*
X51187Y44032D01*
X51068Y44020D01*
X50949Y44004D01*
X50832Y43984D01*
X50715Y43961D01*
X50598Y43933D01*
X50483Y43902D01*
X50369Y43867D01*
X50256Y43828D01*
X50144Y43786D01*
X50034Y43740D01*
X49926Y43690D01*
X49819Y43637D01*
X49714Y43580D01*
X49610Y43520D01*
X49509Y43456D01*
X49411Y43389D01*
X49314Y43319D01*
X49220Y43245D01*
X49128Y43169D01*
X49039Y43089D01*
X48952Y43007D01*
X48868Y42922D01*
X48787Y42834D01*
X48710Y42744D01*
X48635Y42651D01*
X48563Y42555D01*
X48494Y42457D01*
X48429Y42357D01*
X48367Y42255D01*
X48308Y42151D01*
X48253Y42045D01*
X48202Y41937D01*
X48154Y41828D01*
X48109Y41717D01*
X48069Y41605D01*
X48032Y41491D01*
X47999Y41376D01*
X47969Y41261D01*
X47944Y41144D01*
X47922Y41027D01*
X47905Y40908D01*
X47891Y40790D01*
X47881Y40671D01*
X47875Y40551D01*
X47873Y40432D01*
X47872Y40432D02*
X47872Y36819D01*
X47873Y36819D02*
X47875Y36700D01*
X47881Y36580D01*
X47891Y36461D01*
X47905Y36343D01*
X47922Y36224D01*
X47944Y36107D01*
X47969Y35990D01*
X47999Y35875D01*
X48032Y35760D01*
X48069Y35646D01*
X48109Y35534D01*
X48154Y35423D01*
X48202Y35314D01*
X48253Y35206D01*
X48308Y35100D01*
X48367Y34996D01*
X48429Y34894D01*
X48494Y34794D01*
X48563Y34696D01*
X48635Y34600D01*
X48710Y34507D01*
X48787Y34417D01*
X48868Y34329D01*
X48952Y34244D01*
X49039Y34162D01*
X49128Y34082D01*
X49220Y34006D01*
X49314Y33932D01*
X49411Y33862D01*
X49509Y33795D01*
X49610Y33731D01*
X49714Y33671D01*
X49819Y33614D01*
X49926Y33561D01*
X50034Y33511D01*
X50144Y33465D01*
X50256Y33423D01*
X50369Y33384D01*
X50483Y33349D01*
X50598Y33318D01*
X50715Y33290D01*
X50832Y33267D01*
X50949Y33247D01*
X51068Y33231D01*
X51187Y33219D01*
X51306Y33211D01*
X51425Y33207D01*
X51545Y33207D01*
X51664Y33211D01*
X51783Y33219D01*
X51902Y33231D01*
X52021Y33247D01*
X52138Y33267D01*
X52255Y33290D01*
X52372Y33318D01*
X52487Y33349D01*
X52601Y33384D01*
X52714Y33423D01*
X52826Y33465D01*
X52936Y33511D01*
X53044Y33561D01*
X53151Y33614D01*
X53256Y33671D01*
X53360Y33731D01*
X53461Y33795D01*
X53559Y33862D01*
X53656Y33932D01*
X53750Y34006D01*
X53842Y34082D01*
X53931Y34162D01*
X54018Y34244D01*
X54102Y34329D01*
X54183Y34417D01*
X54260Y34507D01*
X54335Y34600D01*
X54407Y34696D01*
X54476Y34794D01*
X54541Y34894D01*
X54603Y34996D01*
X54662Y35100D01*
X54717Y35206D01*
X54768Y35314D01*
X54816Y35423D01*
X54861Y35534D01*
X54901Y35646D01*
X54938Y35760D01*
X54971Y35875D01*
X55001Y35990D01*
X55026Y36107D01*
X55048Y36224D01*
X55065Y36343D01*
X55079Y36461D01*
X55089Y36580D01*
X55095Y36700D01*
X55097Y36819D01*
X41793Y44044D02*
X39084Y33207D01*
X36374Y40432D01*
X33665Y33207D01*
X30956Y44044D01*
X24356Y44044D02*
X24356Y33207D01*
X24356Y44044D02*
X19840Y44044D01*
X19736Y44042D01*
X19633Y44036D01*
X19529Y44026D01*
X19426Y44012D01*
X19324Y43994D01*
X19223Y43973D01*
X19122Y43947D01*
X19023Y43918D01*
X18924Y43885D01*
X18827Y43848D01*
X18732Y43807D01*
X18638Y43763D01*
X18546Y43715D01*
X18456Y43664D01*
X18367Y43609D01*
X18281Y43551D01*
X18198Y43489D01*
X18116Y43425D01*
X18038Y43357D01*
X17962Y43287D01*
X17888Y43214D01*
X17818Y43137D01*
X17750Y43059D01*
X17686Y42977D01*
X17624Y42894D01*
X17566Y42808D01*
X17511Y42719D01*
X17460Y42629D01*
X17412Y42537D01*
X17368Y42443D01*
X17327Y42348D01*
X17290Y42251D01*
X17257Y42152D01*
X17228Y42053D01*
X17202Y41952D01*
X17181Y41851D01*
X17163Y41749D01*
X17149Y41646D01*
X17139Y41542D01*
X17133Y41439D01*
X17131Y41335D01*
X17131Y33207D01*
X171216Y6537D02*
X174828Y6537D01*
X174946Y6539D01*
X175064Y6545D01*
X175182Y6554D01*
X175299Y6568D01*
X175416Y6585D01*
X175533Y6606D01*
X175648Y6631D01*
X175763Y6660D01*
X175877Y6693D01*
X175989Y6729D01*
X176100Y6769D01*
X176210Y6812D01*
X176319Y6859D01*
X176426Y6909D01*
X176531Y6964D01*
X176634Y7021D01*
X176735Y7082D01*
X176835Y7146D01*
X176932Y7213D01*
X177027Y7283D01*
X177119Y7357D01*
X177210Y7433D01*
X177297Y7513D01*
X177382Y7595D01*
X177464Y7680D01*
X177544Y7767D01*
X177620Y7858D01*
X177694Y7950D01*
X177764Y8045D01*
X177831Y8142D01*
X177895Y8242D01*
X177956Y8343D01*
X178013Y8446D01*
X178068Y8551D01*
X178118Y8658D01*
X178165Y8767D01*
X178208Y8877D01*
X178248Y8988D01*
X178284Y9100D01*
X178317Y9214D01*
X178346Y9329D01*
X178371Y9444D01*
X178392Y9561D01*
X178409Y9678D01*
X178423Y9795D01*
X178432Y9913D01*
X178438Y10031D01*
X178440Y10149D01*
X178441Y10149D02*
X178441Y19181D01*
X178440Y19181D02*
X178438Y19299D01*
X178432Y19417D01*
X178423Y19535D01*
X178409Y19652D01*
X178392Y19769D01*
X178371Y19886D01*
X178346Y20001D01*
X178317Y20116D01*
X178284Y20230D01*
X178248Y20342D01*
X178208Y20453D01*
X178165Y20563D01*
X178118Y20672D01*
X178068Y20779D01*
X178013Y20884D01*
X177956Y20987D01*
X177895Y21088D01*
X177831Y21188D01*
X177764Y21285D01*
X177694Y21380D01*
X177620Y21472D01*
X177544Y21563D01*
X177464Y21650D01*
X177382Y21735D01*
X177297Y21817D01*
X177210Y21897D01*
X177119Y21973D01*
X177027Y22047D01*
X176932Y22117D01*
X176835Y22184D01*
X176735Y22248D01*
X176634Y22309D01*
X176531Y22366D01*
X176426Y22421D01*
X176319Y22471D01*
X176210Y22518D01*
X176100Y22561D01*
X175989Y22601D01*
X175877Y22637D01*
X175763Y22670D01*
X175648Y22699D01*
X175533Y22724D01*
X175416Y22745D01*
X175299Y22762D01*
X175182Y22776D01*
X175064Y22785D01*
X174946Y22791D01*
X174828Y22793D01*
X171216Y22793D01*
X164993Y22793D02*
X164993Y6537D01*
X164993Y17374D02*
X160478Y17374D01*
X160374Y17372D01*
X160271Y17366D01*
X160167Y17356D01*
X160064Y17342D01*
X159962Y17324D01*
X159861Y17303D01*
X159760Y17277D01*
X159661Y17248D01*
X159562Y17215D01*
X159465Y17178D01*
X159370Y17137D01*
X159276Y17093D01*
X159184Y17045D01*
X159094Y16994D01*
X159005Y16939D01*
X158919Y16881D01*
X158836Y16819D01*
X158754Y16755D01*
X158676Y16687D01*
X158600Y16617D01*
X158526Y16544D01*
X158456Y16467D01*
X158388Y16389D01*
X158324Y16307D01*
X158262Y16224D01*
X158204Y16138D01*
X158149Y16049D01*
X158098Y15959D01*
X158050Y15867D01*
X158006Y15773D01*
X157965Y15678D01*
X157928Y15581D01*
X157895Y15482D01*
X157866Y15383D01*
X157840Y15282D01*
X157819Y15181D01*
X157801Y15079D01*
X157787Y14976D01*
X157777Y14872D01*
X157771Y14769D01*
X157769Y14665D01*
X157768Y14665D02*
X157768Y6537D01*
X147837Y12859D02*
X143773Y12859D01*
X147837Y12859D02*
X147949Y12857D01*
X148060Y12851D01*
X148171Y12841D01*
X148282Y12828D01*
X148392Y12810D01*
X148501Y12788D01*
X148610Y12763D01*
X148718Y12734D01*
X148824Y12701D01*
X148930Y12664D01*
X149034Y12624D01*
X149136Y12580D01*
X149237Y12532D01*
X149336Y12481D01*
X149434Y12426D01*
X149529Y12368D01*
X149622Y12307D01*
X149713Y12242D01*
X149802Y12174D01*
X149888Y12103D01*
X149971Y12030D01*
X150052Y11953D01*
X150131Y11873D01*
X150206Y11791D01*
X150278Y11706D01*
X150348Y11619D01*
X150414Y11529D01*
X150477Y11437D01*
X150537Y11342D01*
X150593Y11246D01*
X150646Y11148D01*
X150695Y11048D01*
X150741Y10946D01*
X150783Y10843D01*
X150822Y10738D01*
X150857Y10632D01*
X150888Y10525D01*
X150915Y10417D01*
X150939Y10308D01*
X150958Y10198D01*
X150974Y10088D01*
X150986Y9977D01*
X150994Y9865D01*
X150998Y9754D01*
X150998Y9642D01*
X150994Y9531D01*
X150986Y9419D01*
X150974Y9308D01*
X150958Y9198D01*
X150939Y9088D01*
X150915Y8979D01*
X150888Y8871D01*
X150857Y8764D01*
X150822Y8658D01*
X150783Y8553D01*
X150741Y8450D01*
X150695Y8348D01*
X150646Y8248D01*
X150593Y8150D01*
X150537Y8054D01*
X150477Y7959D01*
X150414Y7867D01*
X150348Y7777D01*
X150278Y7690D01*
X150206Y7605D01*
X150131Y7523D01*
X150052Y7443D01*
X149971Y7366D01*
X149888Y7293D01*
X149802Y7222D01*
X149713Y7154D01*
X149622Y7089D01*
X149529Y7028D01*
X149434Y6970D01*
X149336Y6915D01*
X149237Y6864D01*
X149136Y6816D01*
X149034Y6772D01*
X148930Y6732D01*
X148824Y6695D01*
X148718Y6662D01*
X148610Y6633D01*
X148501Y6608D01*
X148392Y6586D01*
X148282Y6568D01*
X148171Y6555D01*
X148060Y6545D01*
X147949Y6539D01*
X147837Y6537D01*
X143773Y6537D01*
X143773Y14665D01*
X143774Y14665D02*
X143776Y14766D01*
X143782Y14867D01*
X143791Y14968D01*
X143804Y15069D01*
X143821Y15169D01*
X143842Y15268D01*
X143866Y15366D01*
X143894Y15463D01*
X143926Y15560D01*
X143961Y15655D01*
X144000Y15748D01*
X144042Y15840D01*
X144088Y15931D01*
X144137Y16020D01*
X144189Y16106D01*
X144245Y16191D01*
X144303Y16274D01*
X144365Y16354D01*
X144430Y16432D01*
X144497Y16508D01*
X144567Y16581D01*
X144640Y16651D01*
X144716Y16718D01*
X144794Y16783D01*
X144874Y16845D01*
X144957Y16903D01*
X145042Y16959D01*
X145129Y17011D01*
X145217Y17060D01*
X145308Y17106D01*
X145400Y17148D01*
X145493Y17187D01*
X145588Y17222D01*
X145685Y17254D01*
X145782Y17282D01*
X145880Y17306D01*
X145979Y17327D01*
X146079Y17344D01*
X146180Y17357D01*
X146281Y17366D01*
X146382Y17372D01*
X146483Y17374D01*
X150095Y17374D01*
X136620Y22793D02*
X136620Y9246D01*
X136618Y9145D01*
X136612Y9044D01*
X136603Y8943D01*
X136590Y8842D01*
X136573Y8742D01*
X136552Y8643D01*
X136528Y8545D01*
X136500Y8448D01*
X136468Y8351D01*
X136433Y8256D01*
X136394Y8163D01*
X136352Y8071D01*
X136306Y7980D01*
X136257Y7891D01*
X136205Y7805D01*
X136149Y7720D01*
X136091Y7637D01*
X136029Y7557D01*
X135964Y7479D01*
X135897Y7403D01*
X135827Y7330D01*
X135754Y7260D01*
X135678Y7193D01*
X135600Y7128D01*
X135520Y7066D01*
X135437Y7008D01*
X135352Y6952D01*
X135266Y6900D01*
X135177Y6851D01*
X135086Y6805D01*
X134994Y6763D01*
X134901Y6724D01*
X134806Y6689D01*
X134709Y6657D01*
X134612Y6629D01*
X134514Y6605D01*
X134415Y6584D01*
X134315Y6567D01*
X134214Y6554D01*
X134113Y6545D01*
X134012Y6539D01*
X133911Y6537D01*
X127831Y6537D02*
X127831Y22793D01*
X120606Y17374D02*
X127831Y11956D01*
X124670Y14213D02*
X120606Y6537D01*
X110319Y6537D02*
X115737Y22793D01*
X104900Y22793D02*
X110319Y6537D01*
X98590Y6537D02*
X98590Y22793D01*
X94075Y22793D01*
X93942Y22791D01*
X93810Y22785D01*
X93678Y22775D01*
X93546Y22762D01*
X93414Y22744D01*
X93284Y22723D01*
X93153Y22698D01*
X93024Y22669D01*
X92896Y22636D01*
X92768Y22600D01*
X92642Y22560D01*
X92517Y22516D01*
X92393Y22468D01*
X92271Y22417D01*
X92150Y22362D01*
X92031Y22304D01*
X91913Y22242D01*
X91798Y22177D01*
X91684Y22108D01*
X91573Y22037D01*
X91464Y21961D01*
X91357Y21883D01*
X91252Y21802D01*
X91150Y21717D01*
X91050Y21630D01*
X90953Y21540D01*
X90858Y21447D01*
X90767Y21351D01*
X90678Y21253D01*
X90592Y21152D01*
X90509Y21048D01*
X90429Y20942D01*
X90353Y20834D01*
X90279Y20724D01*
X90209Y20611D01*
X90142Y20497D01*
X90079Y20380D01*
X90019Y20262D01*
X89962Y20142D01*
X89909Y20020D01*
X89860Y19897D01*
X89814Y19773D01*
X89772Y19647D01*
X89734Y19520D01*
X89699Y19392D01*
X89668Y19263D01*
X89641Y19134D01*
X89618Y19003D01*
X89598Y18872D01*
X89583Y18740D01*
X89571Y18608D01*
X89563Y18476D01*
X89559Y18343D01*
X89559Y18211D01*
X89563Y18078D01*
X89571Y17946D01*
X89583Y17814D01*
X89598Y17682D01*
X89618Y17551D01*
X89641Y17420D01*
X89668Y17291D01*
X89699Y17162D01*
X89734Y17034D01*
X89772Y16907D01*
X89814Y16781D01*
X89860Y16657D01*
X89909Y16534D01*
X89962Y16412D01*
X90019Y16292D01*
X90079Y16174D01*
X90142Y16057D01*
X90209Y15943D01*
X90279Y15830D01*
X90353Y15720D01*
X90429Y15612D01*
X90509Y15506D01*
X90592Y15402D01*
X90678Y15301D01*
X90767Y15203D01*
X90858Y15107D01*
X90953Y15014D01*
X91050Y14924D01*
X91150Y14837D01*
X91252Y14752D01*
X91357Y14671D01*
X91464Y14593D01*
X91573Y14517D01*
X91684Y14446D01*
X91798Y14377D01*
X91913Y14312D01*
X92031Y14250D01*
X92150Y14192D01*
X92271Y14137D01*
X92393Y14086D01*
X92517Y14038D01*
X92642Y13994D01*
X92768Y13954D01*
X92896Y13918D01*
X93024Y13885D01*
X93153Y13856D01*
X93284Y13831D01*
X93414Y13810D01*
X93546Y13792D01*
X93678Y13779D01*
X93810Y13769D01*
X93942Y13763D01*
X94075Y13761D01*
X94075Y13762D02*
X98590Y13762D01*
X93172Y13762D02*
X89559Y6537D01*
D11*
X96000Y123000D03*
X162500Y120032D03*
X206000Y6500D03*
X47500Y6000D03*
X134500Y208000D03*
X146000Y204500D03*
X104000Y207500D03*
X50000Y140500D03*
X48000Y130500D03*
X50000Y120500D03*
X40000Y140500D03*
X123500Y181000D03*
X114500Y181000D03*
X166000Y204500D03*
X208500Y141500D03*
X191500Y142094D03*
X202500Y131500D03*
X39068Y120000D03*
X205500Y104500D03*
X97000Y158568D03*
X33000Y97500D03*
X108000Y122000D03*
X152412Y119900D03*
X226500Y113000D03*
X226500Y103000D03*
X226500Y93000D03*
M02*
