G04 EAGLE Gerber RS-274X export*
G75*
%MOMM*%
%FSLAX34Y34*%
%LPD*%
%INTop Copper*%
%IPPOS*%
%AMOC8*
5,1,8,0,0,1.08239X$1,22.5*%
G01*
%ADD10R,0.750000X0.240000*%
%ADD11R,0.240000X0.750000*%
%ADD12R,2.600000X2.600000*%
%ADD13R,1.100000X1.000000*%
%ADD14R,1.000000X1.100000*%
%ADD15R,0.600000X0.600000*%
%ADD16R,0.900000X0.700000*%
%ADD17R,0.900000X0.850000*%
%ADD18R,0.850000X0.900000*%
%ADD19R,0.700000X0.900000*%
%ADD20R,2.006600X1.104900*%
%ADD21R,3.429000X2.478800*%
%ADD22C,0.152400*%
%ADD23C,0.756400*%
%ADD24C,0.812800*%
%ADD25C,0.609600*%
%ADD26C,0.406400*%
%ADD27C,0.200000*%
%ADD28C,0.254000*%

G36*
X254508Y-34066D02*
X254508Y-34066D01*
X254574Y-34064D01*
X254617Y-34046D01*
X254664Y-34038D01*
X254721Y-34004D01*
X254781Y-33979D01*
X254816Y-33948D01*
X254857Y-33923D01*
X254899Y-33872D01*
X254947Y-33828D01*
X254969Y-33786D01*
X254998Y-33749D01*
X255019Y-33687D01*
X255050Y-33628D01*
X255058Y-33574D01*
X255070Y-33537D01*
X255069Y-33497D01*
X255077Y-33443D01*
X255077Y46571D01*
X255066Y46636D01*
X255064Y46702D01*
X255046Y46745D01*
X255038Y46792D01*
X255004Y46849D01*
X254979Y46909D01*
X254948Y46944D01*
X254923Y46985D01*
X254872Y47027D01*
X254828Y47075D01*
X254786Y47097D01*
X254749Y47126D01*
X254687Y47147D01*
X254628Y47178D01*
X254574Y47186D01*
X254537Y47198D01*
X254497Y47197D01*
X254443Y47205D01*
X233342Y47205D01*
X231705Y48842D01*
X231705Y81658D01*
X232256Y82209D01*
X232281Y82244D01*
X232312Y82272D01*
X232344Y82335D01*
X232385Y82393D01*
X232395Y82434D01*
X232415Y82472D01*
X232428Y82562D01*
X232441Y82610D01*
X232438Y82631D01*
X232442Y82657D01*
X232442Y89553D01*
X232424Y89652D01*
X232410Y89752D01*
X232405Y89762D01*
X232403Y89774D01*
X232351Y89861D01*
X232303Y89949D01*
X232295Y89957D01*
X232288Y89967D01*
X232210Y90031D01*
X232134Y90097D01*
X232123Y90101D01*
X232114Y90109D01*
X232019Y90141D01*
X231925Y90177D01*
X231913Y90177D01*
X231902Y90181D01*
X231801Y90178D01*
X231700Y90178D01*
X231689Y90174D01*
X231677Y90174D01*
X231584Y90136D01*
X231489Y90102D01*
X231480Y90094D01*
X231470Y90090D01*
X231395Y90022D01*
X231318Y89956D01*
X231312Y89945D01*
X231304Y89938D01*
X231283Y89897D01*
X231256Y89852D01*
X229666Y88262D01*
X229102Y88028D01*
X229076Y88012D01*
X229046Y88002D01*
X228951Y87932D01*
X228913Y87907D01*
X228906Y87899D01*
X228896Y87891D01*
X228698Y87693D01*
X228419Y87693D01*
X228388Y87688D01*
X228358Y87690D01*
X228243Y87662D01*
X228198Y87654D01*
X228189Y87648D01*
X228176Y87645D01*
X227612Y87411D01*
X225388Y87411D01*
X224824Y87645D01*
X224794Y87652D01*
X224767Y87666D01*
X224649Y87683D01*
X224605Y87693D01*
X224594Y87691D01*
X224581Y87693D01*
X224302Y87693D01*
X224104Y87891D01*
X224079Y87908D01*
X224059Y87932D01*
X223958Y87993D01*
X223920Y88019D01*
X223910Y88022D01*
X223898Y88028D01*
X223334Y88262D01*
X221869Y89727D01*
X221796Y89778D01*
X221727Y89834D01*
X221705Y89841D01*
X221685Y89855D01*
X221599Y89877D01*
X221515Y89906D01*
X221491Y89905D01*
X221468Y89911D01*
X221379Y89902D01*
X221290Y89899D01*
X221268Y89890D01*
X221245Y89888D01*
X221165Y89848D01*
X221083Y89815D01*
X221065Y89799D01*
X221044Y89788D01*
X220983Y89723D01*
X220917Y89663D01*
X220906Y89642D01*
X220890Y89625D01*
X220855Y89543D01*
X220814Y89464D01*
X220811Y89438D01*
X220802Y89418D01*
X220800Y89368D01*
X220787Y89278D01*
X220787Y82553D01*
X217247Y79013D01*
X217059Y79013D01*
X216994Y79002D01*
X216928Y79000D01*
X216885Y78982D01*
X216838Y78974D01*
X216781Y78940D01*
X216721Y78915D01*
X216686Y78884D01*
X216645Y78859D01*
X216603Y78808D01*
X216555Y78764D01*
X216533Y78722D01*
X216504Y78685D01*
X216483Y78623D01*
X216452Y78564D01*
X216444Y78510D01*
X216432Y78473D01*
X216433Y78433D01*
X216425Y78379D01*
X216425Y77168D01*
X215532Y76275D01*
X214591Y76275D01*
X214526Y76264D01*
X214460Y76262D01*
X214417Y76244D01*
X214370Y76236D01*
X214313Y76202D01*
X214253Y76177D01*
X214218Y76146D01*
X214177Y76121D01*
X214135Y76070D01*
X214087Y76026D01*
X214065Y75984D01*
X214036Y75947D01*
X214015Y75885D01*
X213984Y75826D01*
X213976Y75772D01*
X213964Y75735D01*
X213965Y75695D01*
X213957Y75641D01*
X213957Y66959D01*
X213968Y66894D01*
X213970Y66828D01*
X213988Y66785D01*
X213996Y66738D01*
X214030Y66681D01*
X214055Y66621D01*
X214086Y66586D01*
X214111Y66545D01*
X214162Y66503D01*
X214206Y66455D01*
X214248Y66433D01*
X214285Y66404D01*
X214347Y66383D01*
X214406Y66352D01*
X214460Y66344D01*
X214497Y66332D01*
X214537Y66333D01*
X214591Y66325D01*
X215632Y66325D01*
X216537Y65420D01*
X216538Y65360D01*
X216556Y65317D01*
X216564Y65270D01*
X216598Y65213D01*
X216623Y65153D01*
X216654Y65118D01*
X216679Y65077D01*
X216730Y65035D01*
X216774Y64987D01*
X216816Y64965D01*
X216853Y64936D01*
X216915Y64915D01*
X216974Y64884D01*
X217028Y64876D01*
X217065Y64864D01*
X217105Y64865D01*
X217159Y64857D01*
X217241Y64857D01*
X217306Y64868D01*
X217372Y64870D01*
X217415Y64888D01*
X217462Y64896D01*
X217519Y64930D01*
X217579Y64955D01*
X217614Y64986D01*
X217655Y65011D01*
X217697Y65062D01*
X217745Y65106D01*
X217767Y65148D01*
X217796Y65185D01*
X217817Y65247D01*
X217848Y65306D01*
X217856Y65360D01*
X217857Y65363D01*
X218768Y66275D01*
X229032Y66275D01*
X229925Y65382D01*
X229925Y55618D01*
X229455Y55148D01*
X229417Y55094D01*
X229372Y55047D01*
X229354Y55003D01*
X229327Y54964D01*
X229310Y54901D01*
X229285Y54840D01*
X229283Y54793D01*
X229271Y54747D01*
X229278Y54682D01*
X229275Y54616D01*
X229289Y54571D01*
X229294Y54524D01*
X229323Y54465D01*
X229343Y54402D01*
X229376Y54358D01*
X229393Y54323D01*
X229422Y54296D01*
X229455Y54251D01*
X229925Y53782D01*
X229925Y44018D01*
X229032Y43125D01*
X218768Y43125D01*
X217875Y44018D01*
X217875Y44709D01*
X217864Y44774D01*
X217862Y44840D01*
X217844Y44883D01*
X217836Y44930D01*
X217802Y44987D01*
X217777Y45047D01*
X217746Y45082D01*
X217721Y45123D01*
X217670Y45165D01*
X217626Y45213D01*
X217584Y45235D01*
X217547Y45264D01*
X217485Y45285D01*
X217426Y45316D01*
X217372Y45324D01*
X217335Y45336D01*
X217295Y45335D01*
X217241Y45343D01*
X217159Y45343D01*
X217094Y45332D01*
X217028Y45330D01*
X216985Y45312D01*
X216938Y45304D01*
X216881Y45270D01*
X216821Y45245D01*
X216786Y45214D01*
X216745Y45189D01*
X216703Y45138D01*
X216655Y45094D01*
X216633Y45052D01*
X216604Y45015D01*
X216583Y44953D01*
X216552Y44894D01*
X216544Y44840D01*
X216532Y44803D01*
X216533Y44763D01*
X216525Y44709D01*
X216525Y44168D01*
X215632Y43275D01*
X205368Y43275D01*
X204463Y44180D01*
X204462Y44240D01*
X204444Y44283D01*
X204436Y44330D01*
X204402Y44387D01*
X204377Y44447D01*
X204346Y44482D01*
X204321Y44523D01*
X204270Y44565D01*
X204226Y44613D01*
X204184Y44635D01*
X204147Y44664D01*
X204085Y44685D01*
X204026Y44716D01*
X203972Y44724D01*
X203935Y44736D01*
X203895Y44735D01*
X203841Y44743D01*
X186304Y44743D01*
X186239Y44732D01*
X186173Y44730D01*
X186130Y44712D01*
X186083Y44704D01*
X186026Y44670D01*
X185966Y44645D01*
X185931Y44614D01*
X185890Y44589D01*
X185848Y44538D01*
X185800Y44494D01*
X185778Y44452D01*
X185749Y44415D01*
X185728Y44353D01*
X185697Y44294D01*
X185689Y44240D01*
X185677Y44203D01*
X185678Y44163D01*
X185670Y44109D01*
X185670Y17848D01*
X184777Y16955D01*
X171191Y16955D01*
X171126Y16944D01*
X171060Y16942D01*
X171017Y16924D01*
X170970Y16916D01*
X170913Y16882D01*
X170853Y16857D01*
X170818Y16826D01*
X170777Y16802D01*
X170735Y16750D01*
X170687Y16706D01*
X170665Y16664D01*
X170636Y16627D01*
X170615Y16565D01*
X170584Y16506D01*
X170576Y16452D01*
X170564Y16415D01*
X170565Y16375D01*
X170557Y16321D01*
X170557Y10891D01*
X170568Y10826D01*
X170570Y10760D01*
X170588Y10717D01*
X170596Y10670D01*
X170630Y10613D01*
X170655Y10553D01*
X170686Y10518D01*
X170711Y10477D01*
X170762Y10435D01*
X170806Y10387D01*
X170848Y10365D01*
X170885Y10336D01*
X170947Y10315D01*
X171006Y10284D01*
X171060Y10276D01*
X171097Y10264D01*
X171137Y10265D01*
X171191Y10257D01*
X176391Y10257D01*
X176456Y10268D01*
X176522Y10270D01*
X176565Y10288D01*
X176612Y10296D01*
X176669Y10330D01*
X176729Y10355D01*
X176764Y10386D01*
X176805Y10411D01*
X176847Y10462D01*
X176895Y10506D01*
X176917Y10548D01*
X176946Y10585D01*
X176967Y10647D01*
X176998Y10706D01*
X177006Y10760D01*
X177018Y10797D01*
X177017Y10837D01*
X177025Y10891D01*
X177025Y11832D01*
X177918Y12725D01*
X187819Y12725D01*
X187861Y12732D01*
X187903Y12730D01*
X187970Y12752D01*
X188040Y12764D01*
X188076Y12786D01*
X188117Y12799D01*
X188189Y12853D01*
X188233Y12879D01*
X188246Y12895D01*
X188267Y12911D01*
X188590Y13233D01*
X189169Y13568D01*
X189815Y13741D01*
X193131Y13741D01*
X193131Y7335D01*
X193142Y7270D01*
X193144Y7205D01*
X193162Y7161D01*
X193170Y7114D01*
X193204Y7058D01*
X193229Y6997D01*
X193261Y6962D01*
X193285Y6921D01*
X193336Y6880D01*
X193380Y6831D01*
X193422Y6809D01*
X193459Y6780D01*
X193521Y6759D01*
X193580Y6729D01*
X193634Y6720D01*
X193671Y6708D01*
X193711Y6709D01*
X193765Y6701D01*
X194401Y6701D01*
X194401Y6699D01*
X193765Y6699D01*
X193700Y6687D01*
X193635Y6686D01*
X193591Y6668D01*
X193544Y6659D01*
X193487Y6626D01*
X193427Y6601D01*
X193392Y6569D01*
X193351Y6545D01*
X193310Y6494D01*
X193261Y6450D01*
X193239Y6408D01*
X193210Y6371D01*
X193189Y6309D01*
X193158Y6250D01*
X193150Y6196D01*
X193138Y6159D01*
X193139Y6119D01*
X193131Y6065D01*
X193131Y-341D01*
X189815Y-341D01*
X189169Y-168D01*
X188590Y167D01*
X188267Y490D01*
X188232Y514D01*
X188204Y545D01*
X188141Y577D01*
X188083Y618D01*
X188042Y628D01*
X188004Y648D01*
X187915Y661D01*
X187866Y674D01*
X187845Y671D01*
X187819Y675D01*
X177918Y675D01*
X177025Y1568D01*
X177025Y2509D01*
X177014Y2574D01*
X177012Y2640D01*
X176994Y2683D01*
X176986Y2730D01*
X176952Y2787D01*
X176927Y2847D01*
X176896Y2882D01*
X176871Y2923D01*
X176820Y2965D01*
X176776Y3013D01*
X176734Y3035D01*
X176697Y3064D01*
X176635Y3085D01*
X176576Y3116D01*
X176522Y3124D01*
X176485Y3136D01*
X176445Y3135D01*
X176391Y3143D01*
X171191Y3143D01*
X171126Y3132D01*
X171060Y3130D01*
X171017Y3112D01*
X170970Y3104D01*
X170913Y3070D01*
X170853Y3045D01*
X170818Y3014D01*
X170777Y2989D01*
X170735Y2938D01*
X170687Y2894D01*
X170665Y2852D01*
X170636Y2815D01*
X170615Y2753D01*
X170584Y2694D01*
X170576Y2640D01*
X170564Y2603D01*
X170565Y2563D01*
X170557Y2509D01*
X170557Y-571D01*
X170568Y-636D01*
X170570Y-702D01*
X170588Y-745D01*
X170596Y-792D01*
X170630Y-849D01*
X170655Y-909D01*
X170686Y-944D01*
X170711Y-985D01*
X170762Y-1027D01*
X170806Y-1075D01*
X170848Y-1097D01*
X170885Y-1126D01*
X170947Y-1147D01*
X171006Y-1178D01*
X171060Y-1186D01*
X171097Y-1198D01*
X171137Y-1197D01*
X171191Y-1205D01*
X182158Y-1205D01*
X183795Y-2842D01*
X183795Y-27158D01*
X182158Y-28795D01*
X151842Y-28795D01*
X150205Y-27158D01*
X150205Y-2842D01*
X151842Y-1205D01*
X162809Y-1205D01*
X162874Y-1194D01*
X162940Y-1192D01*
X162983Y-1174D01*
X163030Y-1166D01*
X163087Y-1132D01*
X163147Y-1107D01*
X163182Y-1076D01*
X163223Y-1051D01*
X163265Y-1000D01*
X163313Y-956D01*
X163335Y-914D01*
X163364Y-877D01*
X163385Y-815D01*
X163416Y-756D01*
X163424Y-702D01*
X163436Y-665D01*
X163435Y-625D01*
X163443Y-571D01*
X163443Y16321D01*
X163432Y16386D01*
X163430Y16452D01*
X163412Y16495D01*
X163404Y16542D01*
X163370Y16599D01*
X163345Y16660D01*
X163314Y16694D01*
X163289Y16735D01*
X163238Y16777D01*
X163194Y16825D01*
X163152Y16847D01*
X163115Y16876D01*
X163053Y16898D01*
X162994Y16928D01*
X162940Y16936D01*
X162903Y16948D01*
X162863Y16947D01*
X162809Y16955D01*
X149223Y16955D01*
X148330Y17848D01*
X148330Y43900D01*
X149223Y44793D01*
X175626Y44793D01*
X175668Y44800D01*
X175710Y44798D01*
X175777Y44820D01*
X175847Y44832D01*
X175883Y44854D01*
X175924Y44867D01*
X175997Y44921D01*
X176040Y44947D01*
X176053Y44963D01*
X176074Y44979D01*
X182953Y51857D01*
X203841Y51857D01*
X203906Y51868D01*
X203972Y51870D01*
X204015Y51888D01*
X204062Y51896D01*
X204119Y51930D01*
X204179Y51955D01*
X204214Y51986D01*
X204255Y52011D01*
X204297Y52062D01*
X204345Y52106D01*
X204367Y52148D01*
X204396Y52185D01*
X204417Y52247D01*
X204448Y52306D01*
X204456Y52360D01*
X204468Y52397D01*
X204468Y52424D01*
X205368Y53325D01*
X215632Y53325D01*
X216314Y52643D01*
X216349Y52618D01*
X216377Y52587D01*
X216440Y52555D01*
X216498Y52514D01*
X216539Y52504D01*
X216577Y52484D01*
X216667Y52471D01*
X216715Y52458D01*
X216736Y52461D01*
X216762Y52457D01*
X217241Y52457D01*
X217306Y52468D01*
X217372Y52470D01*
X217415Y52488D01*
X217462Y52496D01*
X217519Y52530D01*
X217579Y52555D01*
X217614Y52586D01*
X217655Y52611D01*
X217697Y52662D01*
X217745Y52706D01*
X217767Y52748D01*
X217796Y52785D01*
X217817Y52847D01*
X217848Y52906D01*
X217856Y52960D01*
X217868Y52997D01*
X217867Y53037D01*
X217875Y53091D01*
X217875Y53782D01*
X218345Y54251D01*
X218383Y54306D01*
X218428Y54353D01*
X218446Y54397D01*
X218473Y54436D01*
X218490Y54499D01*
X218515Y54560D01*
X218517Y54607D01*
X218529Y54653D01*
X218522Y54718D01*
X218525Y54784D01*
X218511Y54829D01*
X218506Y54876D01*
X218477Y54935D01*
X218457Y54998D01*
X218424Y55042D01*
X218407Y55077D01*
X218378Y55104D01*
X218345Y55148D01*
X217875Y55618D01*
X217875Y57109D01*
X217864Y57174D01*
X217862Y57240D01*
X217844Y57283D01*
X217836Y57330D01*
X217802Y57387D01*
X217777Y57447D01*
X217746Y57482D01*
X217721Y57523D01*
X217670Y57565D01*
X217626Y57613D01*
X217584Y57635D01*
X217547Y57664D01*
X217485Y57685D01*
X217426Y57716D01*
X217372Y57724D01*
X217335Y57736D01*
X217295Y57735D01*
X217241Y57743D01*
X217159Y57743D01*
X217094Y57732D01*
X217028Y57730D01*
X216985Y57712D01*
X216938Y57704D01*
X216881Y57670D01*
X216821Y57645D01*
X216786Y57614D01*
X216745Y57589D01*
X216703Y57538D01*
X216655Y57494D01*
X216633Y57452D01*
X216604Y57415D01*
X216583Y57353D01*
X216552Y57294D01*
X216544Y57240D01*
X216532Y57203D01*
X216532Y57176D01*
X215632Y56275D01*
X205368Y56275D01*
X204475Y57168D01*
X204475Y65432D01*
X205368Y66325D01*
X206209Y66325D01*
X206274Y66336D01*
X206340Y66338D01*
X206383Y66356D01*
X206430Y66364D01*
X206487Y66398D01*
X206547Y66423D01*
X206582Y66454D01*
X206623Y66479D01*
X206665Y66530D01*
X206713Y66574D01*
X206735Y66616D01*
X206764Y66653D01*
X206785Y66715D01*
X206816Y66774D01*
X206824Y66828D01*
X206836Y66865D01*
X206835Y66905D01*
X206843Y66959D01*
X206843Y75641D01*
X206832Y75706D01*
X206830Y75772D01*
X206812Y75815D01*
X206804Y75862D01*
X206770Y75919D01*
X206745Y75979D01*
X206714Y76014D01*
X206689Y76055D01*
X206638Y76097D01*
X206594Y76145D01*
X206552Y76167D01*
X206515Y76196D01*
X206453Y76217D01*
X206394Y76248D01*
X206340Y76256D01*
X206303Y76268D01*
X206263Y76267D01*
X206209Y76275D01*
X205268Y76275D01*
X204375Y77168D01*
X204375Y85432D01*
X205268Y86325D01*
X215579Y86325D01*
X215644Y86336D01*
X215710Y86338D01*
X215753Y86356D01*
X215800Y86364D01*
X215857Y86398D01*
X215917Y86423D01*
X215952Y86454D01*
X215993Y86479D01*
X216035Y86530D01*
X216083Y86574D01*
X216105Y86616D01*
X216134Y86653D01*
X216155Y86715D01*
X216186Y86774D01*
X216194Y86828D01*
X216206Y86865D01*
X216205Y86905D01*
X216213Y86959D01*
X216213Y87695D01*
X216207Y87731D01*
X216209Y87767D01*
X216187Y87840D01*
X216174Y87916D01*
X216155Y87947D01*
X216145Y87982D01*
X216099Y88043D01*
X216059Y88109D01*
X216031Y88132D01*
X216010Y88161D01*
X215945Y88202D01*
X215885Y88250D01*
X215851Y88262D01*
X215820Y88281D01*
X215745Y88298D01*
X215673Y88322D01*
X215637Y88321D01*
X215601Y88329D01*
X215498Y88317D01*
X215448Y88316D01*
X215434Y88310D01*
X215415Y88308D01*
X215235Y88259D01*
X211669Y88259D01*
X211669Y93665D01*
X211658Y93730D01*
X211656Y93795D01*
X211638Y93839D01*
X211629Y93886D01*
X211596Y93942D01*
X211571Y94003D01*
X211539Y94038D01*
X211515Y94079D01*
X211464Y94120D01*
X211420Y94169D01*
X211378Y94191D01*
X211341Y94220D01*
X211279Y94241D01*
X211220Y94271D01*
X211166Y94280D01*
X211129Y94292D01*
X211089Y94291D01*
X211035Y94299D01*
X210399Y94299D01*
X210399Y94301D01*
X211035Y94301D01*
X211100Y94313D01*
X211165Y94314D01*
X211209Y94332D01*
X211256Y94341D01*
X211313Y94374D01*
X211373Y94399D01*
X211408Y94431D01*
X211449Y94455D01*
X211490Y94506D01*
X211539Y94550D01*
X211561Y94592D01*
X211590Y94629D01*
X211611Y94691D01*
X211641Y94750D01*
X211650Y94804D01*
X211662Y94841D01*
X211661Y94881D01*
X211669Y94935D01*
X211669Y100341D01*
X215235Y100341D01*
X215415Y100292D01*
X215451Y100289D01*
X215485Y100278D01*
X215562Y100280D01*
X215638Y100274D01*
X215673Y100283D01*
X215710Y100284D01*
X215781Y100313D01*
X215855Y100334D01*
X215884Y100355D01*
X215917Y100369D01*
X215974Y100420D01*
X216036Y100465D01*
X216056Y100496D01*
X216083Y100520D01*
X216118Y100588D01*
X216161Y100652D01*
X216169Y100687D01*
X216186Y100720D01*
X216201Y100822D01*
X216212Y100870D01*
X216210Y100886D01*
X216213Y100905D01*
X216213Y122947D01*
X217789Y124523D01*
X217814Y124558D01*
X217845Y124587D01*
X217877Y124650D01*
X217918Y124708D01*
X217928Y124749D01*
X217948Y124787D01*
X217961Y124876D01*
X217974Y124925D01*
X217971Y124946D01*
X217975Y124972D01*
X217975Y155691D01*
X217968Y155733D01*
X217970Y155776D01*
X217948Y155843D01*
X217936Y155912D01*
X217914Y155949D01*
X217901Y155989D01*
X217847Y156062D01*
X217821Y156106D01*
X217805Y156119D01*
X217789Y156140D01*
X217216Y156713D01*
X217181Y156738D01*
X217152Y156769D01*
X217090Y156801D01*
X217032Y156842D01*
X216991Y156852D01*
X216953Y156872D01*
X216863Y156885D01*
X216814Y156898D01*
X216794Y156895D01*
X216767Y156899D01*
X216075Y156899D01*
X216010Y156888D01*
X215944Y156886D01*
X215901Y156868D01*
X215854Y156860D01*
X215797Y156826D01*
X215737Y156801D01*
X215702Y156770D01*
X215661Y156745D01*
X215619Y156694D01*
X215571Y156650D01*
X215549Y156608D01*
X215520Y156571D01*
X215499Y156509D01*
X215468Y156450D01*
X215460Y156396D01*
X215448Y156359D01*
X215449Y156319D01*
X215441Y156265D01*
X215441Y153169D01*
X210035Y153169D01*
X209970Y153158D01*
X209905Y153156D01*
X209861Y153138D01*
X209814Y153129D01*
X209758Y153096D01*
X209697Y153071D01*
X209662Y153039D01*
X209621Y153015D01*
X209580Y152964D01*
X209531Y152920D01*
X209509Y152878D01*
X209480Y152841D01*
X209459Y152779D01*
X209429Y152720D01*
X209420Y152666D01*
X209408Y152629D01*
X209409Y152589D01*
X209401Y152535D01*
X209401Y151899D01*
X209399Y151899D01*
X209399Y152535D01*
X209387Y152600D01*
X209386Y152665D01*
X209368Y152709D01*
X209359Y152756D01*
X209326Y152813D01*
X209301Y152873D01*
X209269Y152908D01*
X209245Y152949D01*
X209194Y152990D01*
X209150Y153039D01*
X209108Y153061D01*
X209071Y153090D01*
X209009Y153111D01*
X208950Y153141D01*
X208896Y153150D01*
X208859Y153162D01*
X208819Y153161D01*
X208765Y153169D01*
X203359Y153169D01*
X203359Y156265D01*
X203348Y156330D01*
X203346Y156396D01*
X203328Y156439D01*
X203320Y156486D01*
X203286Y156543D01*
X203261Y156603D01*
X203230Y156638D01*
X203205Y156679D01*
X203154Y156721D01*
X203110Y156769D01*
X203068Y156791D01*
X203031Y156820D01*
X202969Y156841D01*
X202910Y156872D01*
X202856Y156880D01*
X202819Y156892D01*
X202779Y156891D01*
X202725Y156899D01*
X202059Y156899D01*
X201994Y156888D01*
X201928Y156886D01*
X201885Y156868D01*
X201838Y156860D01*
X201781Y156826D01*
X201721Y156801D01*
X201686Y156770D01*
X201645Y156745D01*
X201603Y156694D01*
X201555Y156650D01*
X201533Y156608D01*
X201504Y156571D01*
X201483Y156509D01*
X201452Y156450D01*
X201444Y156396D01*
X201432Y156359D01*
X201433Y156319D01*
X201425Y156265D01*
X201425Y146768D01*
X200532Y145875D01*
X192268Y145875D01*
X191375Y146768D01*
X191375Y148979D01*
X191364Y149044D01*
X191362Y149110D01*
X191344Y149153D01*
X191336Y149200D01*
X191302Y149257D01*
X191277Y149317D01*
X191246Y149352D01*
X191221Y149393D01*
X191170Y149435D01*
X191126Y149483D01*
X191084Y149505D01*
X191047Y149534D01*
X190985Y149555D01*
X190926Y149586D01*
X190872Y149594D01*
X190835Y149606D01*
X190795Y149605D01*
X190741Y149613D01*
X187759Y149613D01*
X187694Y149602D01*
X187628Y149600D01*
X187585Y149582D01*
X187538Y149574D01*
X187481Y149540D01*
X187421Y149515D01*
X187386Y149484D01*
X187345Y149459D01*
X187303Y149408D01*
X187255Y149364D01*
X187233Y149322D01*
X187204Y149285D01*
X187183Y149223D01*
X187152Y149164D01*
X187144Y149110D01*
X187132Y149073D01*
X187133Y149033D01*
X187125Y148979D01*
X187125Y148868D01*
X187002Y148746D01*
X186982Y148716D01*
X186954Y148692D01*
X186918Y148625D01*
X186874Y148562D01*
X186865Y148527D01*
X186848Y148495D01*
X186837Y148419D01*
X186818Y148345D01*
X186822Y148308D01*
X186817Y148273D01*
X186834Y148198D01*
X186842Y148121D01*
X186858Y148089D01*
X186865Y148053D01*
X186907Y147989D01*
X186941Y147920D01*
X186967Y147895D01*
X186987Y147865D01*
X187068Y147800D01*
X187104Y147766D01*
X187119Y147760D01*
X187134Y147748D01*
X187160Y147733D01*
X187633Y147260D01*
X187968Y146681D01*
X188141Y146035D01*
X188141Y143969D01*
X183235Y143969D01*
X183170Y143958D01*
X183105Y143956D01*
X183061Y143938D01*
X183014Y143929D01*
X182958Y143896D01*
X182897Y143871D01*
X182862Y143839D01*
X182821Y143815D01*
X182780Y143764D01*
X182731Y143720D01*
X182709Y143678D01*
X182680Y143641D01*
X182659Y143579D01*
X182629Y143520D01*
X182620Y143466D01*
X182608Y143429D01*
X182609Y143389D01*
X182601Y143335D01*
X182601Y142699D01*
X181965Y142699D01*
X181900Y142687D01*
X181835Y142686D01*
X181791Y142668D01*
X181744Y142659D01*
X181687Y142626D01*
X181627Y142601D01*
X181592Y142569D01*
X181551Y142545D01*
X181510Y142494D01*
X181461Y142450D01*
X181439Y142408D01*
X181410Y142371D01*
X181389Y142309D01*
X181358Y142250D01*
X181350Y142196D01*
X181338Y142159D01*
X181339Y142119D01*
X181331Y142065D01*
X181331Y138188D01*
X181338Y138146D01*
X181336Y138104D01*
X181358Y138037D01*
X181370Y137967D01*
X181392Y137931D01*
X181405Y137890D01*
X181425Y137864D01*
X181425Y127312D01*
X181440Y127225D01*
X181450Y127136D01*
X181460Y127115D01*
X181464Y127091D01*
X181510Y127015D01*
X181549Y126935D01*
X181566Y126919D01*
X181579Y126898D01*
X181648Y126842D01*
X181712Y126781D01*
X181734Y126772D01*
X181753Y126757D01*
X181837Y126728D01*
X181919Y126694D01*
X181943Y126693D01*
X181965Y126685D01*
X182054Y126688D01*
X182143Y126684D01*
X182166Y126691D01*
X182190Y126692D01*
X182272Y126725D01*
X182357Y126752D01*
X182378Y126768D01*
X182397Y126776D01*
X182435Y126810D01*
X182507Y126864D01*
X183096Y127453D01*
X183098Y127454D01*
X183139Y127479D01*
X183181Y127530D01*
X183229Y127574D01*
X183251Y127616D01*
X183280Y127653D01*
X183301Y127715D01*
X183332Y127774D01*
X183340Y127828D01*
X183352Y127865D01*
X183351Y127905D01*
X183359Y127959D01*
X183359Y131431D01*
X188765Y131431D01*
X188830Y131442D01*
X188895Y131444D01*
X188939Y131462D01*
X188986Y131470D01*
X189042Y131504D01*
X189103Y131529D01*
X189138Y131561D01*
X189179Y131585D01*
X189220Y131636D01*
X189269Y131680D01*
X189291Y131722D01*
X189320Y131759D01*
X189341Y131821D01*
X189371Y131880D01*
X189380Y131934D01*
X189392Y131971D01*
X189391Y132000D01*
X189392Y132003D01*
X189392Y132016D01*
X189399Y132065D01*
X189399Y132701D01*
X189401Y132701D01*
X189401Y132065D01*
X189413Y132000D01*
X189414Y131935D01*
X189432Y131891D01*
X189441Y131844D01*
X189474Y131787D01*
X189499Y131727D01*
X189531Y131692D01*
X189555Y131651D01*
X189606Y131610D01*
X189650Y131561D01*
X189692Y131539D01*
X189729Y131510D01*
X189791Y131489D01*
X189850Y131458D01*
X189904Y131450D01*
X189941Y131438D01*
X189981Y131439D01*
X190035Y131431D01*
X195441Y131431D01*
X195441Y127865D01*
X195352Y127536D01*
X195349Y127491D01*
X195331Y127372D01*
X195331Y123435D01*
X195342Y123370D01*
X195344Y123305D01*
X195362Y123261D01*
X195370Y123214D01*
X195404Y123158D01*
X195429Y123097D01*
X195461Y123062D01*
X195485Y123021D01*
X195536Y122980D01*
X195580Y122931D01*
X195622Y122909D01*
X195659Y122880D01*
X195721Y122859D01*
X195780Y122829D01*
X195834Y122820D01*
X195871Y122808D01*
X195911Y122809D01*
X195965Y122801D01*
X196601Y122801D01*
X196601Y122799D01*
X195965Y122799D01*
X195900Y122787D01*
X195835Y122786D01*
X195791Y122768D01*
X195744Y122759D01*
X195687Y122726D01*
X195627Y122701D01*
X195592Y122669D01*
X195551Y122645D01*
X195510Y122594D01*
X195461Y122550D01*
X195439Y122508D01*
X195410Y122471D01*
X195389Y122409D01*
X195358Y122350D01*
X195350Y122296D01*
X195338Y122259D01*
X195339Y122219D01*
X195331Y122165D01*
X195331Y117259D01*
X193265Y117259D01*
X192619Y117432D01*
X192040Y117767D01*
X191567Y118240D01*
X191479Y118393D01*
X191455Y118421D01*
X191439Y118453D01*
X191383Y118506D01*
X191334Y118564D01*
X191302Y118582D01*
X191276Y118607D01*
X191205Y118637D01*
X191138Y118675D01*
X191103Y118680D01*
X191069Y118695D01*
X190993Y118698D01*
X190917Y118710D01*
X190881Y118703D01*
X190845Y118705D01*
X190772Y118681D01*
X190697Y118666D01*
X190666Y118647D01*
X190631Y118636D01*
X190548Y118575D01*
X190506Y118548D01*
X190496Y118536D01*
X190481Y118524D01*
X190232Y118275D01*
X182968Y118275D01*
X182075Y119168D01*
X182075Y119879D01*
X182064Y119944D01*
X182062Y120010D01*
X182044Y120053D01*
X182036Y120100D01*
X182002Y120157D01*
X181977Y120217D01*
X181946Y120252D01*
X181921Y120293D01*
X181870Y120335D01*
X181826Y120383D01*
X181784Y120405D01*
X181747Y120434D01*
X181685Y120455D01*
X181626Y120486D01*
X181572Y120494D01*
X181535Y120506D01*
X181495Y120505D01*
X181441Y120513D01*
X181159Y120513D01*
X181094Y120502D01*
X181028Y120500D01*
X180985Y120482D01*
X180938Y120474D01*
X180881Y120440D01*
X180821Y120415D01*
X180786Y120384D01*
X180745Y120359D01*
X180703Y120308D01*
X180655Y120264D01*
X180633Y120222D01*
X180604Y120185D01*
X180583Y120123D01*
X180552Y120064D01*
X180544Y120010D01*
X180532Y119973D01*
X180533Y119933D01*
X180525Y119879D01*
X180525Y113968D01*
X179605Y113048D01*
X179567Y112994D01*
X179522Y112947D01*
X179504Y112903D01*
X179477Y112864D01*
X179460Y112801D01*
X179435Y112740D01*
X179433Y112693D01*
X179421Y112647D01*
X179428Y112582D01*
X179425Y112516D01*
X179439Y112471D01*
X179444Y112424D01*
X179473Y112365D01*
X179493Y112302D01*
X179526Y112258D01*
X179543Y112223D01*
X179572Y112196D01*
X179605Y112151D01*
X180525Y111232D01*
X180525Y103968D01*
X179632Y103075D01*
X178921Y103075D01*
X178856Y103064D01*
X178790Y103062D01*
X178747Y103044D01*
X178700Y103036D01*
X178643Y103002D01*
X178583Y102977D01*
X178548Y102946D01*
X178507Y102921D01*
X178465Y102870D01*
X178417Y102826D01*
X178395Y102784D01*
X178366Y102747D01*
X178345Y102685D01*
X178314Y102626D01*
X178306Y102572D01*
X178294Y102535D01*
X178295Y102495D01*
X178287Y102441D01*
X178287Y99679D01*
X178298Y99614D01*
X178300Y99548D01*
X178318Y99505D01*
X178326Y99458D01*
X178360Y99401D01*
X178385Y99340D01*
X178416Y99306D01*
X178441Y99265D01*
X178492Y99223D01*
X178536Y99175D01*
X178578Y99153D01*
X178615Y99124D01*
X178677Y99102D01*
X178736Y99072D01*
X178790Y99064D01*
X178827Y99052D01*
X178867Y99053D01*
X178921Y99045D01*
X184777Y99045D01*
X185670Y98152D01*
X185670Y72100D01*
X184777Y71207D01*
X149018Y71207D01*
X149002Y71212D01*
X148981Y71209D01*
X148955Y71213D01*
X148553Y71213D01*
X129239Y90527D01*
X128429Y91337D01*
X128399Y91358D01*
X128384Y91374D01*
X128365Y91384D01*
X128327Y91420D01*
X128284Y91438D01*
X128245Y91465D01*
X128181Y91481D01*
X128121Y91507D01*
X128073Y91509D01*
X128028Y91521D01*
X127962Y91514D01*
X127896Y91517D01*
X127851Y91503D01*
X127804Y91498D01*
X127746Y91469D01*
X127683Y91449D01*
X127639Y91416D01*
X127603Y91398D01*
X127576Y91370D01*
X127559Y91357D01*
X127548Y91350D01*
X127545Y91346D01*
X127532Y91337D01*
X108856Y72660D01*
X108831Y72626D01*
X108800Y72597D01*
X108768Y72534D01*
X108727Y72476D01*
X108717Y72435D01*
X108697Y72397D01*
X108684Y72308D01*
X108671Y72259D01*
X108674Y72238D01*
X108670Y72212D01*
X108670Y72100D01*
X107777Y71207D01*
X72223Y71207D01*
X71330Y72100D01*
X71330Y98152D01*
X72223Y99045D01*
X76979Y99045D01*
X77044Y99056D01*
X77110Y99058D01*
X77153Y99076D01*
X77200Y99084D01*
X77257Y99118D01*
X77317Y99143D01*
X77352Y99174D01*
X77393Y99198D01*
X77435Y99250D01*
X77483Y99294D01*
X77505Y99336D01*
X77534Y99373D01*
X77555Y99435D01*
X77586Y99494D01*
X77594Y99548D01*
X77606Y99585D01*
X77605Y99625D01*
X77613Y99679D01*
X77613Y103241D01*
X77602Y103306D01*
X77600Y103372D01*
X77582Y103415D01*
X77574Y103462D01*
X77540Y103519D01*
X77515Y103579D01*
X77484Y103614D01*
X77459Y103655D01*
X77408Y103697D01*
X77364Y103745D01*
X77322Y103767D01*
X77285Y103796D01*
X77223Y103817D01*
X77164Y103848D01*
X77110Y103856D01*
X77073Y103868D01*
X77033Y103867D01*
X76979Y103875D01*
X76268Y103875D01*
X75375Y104768D01*
X75375Y112032D01*
X76295Y112952D01*
X76333Y113006D01*
X76378Y113053D01*
X76396Y113097D01*
X76423Y113136D01*
X76440Y113199D01*
X76465Y113260D01*
X76467Y113307D01*
X76479Y113353D01*
X76472Y113418D01*
X76475Y113484D01*
X76461Y113529D01*
X76456Y113576D01*
X76427Y113635D01*
X76407Y113698D01*
X76374Y113742D01*
X76357Y113777D01*
X76328Y113804D01*
X76295Y113849D01*
X75375Y114768D01*
X75375Y115588D01*
X75360Y115675D01*
X75350Y115764D01*
X75340Y115785D01*
X75336Y115809D01*
X75290Y115885D01*
X75251Y115965D01*
X75234Y115981D01*
X75221Y116002D01*
X75152Y116058D01*
X75088Y116119D01*
X75066Y116128D01*
X75047Y116143D01*
X74963Y116172D01*
X74881Y116206D01*
X74857Y116207D01*
X74835Y116215D01*
X74746Y116212D01*
X74657Y116216D01*
X74634Y116209D01*
X74610Y116208D01*
X74528Y116175D01*
X74443Y116148D01*
X74422Y116132D01*
X74403Y116124D01*
X74365Y116090D01*
X74293Y116036D01*
X73532Y115275D01*
X66268Y115275D01*
X66019Y115524D01*
X65989Y115545D01*
X65966Y115572D01*
X65898Y115609D01*
X65835Y115653D01*
X65800Y115662D01*
X65768Y115679D01*
X65692Y115689D01*
X65618Y115708D01*
X65582Y115705D01*
X65546Y115710D01*
X65471Y115693D01*
X65395Y115685D01*
X65362Y115669D01*
X65327Y115661D01*
X65262Y115620D01*
X65193Y115586D01*
X65169Y115559D01*
X65138Y115540D01*
X65074Y115459D01*
X65040Y115423D01*
X65033Y115408D01*
X65021Y115393D01*
X64933Y115240D01*
X64460Y114767D01*
X63881Y114432D01*
X63235Y114259D01*
X61169Y114259D01*
X61169Y119165D01*
X61158Y119230D01*
X61156Y119295D01*
X61138Y119339D01*
X61129Y119386D01*
X61096Y119442D01*
X61071Y119503D01*
X61039Y119538D01*
X61015Y119579D01*
X60964Y119620D01*
X60920Y119669D01*
X60878Y119691D01*
X60841Y119720D01*
X60779Y119741D01*
X60720Y119771D01*
X60666Y119780D01*
X60629Y119792D01*
X60589Y119791D01*
X60535Y119799D01*
X59899Y119799D01*
X59899Y120435D01*
X59887Y120500D01*
X59886Y120565D01*
X59868Y120609D01*
X59859Y120656D01*
X59826Y120713D01*
X59801Y120773D01*
X59769Y120808D01*
X59745Y120849D01*
X59694Y120890D01*
X59650Y120939D01*
X59608Y120961D01*
X59571Y120990D01*
X59509Y121011D01*
X59450Y121041D01*
X59396Y121050D01*
X59359Y121062D01*
X59319Y121061D01*
X59265Y121069D01*
X54359Y121069D01*
X54359Y123218D01*
X54355Y123243D01*
X54358Y123284D01*
X54349Y123319D01*
X54348Y123356D01*
X54324Y123413D01*
X54320Y123439D01*
X54312Y123452D01*
X54298Y123501D01*
X54277Y123530D01*
X54263Y123563D01*
X54214Y123617D01*
X54205Y123632D01*
X54199Y123637D01*
X54166Y123682D01*
X54136Y123702D01*
X54112Y123729D01*
X54044Y123764D01*
X54039Y123767D01*
X54031Y123773D01*
X54028Y123775D01*
X53980Y123807D01*
X53944Y123815D01*
X53912Y123832D01*
X53814Y123846D01*
X53119Y124032D01*
X52540Y124367D01*
X52067Y124840D01*
X51732Y125419D01*
X51559Y126065D01*
X51559Y129631D01*
X56965Y129631D01*
X57030Y129642D01*
X57095Y129644D01*
X57139Y129662D01*
X57186Y129670D01*
X57242Y129704D01*
X57303Y129729D01*
X57338Y129761D01*
X57379Y129785D01*
X57420Y129836D01*
X57469Y129880D01*
X57491Y129922D01*
X57520Y129959D01*
X57541Y130021D01*
X57571Y130080D01*
X57580Y130134D01*
X57592Y130171D01*
X57591Y130211D01*
X57599Y130265D01*
X57599Y130901D01*
X57601Y130901D01*
X57601Y130265D01*
X57613Y130200D01*
X57614Y130135D01*
X57632Y130091D01*
X57641Y130044D01*
X57674Y129987D01*
X57699Y129927D01*
X57731Y129892D01*
X57755Y129851D01*
X57806Y129810D01*
X57850Y129761D01*
X57892Y129739D01*
X57929Y129710D01*
X57991Y129689D01*
X58050Y129658D01*
X58104Y129650D01*
X58141Y129638D01*
X58181Y129639D01*
X58235Y129631D01*
X63641Y129631D01*
X63641Y126065D01*
X63590Y125878D01*
X63588Y125853D01*
X63587Y125847D01*
X63587Y125835D01*
X63582Y125783D01*
X63569Y125689D01*
X63573Y125672D01*
X63572Y125654D01*
X63597Y125563D01*
X63618Y125470D01*
X63627Y125455D01*
X63632Y125438D01*
X63688Y125361D01*
X63739Y125281D01*
X63754Y125269D01*
X63764Y125257D01*
X63805Y125229D01*
X63886Y125165D01*
X64460Y124833D01*
X64933Y124360D01*
X65021Y124207D01*
X65045Y124179D01*
X65061Y124147D01*
X65117Y124094D01*
X65166Y124036D01*
X65198Y124018D01*
X65224Y123993D01*
X65295Y123963D01*
X65362Y123925D01*
X65397Y123920D01*
X65431Y123905D01*
X65507Y123902D01*
X65583Y123890D01*
X65619Y123897D01*
X65655Y123895D01*
X65728Y123919D01*
X65803Y123934D01*
X65834Y123953D01*
X65869Y123964D01*
X65952Y124026D01*
X65994Y124052D01*
X66004Y124064D01*
X66019Y124076D01*
X66195Y124252D01*
X66233Y124306D01*
X66278Y124353D01*
X66296Y124397D01*
X66323Y124436D01*
X66340Y124499D01*
X66365Y124560D01*
X66367Y124607D01*
X66379Y124653D01*
X66372Y124719D01*
X66375Y124784D01*
X66361Y124829D01*
X66356Y124876D01*
X66327Y124935D01*
X66307Y124998D01*
X66274Y125042D01*
X66257Y125077D01*
X66228Y125104D01*
X66195Y125149D01*
X65575Y125768D01*
X65575Y135525D01*
X65564Y135590D01*
X65562Y135656D01*
X65544Y135699D01*
X65536Y135746D01*
X65502Y135803D01*
X65477Y135863D01*
X65446Y135898D01*
X65421Y135939D01*
X65370Y135981D01*
X65326Y136029D01*
X65284Y136051D01*
X65247Y136080D01*
X65185Y136101D01*
X65126Y136132D01*
X65072Y136140D01*
X65035Y136152D01*
X64995Y136151D01*
X64941Y136159D01*
X64275Y136159D01*
X64210Y136148D01*
X64144Y136146D01*
X64101Y136128D01*
X64054Y136120D01*
X63997Y136086D01*
X63937Y136061D01*
X63902Y136030D01*
X63861Y136005D01*
X63819Y135954D01*
X63771Y135910D01*
X63749Y135868D01*
X63720Y135831D01*
X63699Y135769D01*
X63668Y135710D01*
X63660Y135656D01*
X63648Y135619D01*
X63649Y135579D01*
X63641Y135525D01*
X63641Y132169D01*
X58869Y132169D01*
X58869Y137941D01*
X61225Y137941D01*
X61290Y137952D01*
X61356Y137954D01*
X61399Y137972D01*
X61446Y137980D01*
X61503Y138014D01*
X61563Y138039D01*
X61598Y138070D01*
X61639Y138095D01*
X61681Y138146D01*
X61729Y138190D01*
X61751Y138232D01*
X61780Y138269D01*
X61801Y138331D01*
X61832Y138390D01*
X61840Y138444D01*
X61852Y138481D01*
X61851Y138521D01*
X61859Y138575D01*
X61859Y140431D01*
X66765Y140431D01*
X66830Y140442D01*
X66895Y140444D01*
X66939Y140462D01*
X66986Y140470D01*
X67042Y140504D01*
X67103Y140529D01*
X67138Y140561D01*
X67179Y140585D01*
X67220Y140636D01*
X67269Y140680D01*
X67291Y140722D01*
X67320Y140759D01*
X67341Y140821D01*
X67371Y140880D01*
X67380Y140934D01*
X67392Y140971D01*
X67391Y141011D01*
X67399Y141065D01*
X67399Y142335D01*
X67387Y142400D01*
X67386Y142465D01*
X67368Y142509D01*
X67359Y142556D01*
X67326Y142613D01*
X67301Y142673D01*
X67269Y142708D01*
X67245Y142749D01*
X67194Y142790D01*
X67150Y142839D01*
X67108Y142861D01*
X67071Y142890D01*
X67009Y142911D01*
X66950Y142941D01*
X66896Y142950D01*
X66859Y142962D01*
X66819Y142961D01*
X66765Y142969D01*
X61859Y142969D01*
X61859Y145035D01*
X62032Y145681D01*
X62367Y146260D01*
X62840Y146733D01*
X62930Y146785D01*
X62957Y146808D01*
X62990Y146824D01*
X63043Y146880D01*
X63101Y146930D01*
X63119Y146961D01*
X63144Y146988D01*
X63174Y147058D01*
X63211Y147125D01*
X63217Y147161D01*
X63231Y147194D01*
X63235Y147271D01*
X63247Y147347D01*
X63240Y147382D01*
X63241Y147418D01*
X63218Y147491D01*
X63203Y147567D01*
X63184Y147598D01*
X63173Y147632D01*
X63111Y147715D01*
X63085Y147758D01*
X63073Y147767D01*
X63061Y147783D01*
X62875Y147968D01*
X62875Y148679D01*
X62864Y148744D01*
X62862Y148810D01*
X62844Y148853D01*
X62836Y148900D01*
X62802Y148957D01*
X62777Y149017D01*
X62746Y149052D01*
X62721Y149093D01*
X62670Y149135D01*
X62626Y149183D01*
X62584Y149205D01*
X62547Y149234D01*
X62485Y149255D01*
X62426Y149286D01*
X62372Y149294D01*
X62335Y149306D01*
X62295Y149305D01*
X62241Y149313D01*
X59259Y149313D01*
X59194Y149302D01*
X59128Y149300D01*
X59085Y149282D01*
X59038Y149274D01*
X58981Y149240D01*
X58921Y149215D01*
X58886Y149184D01*
X58845Y149159D01*
X58803Y149108D01*
X58755Y149064D01*
X58733Y149022D01*
X58704Y148985D01*
X58683Y148923D01*
X58652Y148864D01*
X58644Y148810D01*
X58632Y148773D01*
X58633Y148733D01*
X58625Y148679D01*
X58625Y145868D01*
X57732Y144975D01*
X49468Y144975D01*
X48575Y145868D01*
X48575Y156132D01*
X49468Y157025D01*
X57732Y157025D01*
X58625Y156132D01*
X58625Y154521D01*
X58636Y154456D01*
X58638Y154390D01*
X58656Y154347D01*
X58664Y154300D01*
X58698Y154243D01*
X58723Y154183D01*
X58754Y154148D01*
X58779Y154107D01*
X58830Y154065D01*
X58874Y154017D01*
X58916Y153995D01*
X58953Y153966D01*
X59015Y153945D01*
X59074Y153914D01*
X59128Y153906D01*
X59165Y153894D01*
X59205Y153895D01*
X59259Y153887D01*
X62241Y153887D01*
X62306Y153898D01*
X62372Y153900D01*
X62415Y153918D01*
X62462Y153926D01*
X62519Y153960D01*
X62579Y153985D01*
X62614Y154016D01*
X62655Y154041D01*
X62697Y154092D01*
X62745Y154136D01*
X62767Y154178D01*
X62796Y154215D01*
X62817Y154277D01*
X62848Y154336D01*
X62856Y154390D01*
X62868Y154427D01*
X62867Y154467D01*
X62875Y154521D01*
X62875Y155232D01*
X63768Y156125D01*
X71032Y156125D01*
X71952Y155205D01*
X72006Y155167D01*
X72053Y155122D01*
X72097Y155104D01*
X72136Y155077D01*
X72199Y155060D01*
X72260Y155035D01*
X72307Y155033D01*
X72353Y155021D01*
X72418Y155028D01*
X72484Y155025D01*
X72529Y155039D01*
X72576Y155044D01*
X72635Y155073D01*
X72698Y155093D01*
X72742Y155126D01*
X72777Y155143D01*
X72804Y155172D01*
X72849Y155205D01*
X73768Y156125D01*
X81032Y156125D01*
X81976Y155180D01*
X81998Y155143D01*
X82023Y155083D01*
X82054Y155048D01*
X82079Y155007D01*
X82130Y154965D01*
X82174Y154917D01*
X82216Y154895D01*
X82253Y154866D01*
X82315Y154845D01*
X82374Y154814D01*
X82428Y154806D01*
X82465Y154794D01*
X82505Y154795D01*
X82559Y154787D01*
X91745Y154787D01*
X91833Y154802D01*
X91921Y154812D01*
X91943Y154822D01*
X91966Y154826D01*
X92043Y154872D01*
X92123Y154911D01*
X92139Y154928D01*
X92159Y154941D01*
X92215Y155010D01*
X92276Y155074D01*
X92286Y155096D01*
X92301Y155115D01*
X92329Y155199D01*
X92364Y155281D01*
X92365Y155305D01*
X92372Y155327D01*
X92370Y155416D01*
X92374Y155505D01*
X92367Y155528D01*
X92366Y155552D01*
X92332Y155634D01*
X92305Y155719D01*
X92289Y155740D01*
X92282Y155759D01*
X92248Y155797D01*
X92194Y155869D01*
X91693Y156370D01*
X91693Y160766D01*
X94802Y163875D01*
X99198Y163875D01*
X100731Y162342D01*
X100804Y162291D01*
X100873Y162235D01*
X100895Y162228D01*
X100915Y162214D01*
X101001Y162192D01*
X101085Y162164D01*
X101109Y162164D01*
X101132Y162158D01*
X101221Y162168D01*
X101310Y162170D01*
X101332Y162179D01*
X101355Y162182D01*
X101435Y162221D01*
X101517Y162254D01*
X101535Y162270D01*
X101556Y162281D01*
X101617Y162346D01*
X101683Y162406D01*
X101694Y162427D01*
X101710Y162444D01*
X101745Y162526D01*
X101786Y162605D01*
X101789Y162632D01*
X101798Y162651D01*
X101800Y162701D01*
X101813Y162791D01*
X101813Y179241D01*
X101802Y179306D01*
X101800Y179372D01*
X101782Y179415D01*
X101774Y179462D01*
X101740Y179519D01*
X101715Y179579D01*
X101684Y179614D01*
X101659Y179655D01*
X101608Y179697D01*
X101564Y179745D01*
X101522Y179767D01*
X101485Y179796D01*
X101423Y179817D01*
X101364Y179848D01*
X101310Y179856D01*
X101273Y179868D01*
X101233Y179867D01*
X101179Y179875D01*
X98968Y179875D01*
X98075Y180768D01*
X98075Y189032D01*
X98968Y189925D01*
X109232Y189925D01*
X110125Y189032D01*
X110125Y180768D01*
X109232Y179875D01*
X107021Y179875D01*
X106956Y179864D01*
X106890Y179862D01*
X106847Y179844D01*
X106800Y179836D01*
X106743Y179802D01*
X106683Y179777D01*
X106648Y179746D01*
X106607Y179721D01*
X106565Y179670D01*
X106517Y179626D01*
X106495Y179584D01*
X106466Y179547D01*
X106445Y179485D01*
X106414Y179426D01*
X106406Y179372D01*
X106394Y179335D01*
X106395Y179295D01*
X106387Y179241D01*
X106387Y165859D01*
X106398Y165794D01*
X106400Y165728D01*
X106418Y165685D01*
X106426Y165638D01*
X106460Y165581D01*
X106485Y165521D01*
X106516Y165486D01*
X106541Y165445D01*
X106592Y165403D01*
X106636Y165355D01*
X106678Y165333D01*
X106715Y165304D01*
X106777Y165283D01*
X106836Y165252D01*
X106890Y165244D01*
X106927Y165232D01*
X106967Y165233D01*
X107021Y165225D01*
X111319Y165225D01*
X111354Y165231D01*
X111391Y165229D01*
X111464Y165251D01*
X111540Y165264D01*
X111571Y165283D01*
X111606Y165293D01*
X111667Y165339D01*
X111733Y165379D01*
X111756Y165407D01*
X111785Y165428D01*
X111826Y165493D01*
X111874Y165553D01*
X111886Y165587D01*
X111905Y165618D01*
X111922Y165693D01*
X111946Y165765D01*
X111945Y165801D01*
X111953Y165837D01*
X111941Y165940D01*
X111939Y165990D01*
X111934Y166004D01*
X111931Y166023D01*
X111759Y166665D01*
X111759Y170116D01*
X114866Y170116D01*
X114866Y164459D01*
X113965Y164459D01*
X113323Y164631D01*
X113287Y164634D01*
X113253Y164646D01*
X113176Y164644D01*
X113100Y164650D01*
X113065Y164640D01*
X113028Y164639D01*
X112958Y164611D01*
X112883Y164590D01*
X112854Y164569D01*
X112821Y164555D01*
X112764Y164503D01*
X112702Y164458D01*
X112682Y164428D01*
X112655Y164404D01*
X112620Y164335D01*
X112577Y164272D01*
X112569Y164236D01*
X112552Y164204D01*
X112537Y164102D01*
X112526Y164053D01*
X112528Y164038D01*
X112525Y164019D01*
X112525Y160668D01*
X112305Y160449D01*
X112267Y160394D01*
X112222Y160347D01*
X112212Y160323D01*
X112201Y160310D01*
X112194Y160290D01*
X112177Y160264D01*
X112160Y160201D01*
X112135Y160140D01*
X112133Y160109D01*
X112129Y160097D01*
X112130Y160082D01*
X112121Y160047D01*
X112128Y159982D01*
X112125Y159916D01*
X112136Y159882D01*
X112136Y159873D01*
X112140Y159863D01*
X112144Y159824D01*
X112173Y159765D01*
X112193Y159702D01*
X112219Y159667D01*
X112220Y159665D01*
X112224Y159660D01*
X112226Y159658D01*
X112243Y159623D01*
X112272Y159596D01*
X112305Y159552D01*
X112525Y159332D01*
X112525Y155668D01*
X112305Y155449D01*
X112267Y155394D01*
X112222Y155347D01*
X112204Y155303D01*
X112177Y155264D01*
X112160Y155201D01*
X112135Y155140D01*
X112133Y155093D01*
X112121Y155047D01*
X112128Y154982D01*
X112125Y154916D01*
X112139Y154871D01*
X112144Y154824D01*
X112173Y154765D01*
X112193Y154702D01*
X112226Y154658D01*
X112243Y154623D01*
X112272Y154596D01*
X112305Y154552D01*
X112525Y154332D01*
X112525Y150668D01*
X112305Y150449D01*
X112267Y150394D01*
X112222Y150347D01*
X112204Y150303D01*
X112177Y150264D01*
X112160Y150201D01*
X112135Y150140D01*
X112133Y150093D01*
X112121Y150047D01*
X112128Y149982D01*
X112125Y149916D01*
X112139Y149871D01*
X112144Y149824D01*
X112173Y149765D01*
X112193Y149702D01*
X112226Y149658D01*
X112243Y149623D01*
X112272Y149596D01*
X112305Y149552D01*
X112525Y149332D01*
X112525Y145668D01*
X112305Y145449D01*
X112267Y145394D01*
X112222Y145347D01*
X112204Y145303D01*
X112177Y145264D01*
X112160Y145201D01*
X112135Y145140D01*
X112133Y145093D01*
X112121Y145047D01*
X112128Y144982D01*
X112125Y144916D01*
X112139Y144871D01*
X112144Y144824D01*
X112173Y144765D01*
X112193Y144702D01*
X112226Y144658D01*
X112243Y144623D01*
X112272Y144596D01*
X112305Y144552D01*
X112525Y144332D01*
X112525Y140668D01*
X112305Y140449D01*
X112267Y140394D01*
X112222Y140347D01*
X112204Y140303D01*
X112177Y140264D01*
X112160Y140201D01*
X112135Y140140D01*
X112133Y140093D01*
X112121Y140047D01*
X112128Y139982D01*
X112125Y139916D01*
X112139Y139871D01*
X112144Y139824D01*
X112173Y139765D01*
X112193Y139702D01*
X112226Y139658D01*
X112243Y139623D01*
X112272Y139596D01*
X112305Y139552D01*
X112525Y139332D01*
X112525Y135668D01*
X112305Y135449D01*
X112267Y135394D01*
X112222Y135347D01*
X112204Y135303D01*
X112177Y135264D01*
X112160Y135201D01*
X112135Y135140D01*
X112133Y135093D01*
X112121Y135047D01*
X112128Y134982D01*
X112125Y134916D01*
X112139Y134871D01*
X112144Y134824D01*
X112173Y134765D01*
X112193Y134702D01*
X112226Y134658D01*
X112243Y134623D01*
X112272Y134596D01*
X112305Y134552D01*
X112525Y134332D01*
X112525Y130668D01*
X111632Y129775D01*
X102868Y129775D01*
X102616Y130027D01*
X102586Y130049D01*
X102572Y130063D01*
X102569Y130065D01*
X102553Y130083D01*
X102490Y130115D01*
X102432Y130156D01*
X102391Y130166D01*
X102353Y130186D01*
X102263Y130199D01*
X102215Y130212D01*
X102194Y130209D01*
X102168Y130213D01*
X95210Y130213D01*
X95168Y130206D01*
X95126Y130208D01*
X95059Y130186D01*
X94989Y130174D01*
X94953Y130152D01*
X94912Y130139D01*
X94839Y130085D01*
X94796Y130059D01*
X94783Y130044D01*
X94776Y130040D01*
X94773Y130036D01*
X94761Y130027D01*
X84611Y119877D01*
X84586Y119842D01*
X84555Y119813D01*
X84523Y119750D01*
X84482Y119692D01*
X84472Y119651D01*
X84452Y119613D01*
X84440Y119529D01*
X84432Y119505D01*
X84432Y119496D01*
X84426Y119475D01*
X84429Y119454D01*
X84425Y119428D01*
X84425Y117229D01*
X84435Y117170D01*
X84436Y117111D01*
X84455Y117061D01*
X84464Y117008D01*
X84495Y116957D01*
X84516Y116901D01*
X84551Y116861D01*
X84579Y116815D01*
X84625Y116778D01*
X84664Y116733D01*
X84711Y116707D01*
X84753Y116674D01*
X84809Y116655D01*
X84862Y116626D01*
X84915Y116619D01*
X84965Y116602D01*
X85025Y116604D01*
X85084Y116595D01*
X85136Y116607D01*
X85190Y116608D01*
X85245Y116631D01*
X85303Y116644D01*
X85348Y116673D01*
X85397Y116693D01*
X85441Y116733D01*
X85492Y116765D01*
X85531Y116815D01*
X85563Y116844D01*
X85579Y116875D01*
X85608Y116912D01*
X85867Y117360D01*
X86340Y117833D01*
X86919Y118168D01*
X87565Y118341D01*
X92131Y118341D01*
X92131Y111435D01*
X92142Y111370D01*
X92144Y111305D01*
X92162Y111261D01*
X92170Y111214D01*
X92204Y111158D01*
X92229Y111097D01*
X92261Y111062D01*
X92285Y111021D01*
X92336Y110980D01*
X92380Y110931D01*
X92422Y110909D01*
X92459Y110880D01*
X92521Y110859D01*
X92580Y110829D01*
X92634Y110820D01*
X92671Y110808D01*
X92711Y110809D01*
X92765Y110801D01*
X93401Y110801D01*
X93401Y110799D01*
X92765Y110799D01*
X92700Y110787D01*
X92635Y110786D01*
X92591Y110768D01*
X92544Y110759D01*
X92487Y110726D01*
X92427Y110701D01*
X92392Y110669D01*
X92351Y110645D01*
X92310Y110594D01*
X92261Y110550D01*
X92239Y110508D01*
X92210Y110471D01*
X92189Y110409D01*
X92158Y110350D01*
X92150Y110296D01*
X92138Y110259D01*
X92139Y110219D01*
X92131Y110165D01*
X92131Y103259D01*
X87565Y103259D01*
X86919Y103432D01*
X86340Y103767D01*
X85867Y104240D01*
X85559Y104773D01*
X85535Y104801D01*
X85519Y104834D01*
X85464Y104886D01*
X85414Y104945D01*
X85383Y104963D01*
X85356Y104988D01*
X85286Y105017D01*
X85219Y105055D01*
X85183Y105061D01*
X85150Y105075D01*
X85073Y105078D01*
X84997Y105090D01*
X84962Y105083D01*
X84925Y105085D01*
X84852Y105062D01*
X84777Y105046D01*
X84746Y105027D01*
X84712Y105016D01*
X84629Y104955D01*
X84586Y104929D01*
X84577Y104916D01*
X84561Y104905D01*
X83532Y103875D01*
X82821Y103875D01*
X82756Y103864D01*
X82690Y103862D01*
X82647Y103844D01*
X82600Y103836D01*
X82543Y103802D01*
X82483Y103777D01*
X82448Y103746D01*
X82407Y103721D01*
X82365Y103670D01*
X82317Y103626D01*
X82295Y103584D01*
X82266Y103547D01*
X82245Y103485D01*
X82214Y103426D01*
X82206Y103372D01*
X82194Y103335D01*
X82195Y103295D01*
X82187Y103241D01*
X82187Y99679D01*
X82198Y99614D01*
X82200Y99548D01*
X82218Y99505D01*
X82226Y99458D01*
X82260Y99401D01*
X82285Y99340D01*
X82316Y99306D01*
X82341Y99265D01*
X82392Y99223D01*
X82436Y99175D01*
X82478Y99153D01*
X82515Y99124D01*
X82577Y99102D01*
X82636Y99072D01*
X82690Y99064D01*
X82727Y99052D01*
X82767Y99053D01*
X82821Y99045D01*
X88656Y99045D01*
X88686Y99050D01*
X88717Y99048D01*
X88831Y99076D01*
X88877Y99084D01*
X88884Y99089D01*
X91121Y99089D01*
X91131Y99086D01*
X91159Y99072D01*
X91276Y99055D01*
X91321Y99045D01*
X91331Y99047D01*
X91344Y99045D01*
X106087Y99045D01*
X106129Y99052D01*
X106171Y99050D01*
X106238Y99072D01*
X106308Y99084D01*
X106344Y99106D01*
X106385Y99119D01*
X106457Y99173D01*
X106501Y99198D01*
X106514Y99215D01*
X106535Y99230D01*
X110497Y103193D01*
X110548Y103266D01*
X110604Y103335D01*
X110612Y103357D01*
X110626Y103377D01*
X110648Y103463D01*
X110676Y103547D01*
X110676Y103571D01*
X110681Y103594D01*
X110672Y103683D01*
X110670Y103772D01*
X110661Y103794D01*
X110658Y103817D01*
X110619Y103897D01*
X110585Y103979D01*
X110569Y103997D01*
X110559Y104018D01*
X110494Y104079D01*
X110434Y104145D01*
X110413Y104156D01*
X110396Y104172D01*
X110314Y104207D01*
X110234Y104248D01*
X110208Y104251D01*
X110189Y104260D01*
X110139Y104262D01*
X110049Y104275D01*
X104268Y104275D01*
X103375Y105168D01*
X103375Y116432D01*
X104271Y117327D01*
X104308Y117381D01*
X104354Y117429D01*
X104372Y117473D01*
X104399Y117511D01*
X104415Y117575D01*
X104441Y117636D01*
X104443Y117683D01*
X104455Y117729D01*
X104448Y117794D01*
X104451Y117860D01*
X104437Y117905D01*
X104432Y117952D01*
X104403Y118011D01*
X104382Y118074D01*
X104350Y118118D01*
X104332Y118153D01*
X104304Y118180D01*
X104271Y118224D01*
X102693Y119802D01*
X102693Y124198D01*
X105802Y127307D01*
X110198Y127307D01*
X111693Y125812D01*
X111766Y125761D01*
X111835Y125705D01*
X111857Y125698D01*
X111877Y125684D01*
X111963Y125662D01*
X112047Y125634D01*
X112071Y125634D01*
X112094Y125628D01*
X112183Y125638D01*
X112272Y125640D01*
X112294Y125649D01*
X112317Y125652D01*
X112397Y125691D01*
X112479Y125724D01*
X112497Y125740D01*
X112518Y125751D01*
X112579Y125816D01*
X112645Y125876D01*
X112656Y125897D01*
X112672Y125914D01*
X112707Y125996D01*
X112748Y126075D01*
X112751Y126102D01*
X112760Y126121D01*
X112762Y126171D01*
X112775Y126261D01*
X112775Y128632D01*
X113668Y129525D01*
X117332Y129525D01*
X117551Y129305D01*
X117606Y129267D01*
X117653Y129222D01*
X117697Y129204D01*
X117736Y129177D01*
X117799Y129160D01*
X117860Y129135D01*
X117907Y129133D01*
X117953Y129121D01*
X118018Y129128D01*
X118084Y129125D01*
X118129Y129139D01*
X118176Y129144D01*
X118235Y129173D01*
X118298Y129193D01*
X118342Y129226D01*
X118377Y129243D01*
X118404Y129272D01*
X118448Y129305D01*
X118668Y129525D01*
X122332Y129525D01*
X122551Y129305D01*
X122606Y129267D01*
X122653Y129222D01*
X122697Y129204D01*
X122736Y129177D01*
X122799Y129160D01*
X122860Y129135D01*
X122907Y129133D01*
X122953Y129121D01*
X123018Y129128D01*
X123084Y129125D01*
X123129Y129139D01*
X123176Y129144D01*
X123235Y129173D01*
X123298Y129193D01*
X123342Y129226D01*
X123377Y129243D01*
X123404Y129272D01*
X123448Y129305D01*
X123668Y129525D01*
X127332Y129525D01*
X127551Y129305D01*
X127606Y129267D01*
X127653Y129222D01*
X127697Y129204D01*
X127736Y129177D01*
X127799Y129160D01*
X127860Y129135D01*
X127907Y129133D01*
X127953Y129121D01*
X128018Y129128D01*
X128084Y129125D01*
X128129Y129139D01*
X128176Y129144D01*
X128235Y129173D01*
X128298Y129193D01*
X128342Y129226D01*
X128377Y129243D01*
X128404Y129272D01*
X128448Y129305D01*
X128668Y129525D01*
X132332Y129525D01*
X132551Y129305D01*
X132606Y129267D01*
X132653Y129222D01*
X132697Y129204D01*
X132736Y129177D01*
X132799Y129160D01*
X132860Y129135D01*
X132907Y129133D01*
X132953Y129121D01*
X133018Y129128D01*
X133084Y129125D01*
X133129Y129139D01*
X133176Y129144D01*
X133235Y129173D01*
X133298Y129193D01*
X133342Y129226D01*
X133377Y129243D01*
X133404Y129272D01*
X133448Y129305D01*
X133668Y129525D01*
X137332Y129525D01*
X137551Y129305D01*
X137606Y129267D01*
X137653Y129222D01*
X137697Y129204D01*
X137736Y129177D01*
X137799Y129160D01*
X137860Y129135D01*
X137907Y129133D01*
X137953Y129121D01*
X138018Y129128D01*
X138084Y129125D01*
X138129Y129139D01*
X138176Y129144D01*
X138235Y129173D01*
X138298Y129193D01*
X138342Y129226D01*
X138377Y129243D01*
X138404Y129272D01*
X138448Y129305D01*
X138668Y129525D01*
X142332Y129525D01*
X142551Y129305D01*
X142606Y129267D01*
X142653Y129222D01*
X142697Y129204D01*
X142736Y129177D01*
X142799Y129160D01*
X142860Y129135D01*
X142907Y129133D01*
X142953Y129121D01*
X143018Y129128D01*
X143084Y129125D01*
X143129Y129139D01*
X143176Y129144D01*
X143235Y129173D01*
X143298Y129193D01*
X143342Y129226D01*
X143377Y129243D01*
X143404Y129272D01*
X143448Y129305D01*
X143668Y129525D01*
X147332Y129525D01*
X148284Y128573D01*
X148319Y128548D01*
X148347Y128517D01*
X148410Y128485D01*
X148468Y128444D01*
X148509Y128434D01*
X148547Y128414D01*
X148637Y128401D01*
X148685Y128388D01*
X148706Y128391D01*
X148732Y128387D01*
X162848Y128387D01*
X162936Y128402D01*
X163024Y128412D01*
X163046Y128422D01*
X163069Y128426D01*
X163146Y128472D01*
X163225Y128511D01*
X163242Y128528D01*
X163262Y128541D01*
X163318Y128610D01*
X163379Y128674D01*
X163389Y128696D01*
X163404Y128715D01*
X163432Y128799D01*
X163467Y128881D01*
X163468Y128905D01*
X163475Y128927D01*
X163473Y129016D01*
X163477Y129105D01*
X163469Y129128D01*
X163469Y129152D01*
X163435Y129234D01*
X163408Y129319D01*
X163392Y129340D01*
X163385Y129359D01*
X163350Y129397D01*
X163297Y129469D01*
X162739Y130028D01*
X162708Y130049D01*
X162695Y130063D01*
X162692Y130065D01*
X162675Y130083D01*
X162612Y130115D01*
X162554Y130156D01*
X162513Y130166D01*
X162475Y130186D01*
X162386Y130199D01*
X162337Y130212D01*
X162316Y130209D01*
X162290Y130213D01*
X158832Y130213D01*
X158790Y130206D01*
X158748Y130208D01*
X158681Y130186D01*
X158611Y130174D01*
X158575Y130152D01*
X158534Y130139D01*
X158462Y130085D01*
X158418Y130059D01*
X158406Y130044D01*
X158398Y130040D01*
X158396Y130036D01*
X158384Y130027D01*
X158132Y129775D01*
X149368Y129775D01*
X148475Y130668D01*
X148475Y134332D01*
X148695Y134551D01*
X148733Y134606D01*
X148778Y134653D01*
X148796Y134697D01*
X148823Y134736D01*
X148840Y134799D01*
X148865Y134860D01*
X148867Y134907D01*
X148879Y134953D01*
X148872Y135018D01*
X148875Y135084D01*
X148861Y135129D01*
X148856Y135176D01*
X148827Y135235D01*
X148807Y135298D01*
X148774Y135342D01*
X148757Y135377D01*
X148728Y135404D01*
X148695Y135448D01*
X148475Y135668D01*
X148475Y139332D01*
X148695Y139551D01*
X148733Y139606D01*
X148778Y139653D01*
X148796Y139697D01*
X148823Y139736D01*
X148840Y139799D01*
X148865Y139860D01*
X148867Y139907D01*
X148879Y139953D01*
X148872Y140018D01*
X148875Y140084D01*
X148861Y140129D01*
X148856Y140176D01*
X148827Y140235D01*
X148807Y140298D01*
X148774Y140342D01*
X148757Y140377D01*
X148728Y140404D01*
X148695Y140448D01*
X148475Y140668D01*
X148475Y144332D01*
X148695Y144551D01*
X148733Y144606D01*
X148778Y144653D01*
X148796Y144697D01*
X148823Y144736D01*
X148840Y144799D01*
X148865Y144860D01*
X148867Y144907D01*
X148879Y144953D01*
X148872Y145018D01*
X148875Y145084D01*
X148861Y145129D01*
X148856Y145176D01*
X148827Y145235D01*
X148807Y145298D01*
X148774Y145342D01*
X148757Y145377D01*
X148728Y145404D01*
X148695Y145448D01*
X148475Y145668D01*
X148475Y149332D01*
X148695Y149551D01*
X148733Y149606D01*
X148778Y149653D01*
X148796Y149697D01*
X148823Y149736D01*
X148840Y149799D01*
X148865Y149860D01*
X148867Y149907D01*
X148879Y149953D01*
X148872Y150018D01*
X148875Y150084D01*
X148861Y150129D01*
X148856Y150176D01*
X148827Y150235D01*
X148807Y150298D01*
X148774Y150342D01*
X148757Y150377D01*
X148728Y150404D01*
X148695Y150448D01*
X148475Y150668D01*
X148475Y153969D01*
X148468Y154011D01*
X148470Y154053D01*
X148448Y154120D01*
X148436Y154190D01*
X148414Y154226D01*
X148401Y154267D01*
X148347Y154339D01*
X148321Y154383D01*
X148305Y154396D01*
X148289Y154417D01*
X147967Y154740D01*
X147632Y155319D01*
X147459Y155965D01*
X147459Y156866D01*
X153750Y156866D01*
X160041Y156866D01*
X160041Y156790D01*
X160054Y156716D01*
X160054Y156701D01*
X160057Y156694D01*
X160066Y156613D01*
X160076Y156592D01*
X160080Y156569D01*
X160126Y156492D01*
X160165Y156412D01*
X160182Y156396D01*
X160194Y156376D01*
X160264Y156319D01*
X160328Y156258D01*
X160350Y156249D01*
X160369Y156234D01*
X160453Y156206D01*
X160535Y156171D01*
X160559Y156170D01*
X160581Y156162D01*
X160670Y156165D01*
X160759Y156161D01*
X160782Y156168D01*
X160805Y156169D01*
X160888Y156202D01*
X160973Y156230D01*
X160994Y156245D01*
X161013Y156253D01*
X161051Y156287D01*
X161123Y156341D01*
X166731Y161949D01*
X219122Y161949D01*
X223025Y158046D01*
X223025Y122954D01*
X221546Y121475D01*
X221472Y121475D01*
X221430Y121468D01*
X221388Y121470D01*
X221321Y121448D01*
X221251Y121436D01*
X221215Y121414D01*
X221174Y121401D01*
X221101Y121347D01*
X221058Y121321D01*
X221045Y121305D01*
X221023Y121289D01*
X220973Y121239D01*
X220948Y121204D01*
X220917Y121175D01*
X220885Y121112D01*
X220844Y121054D01*
X220834Y121013D01*
X220814Y120975D01*
X220801Y120886D01*
X220788Y120837D01*
X220791Y120816D01*
X220787Y120790D01*
X220787Y116739D01*
X220803Y116651D01*
X220812Y116563D01*
X220822Y116542D01*
X220826Y116518D01*
X220872Y116441D01*
X220911Y116362D01*
X220928Y116346D01*
X220941Y116325D01*
X221010Y116269D01*
X221074Y116208D01*
X221096Y116199D01*
X221115Y116184D01*
X221199Y116155D01*
X221281Y116120D01*
X221305Y116119D01*
X221327Y116112D01*
X221416Y116114D01*
X221505Y116110D01*
X221528Y116118D01*
X221552Y116118D01*
X221634Y116152D01*
X221719Y116179D01*
X221740Y116195D01*
X221759Y116203D01*
X221797Y116237D01*
X221869Y116291D01*
X223334Y117755D01*
X223928Y118001D01*
X223954Y118018D01*
X223983Y118027D01*
X224079Y118098D01*
X224117Y118123D01*
X224124Y118131D01*
X224134Y118139D01*
X224302Y118307D01*
X224539Y118307D01*
X224569Y118312D01*
X224600Y118310D01*
X224715Y118338D01*
X224760Y118346D01*
X224769Y118352D01*
X224782Y118355D01*
X225388Y118606D01*
X231808Y118606D01*
X231873Y118618D01*
X231939Y118620D01*
X231982Y118638D01*
X232029Y118646D01*
X232086Y118679D01*
X232146Y118704D01*
X232181Y118736D01*
X232222Y118760D01*
X232264Y118811D01*
X232312Y118856D01*
X232334Y118898D01*
X232363Y118934D01*
X232384Y118996D01*
X232415Y119055D01*
X232423Y119110D01*
X232435Y119147D01*
X232435Y119166D01*
X233335Y120067D01*
X254443Y120067D01*
X254508Y120078D01*
X254574Y120080D01*
X254617Y120098D01*
X254664Y120106D01*
X254721Y120140D01*
X254781Y120165D01*
X254816Y120196D01*
X254857Y120221D01*
X254899Y120272D01*
X254947Y120316D01*
X254969Y120358D01*
X254998Y120395D01*
X255019Y120457D01*
X255050Y120516D01*
X255058Y120570D01*
X255070Y120607D01*
X255069Y120647D01*
X255077Y120701D01*
X255077Y216443D01*
X255066Y216508D01*
X255064Y216574D01*
X255046Y216617D01*
X255038Y216664D01*
X255004Y216721D01*
X254979Y216781D01*
X254948Y216816D01*
X254923Y216857D01*
X254872Y216899D01*
X254828Y216947D01*
X254786Y216969D01*
X254749Y216998D01*
X254687Y217019D01*
X254628Y217050D01*
X254574Y217058D01*
X254537Y217070D01*
X254497Y217069D01*
X254443Y217077D01*
X13057Y217077D01*
X12992Y217066D01*
X12926Y217064D01*
X12883Y217046D01*
X12836Y217038D01*
X12779Y217004D01*
X12719Y216979D01*
X12684Y216948D01*
X12643Y216923D01*
X12601Y216872D01*
X12553Y216828D01*
X12531Y216786D01*
X12502Y216749D01*
X12481Y216687D01*
X12450Y216628D01*
X12442Y216574D01*
X12430Y216537D01*
X12431Y216497D01*
X12423Y216443D01*
X12423Y-33443D01*
X12434Y-33508D01*
X12436Y-33574D01*
X12454Y-33617D01*
X12462Y-33664D01*
X12496Y-33721D01*
X12521Y-33781D01*
X12552Y-33816D01*
X12577Y-33857D01*
X12628Y-33899D01*
X12672Y-33947D01*
X12714Y-33969D01*
X12751Y-33998D01*
X12813Y-34019D01*
X12872Y-34050D01*
X12926Y-34058D01*
X12963Y-34070D01*
X13003Y-34069D01*
X13057Y-34077D01*
X254443Y-34077D01*
X254508Y-34066D01*
G37*
%LPC*%
G36*
X75342Y-29795D02*
X75342Y-29795D01*
X73705Y-28158D01*
X73705Y-3842D01*
X75342Y-2205D01*
X85809Y-2205D01*
X85874Y-2194D01*
X85940Y-2192D01*
X85983Y-2174D01*
X86030Y-2166D01*
X86087Y-2132D01*
X86147Y-2107D01*
X86182Y-2076D01*
X86223Y-2051D01*
X86265Y-2000D01*
X86313Y-1956D01*
X86335Y-1914D01*
X86364Y-1877D01*
X86385Y-1815D01*
X86416Y-1756D01*
X86424Y-1702D01*
X86436Y-1665D01*
X86435Y-1625D01*
X86443Y-1571D01*
X86443Y2309D01*
X86432Y2374D01*
X86430Y2440D01*
X86412Y2483D01*
X86404Y2530D01*
X86370Y2587D01*
X86345Y2647D01*
X86314Y2682D01*
X86289Y2723D01*
X86238Y2765D01*
X86194Y2813D01*
X86152Y2835D01*
X86115Y2864D01*
X86053Y2885D01*
X85994Y2916D01*
X85940Y2924D01*
X85903Y2936D01*
X85863Y2935D01*
X85809Y2943D01*
X77309Y2943D01*
X77244Y2932D01*
X77178Y2930D01*
X77135Y2912D01*
X77088Y2904D01*
X77031Y2870D01*
X76971Y2845D01*
X76936Y2814D01*
X76895Y2789D01*
X76853Y2738D01*
X76805Y2694D01*
X76783Y2652D01*
X76754Y2615D01*
X76733Y2553D01*
X76702Y2494D01*
X76694Y2440D01*
X76682Y2403D01*
X76683Y2363D01*
X76675Y2309D01*
X76675Y968D01*
X75782Y75D01*
X65881Y75D01*
X65839Y68D01*
X65797Y70D01*
X65730Y48D01*
X65660Y36D01*
X65624Y14D01*
X65583Y1D01*
X65510Y-53D01*
X65467Y-79D01*
X65454Y-95D01*
X65433Y-111D01*
X65110Y-433D01*
X64531Y-768D01*
X63885Y-941D01*
X60569Y-941D01*
X60569Y5465D01*
X60558Y5530D01*
X60556Y5595D01*
X60538Y5639D01*
X60529Y5686D01*
X60496Y5742D01*
X60471Y5803D01*
X60439Y5838D01*
X60415Y5879D01*
X60364Y5920D01*
X60320Y5969D01*
X60278Y5991D01*
X60241Y6020D01*
X60179Y6041D01*
X60120Y6071D01*
X60066Y6080D01*
X60029Y6092D01*
X59989Y6091D01*
X59935Y6099D01*
X59299Y6099D01*
X59299Y6101D01*
X59935Y6101D01*
X60000Y6113D01*
X60065Y6114D01*
X60109Y6132D01*
X60156Y6141D01*
X60213Y6174D01*
X60273Y6199D01*
X60308Y6231D01*
X60349Y6255D01*
X60390Y6306D01*
X60439Y6350D01*
X60461Y6392D01*
X60490Y6429D01*
X60511Y6491D01*
X60541Y6550D01*
X60550Y6604D01*
X60562Y6641D01*
X60561Y6681D01*
X60569Y6735D01*
X60569Y13141D01*
X63885Y13141D01*
X64531Y12968D01*
X65110Y12633D01*
X65433Y12311D01*
X65467Y12286D01*
X65496Y12255D01*
X65559Y12223D01*
X65617Y12182D01*
X65658Y12172D01*
X65696Y12152D01*
X65785Y12139D01*
X65834Y12126D01*
X65855Y12129D01*
X65881Y12125D01*
X75782Y12125D01*
X76675Y11232D01*
X76675Y10691D01*
X76686Y10626D01*
X76688Y10560D01*
X76706Y10517D01*
X76714Y10470D01*
X76748Y10413D01*
X76773Y10353D01*
X76804Y10318D01*
X76829Y10277D01*
X76880Y10235D01*
X76924Y10187D01*
X76966Y10165D01*
X77003Y10136D01*
X77065Y10115D01*
X77124Y10084D01*
X77178Y10076D01*
X77215Y10064D01*
X77255Y10065D01*
X77309Y10057D01*
X85809Y10057D01*
X85874Y10068D01*
X85940Y10070D01*
X85983Y10088D01*
X86030Y10096D01*
X86087Y10130D01*
X86147Y10155D01*
X86182Y10186D01*
X86223Y10211D01*
X86265Y10262D01*
X86313Y10306D01*
X86335Y10348D01*
X86364Y10385D01*
X86385Y10447D01*
X86416Y10506D01*
X86424Y10560D01*
X86436Y10597D01*
X86435Y10637D01*
X86443Y10691D01*
X86443Y16321D01*
X86432Y16386D01*
X86430Y16452D01*
X86412Y16495D01*
X86404Y16542D01*
X86370Y16599D01*
X86345Y16660D01*
X86314Y16694D01*
X86289Y16735D01*
X86238Y16777D01*
X86194Y16825D01*
X86152Y16847D01*
X86115Y16876D01*
X86053Y16898D01*
X85994Y16928D01*
X85940Y16936D01*
X85903Y16948D01*
X85863Y16947D01*
X85809Y16955D01*
X72223Y16955D01*
X71330Y17848D01*
X71330Y43994D01*
X71333Y44006D01*
X71359Y44067D01*
X71361Y44114D01*
X71373Y44159D01*
X71366Y44225D01*
X71369Y44291D01*
X71355Y44336D01*
X71350Y44383D01*
X71321Y44442D01*
X71300Y44504D01*
X71268Y44549D01*
X71250Y44584D01*
X71222Y44611D01*
X71189Y44655D01*
X54887Y60957D01*
X54852Y60982D01*
X54823Y61013D01*
X54760Y61045D01*
X54702Y61086D01*
X54661Y61096D01*
X54623Y61116D01*
X54534Y61129D01*
X54485Y61142D01*
X54464Y61139D01*
X54438Y61143D01*
X51459Y61143D01*
X51394Y61132D01*
X51328Y61130D01*
X51285Y61112D01*
X51238Y61104D01*
X51181Y61070D01*
X51121Y61045D01*
X51086Y61014D01*
X51045Y60989D01*
X51003Y60938D01*
X50955Y60894D01*
X50933Y60852D01*
X50904Y60815D01*
X50883Y60753D01*
X50852Y60694D01*
X50844Y60640D01*
X50832Y60603D01*
X50832Y60576D01*
X49932Y59675D01*
X39668Y59675D01*
X38763Y60580D01*
X38762Y60640D01*
X38744Y60683D01*
X38736Y60730D01*
X38702Y60787D01*
X38677Y60847D01*
X38646Y60882D01*
X38621Y60923D01*
X38570Y60965D01*
X38526Y61013D01*
X38484Y61035D01*
X38447Y61064D01*
X38385Y61085D01*
X38326Y61116D01*
X38272Y61124D01*
X38235Y61136D01*
X38195Y61135D01*
X38141Y61143D01*
X36959Y61143D01*
X36894Y61132D01*
X36828Y61130D01*
X36785Y61112D01*
X36738Y61104D01*
X36681Y61070D01*
X36621Y61045D01*
X36586Y61014D01*
X36545Y60989D01*
X36503Y60938D01*
X36455Y60894D01*
X36433Y60852D01*
X36404Y60815D01*
X36383Y60753D01*
X36352Y60694D01*
X36344Y60640D01*
X36332Y60603D01*
X36333Y60563D01*
X36325Y60509D01*
X36325Y60218D01*
X35432Y59325D01*
X25168Y59325D01*
X24275Y60218D01*
X24275Y69982D01*
X24745Y70452D01*
X24783Y70506D01*
X24828Y70553D01*
X24846Y70597D01*
X24873Y70636D01*
X24890Y70699D01*
X24915Y70760D01*
X24917Y70807D01*
X24929Y70853D01*
X24922Y70918D01*
X24925Y70984D01*
X24911Y71029D01*
X24906Y71076D01*
X24877Y71135D01*
X24857Y71198D01*
X24824Y71242D01*
X24807Y71277D01*
X24778Y71304D01*
X24745Y71349D01*
X24275Y71818D01*
X24275Y81582D01*
X25168Y82475D01*
X35432Y82475D01*
X36325Y81582D01*
X36325Y80891D01*
X36336Y80826D01*
X36338Y80760D01*
X36356Y80717D01*
X36364Y80670D01*
X36398Y80613D01*
X36423Y80553D01*
X36454Y80518D01*
X36479Y80477D01*
X36530Y80435D01*
X36574Y80387D01*
X36616Y80365D01*
X36653Y80336D01*
X36715Y80315D01*
X36774Y80284D01*
X36828Y80276D01*
X36865Y80264D01*
X36905Y80265D01*
X36959Y80257D01*
X38141Y80257D01*
X38206Y80268D01*
X38272Y80270D01*
X38315Y80288D01*
X38362Y80296D01*
X38419Y80330D01*
X38479Y80355D01*
X38514Y80386D01*
X38555Y80411D01*
X38597Y80462D01*
X38645Y80506D01*
X38667Y80548D01*
X38696Y80585D01*
X38717Y80647D01*
X38748Y80706D01*
X38756Y80760D01*
X38768Y80797D01*
X38767Y80837D01*
X38775Y80891D01*
X38775Y81832D01*
X39668Y82725D01*
X40209Y82725D01*
X40274Y82736D01*
X40340Y82738D01*
X40383Y82756D01*
X40430Y82764D01*
X40487Y82798D01*
X40547Y82823D01*
X40582Y82854D01*
X40623Y82879D01*
X40665Y82930D01*
X40713Y82974D01*
X40735Y83016D01*
X40764Y83053D01*
X40785Y83115D01*
X40816Y83174D01*
X40824Y83228D01*
X40836Y83265D01*
X40835Y83305D01*
X40843Y83359D01*
X40843Y91541D01*
X40832Y91606D01*
X40830Y91672D01*
X40812Y91715D01*
X40804Y91762D01*
X40770Y91819D01*
X40745Y91879D01*
X40714Y91914D01*
X40689Y91955D01*
X40638Y91997D01*
X40594Y92045D01*
X40552Y92067D01*
X40515Y92096D01*
X40453Y92117D01*
X40394Y92148D01*
X40340Y92156D01*
X40303Y92168D01*
X40263Y92167D01*
X40209Y92175D01*
X39268Y92175D01*
X38375Y93068D01*
X38375Y93839D01*
X38359Y93927D01*
X38350Y94015D01*
X38340Y94037D01*
X38336Y94060D01*
X38290Y94137D01*
X38251Y94216D01*
X38234Y94233D01*
X38221Y94253D01*
X38152Y94309D01*
X38088Y94370D01*
X38066Y94380D01*
X38047Y94395D01*
X37963Y94423D01*
X37881Y94458D01*
X37857Y94459D01*
X37835Y94466D01*
X37746Y94464D01*
X37657Y94468D01*
X37634Y94461D01*
X37610Y94460D01*
X37528Y94426D01*
X37443Y94399D01*
X37422Y94383D01*
X37403Y94376D01*
X37365Y94342D01*
X37293Y94288D01*
X35198Y92193D01*
X30802Y92193D01*
X27693Y95302D01*
X27693Y99698D01*
X30802Y102807D01*
X35198Y102807D01*
X37293Y100712D01*
X37366Y100661D01*
X37435Y100605D01*
X37457Y100598D01*
X37477Y100584D01*
X37563Y100562D01*
X37647Y100534D01*
X37671Y100534D01*
X37694Y100528D01*
X37783Y100538D01*
X37872Y100540D01*
X37894Y100549D01*
X37917Y100552D01*
X37997Y100591D01*
X38079Y100624D01*
X38097Y100640D01*
X38118Y100651D01*
X38179Y100716D01*
X38245Y100776D01*
X38256Y100797D01*
X38272Y100814D01*
X38307Y100896D01*
X38348Y100975D01*
X38351Y101002D01*
X38360Y101021D01*
X38362Y101071D01*
X38375Y101161D01*
X38375Y101332D01*
X39268Y102225D01*
X49532Y102225D01*
X50425Y101332D01*
X50425Y93068D01*
X49532Y92175D01*
X48591Y92175D01*
X48526Y92164D01*
X48460Y92162D01*
X48417Y92144D01*
X48370Y92136D01*
X48313Y92102D01*
X48253Y92077D01*
X48218Y92046D01*
X48177Y92021D01*
X48135Y91970D01*
X48087Y91926D01*
X48065Y91884D01*
X48036Y91847D01*
X48015Y91785D01*
X47984Y91726D01*
X47976Y91672D01*
X47964Y91635D01*
X47965Y91601D01*
X47964Y91598D01*
X47964Y91589D01*
X47957Y91541D01*
X47957Y83359D01*
X47968Y83294D01*
X47970Y83228D01*
X47988Y83185D01*
X47996Y83138D01*
X48030Y83081D01*
X48055Y83021D01*
X48086Y82986D01*
X48111Y82945D01*
X48162Y82903D01*
X48206Y82855D01*
X48248Y82833D01*
X48285Y82804D01*
X48347Y82783D01*
X48406Y82752D01*
X48460Y82744D01*
X48497Y82732D01*
X48537Y82733D01*
X48591Y82725D01*
X49932Y82725D01*
X50825Y81832D01*
X50825Y73568D01*
X49932Y72675D01*
X39668Y72675D01*
X39386Y72957D01*
X39359Y72976D01*
X39355Y72981D01*
X39350Y72984D01*
X39323Y73013D01*
X39260Y73045D01*
X39202Y73086D01*
X39161Y73096D01*
X39123Y73116D01*
X39033Y73129D01*
X38985Y73142D01*
X38964Y73139D01*
X38938Y73143D01*
X36959Y73143D01*
X36894Y73132D01*
X36828Y73130D01*
X36785Y73112D01*
X36738Y73104D01*
X36681Y73070D01*
X36621Y73045D01*
X36586Y73014D01*
X36545Y72989D01*
X36503Y72938D01*
X36455Y72894D01*
X36433Y72852D01*
X36404Y72815D01*
X36383Y72753D01*
X36352Y72694D01*
X36344Y72640D01*
X36332Y72603D01*
X36333Y72573D01*
X36332Y72570D01*
X36332Y72558D01*
X36325Y72509D01*
X36325Y71818D01*
X35855Y71349D01*
X35817Y71294D01*
X35772Y71247D01*
X35754Y71203D01*
X35727Y71164D01*
X35710Y71101D01*
X35685Y71040D01*
X35683Y70993D01*
X35671Y70947D01*
X35678Y70882D01*
X35675Y70816D01*
X35689Y70771D01*
X35694Y70724D01*
X35723Y70665D01*
X35743Y70602D01*
X35776Y70558D01*
X35793Y70523D01*
X35822Y70496D01*
X35855Y70452D01*
X36325Y69982D01*
X36325Y68891D01*
X36336Y68826D01*
X36338Y68760D01*
X36356Y68717D01*
X36364Y68670D01*
X36398Y68613D01*
X36423Y68553D01*
X36454Y68518D01*
X36479Y68477D01*
X36530Y68435D01*
X36574Y68387D01*
X36616Y68365D01*
X36653Y68336D01*
X36715Y68315D01*
X36774Y68284D01*
X36828Y68276D01*
X36865Y68264D01*
X36905Y68265D01*
X36959Y68257D01*
X38141Y68257D01*
X38206Y68268D01*
X38272Y68270D01*
X38315Y68288D01*
X38362Y68296D01*
X38419Y68330D01*
X38479Y68355D01*
X38514Y68386D01*
X38555Y68411D01*
X38597Y68462D01*
X38645Y68506D01*
X38667Y68548D01*
X38696Y68585D01*
X38717Y68647D01*
X38748Y68706D01*
X38756Y68760D01*
X38768Y68797D01*
X38768Y68824D01*
X39668Y69725D01*
X49932Y69725D01*
X50837Y68820D01*
X50838Y68760D01*
X50856Y68717D01*
X50864Y68670D01*
X50898Y68613D01*
X50923Y68553D01*
X50954Y68518D01*
X50979Y68477D01*
X51030Y68435D01*
X51074Y68387D01*
X51116Y68365D01*
X51153Y68336D01*
X51215Y68315D01*
X51274Y68284D01*
X51328Y68276D01*
X51365Y68264D01*
X51405Y68265D01*
X51459Y68257D01*
X57647Y68257D01*
X80926Y44979D01*
X80960Y44954D01*
X80989Y44923D01*
X81052Y44891D01*
X81110Y44850D01*
X81151Y44840D01*
X81189Y44820D01*
X81278Y44807D01*
X81327Y44795D01*
X81348Y44797D01*
X81374Y44793D01*
X107777Y44793D01*
X108670Y43900D01*
X108670Y17848D01*
X107777Y16955D01*
X94191Y16955D01*
X94126Y16944D01*
X94060Y16942D01*
X94017Y16924D01*
X93970Y16916D01*
X93913Y16882D01*
X93853Y16857D01*
X93818Y16826D01*
X93777Y16802D01*
X93735Y16750D01*
X93687Y16706D01*
X93665Y16664D01*
X93636Y16627D01*
X93615Y16565D01*
X93584Y16506D01*
X93576Y16452D01*
X93564Y16415D01*
X93565Y16375D01*
X93557Y16321D01*
X93557Y-1571D01*
X93568Y-1636D01*
X93570Y-1702D01*
X93588Y-1745D01*
X93596Y-1792D01*
X93630Y-1849D01*
X93655Y-1909D01*
X93686Y-1944D01*
X93711Y-1985D01*
X93762Y-2027D01*
X93806Y-2075D01*
X93848Y-2097D01*
X93885Y-2126D01*
X93947Y-2147D01*
X94006Y-2178D01*
X94060Y-2186D01*
X94097Y-2198D01*
X94137Y-2197D01*
X94191Y-2205D01*
X105658Y-2205D01*
X107295Y-3842D01*
X107295Y-28158D01*
X105658Y-29795D01*
X75342Y-29795D01*
G37*
%LPD*%
G36*
X181118Y-27254D02*
X181118Y-27254D01*
X181237Y-27247D01*
X181275Y-27234D01*
X181316Y-27229D01*
X181426Y-27186D01*
X181539Y-27149D01*
X181574Y-27127D01*
X181611Y-27112D01*
X181707Y-27043D01*
X181808Y-26979D01*
X181836Y-26949D01*
X181869Y-26926D01*
X181945Y-26834D01*
X182026Y-26747D01*
X182046Y-26712D01*
X182071Y-26681D01*
X182122Y-26573D01*
X182180Y-26469D01*
X182190Y-26429D01*
X182207Y-26393D01*
X182229Y-26276D01*
X182259Y-26161D01*
X182263Y-26101D01*
X182267Y-26081D01*
X182265Y-26060D01*
X182269Y-26000D01*
X182269Y-4000D01*
X182254Y-3882D01*
X182247Y-3763D01*
X182234Y-3725D01*
X182229Y-3684D01*
X182186Y-3574D01*
X182149Y-3461D01*
X182127Y-3426D01*
X182112Y-3389D01*
X182043Y-3293D01*
X181979Y-3192D01*
X181949Y-3164D01*
X181926Y-3131D01*
X181834Y-3056D01*
X181747Y-2974D01*
X181712Y-2954D01*
X181681Y-2929D01*
X181573Y-2878D01*
X181469Y-2820D01*
X181429Y-2810D01*
X181393Y-2793D01*
X181276Y-2771D01*
X181161Y-2741D01*
X181101Y-2737D01*
X181081Y-2733D01*
X181060Y-2735D01*
X181000Y-2731D01*
X153000Y-2731D01*
X152882Y-2746D01*
X152763Y-2753D01*
X152725Y-2766D01*
X152684Y-2771D01*
X152574Y-2814D01*
X152461Y-2851D01*
X152426Y-2873D01*
X152389Y-2888D01*
X152293Y-2958D01*
X152192Y-3021D01*
X152164Y-3051D01*
X152131Y-3074D01*
X152056Y-3166D01*
X151974Y-3253D01*
X151954Y-3288D01*
X151929Y-3319D01*
X151878Y-3427D01*
X151820Y-3531D01*
X151810Y-3571D01*
X151793Y-3607D01*
X151771Y-3724D01*
X151741Y-3839D01*
X151737Y-3900D01*
X151733Y-3920D01*
X151735Y-3940D01*
X151731Y-4000D01*
X151731Y-26000D01*
X151746Y-26118D01*
X151753Y-26237D01*
X151766Y-26275D01*
X151771Y-26316D01*
X151814Y-26426D01*
X151851Y-26539D01*
X151873Y-26574D01*
X151888Y-26611D01*
X151958Y-26707D01*
X152021Y-26808D01*
X152051Y-26836D01*
X152074Y-26869D01*
X152166Y-26945D01*
X152253Y-27026D01*
X152288Y-27046D01*
X152319Y-27071D01*
X152427Y-27122D01*
X152531Y-27180D01*
X152571Y-27190D01*
X152607Y-27207D01*
X152724Y-27229D01*
X152839Y-27259D01*
X152900Y-27263D01*
X152920Y-27267D01*
X152940Y-27265D01*
X153000Y-27269D01*
X181000Y-27269D01*
X181118Y-27254D01*
G37*
G36*
X104618Y-28254D02*
X104618Y-28254D01*
X104737Y-28247D01*
X104775Y-28234D01*
X104816Y-28229D01*
X104926Y-28186D01*
X105039Y-28149D01*
X105074Y-28127D01*
X105111Y-28112D01*
X105207Y-28043D01*
X105308Y-27979D01*
X105336Y-27949D01*
X105369Y-27926D01*
X105445Y-27834D01*
X105526Y-27747D01*
X105546Y-27712D01*
X105571Y-27681D01*
X105622Y-27573D01*
X105680Y-27469D01*
X105690Y-27429D01*
X105707Y-27393D01*
X105729Y-27276D01*
X105759Y-27161D01*
X105763Y-27101D01*
X105767Y-27081D01*
X105765Y-27060D01*
X105769Y-27000D01*
X105769Y-5000D01*
X105754Y-4882D01*
X105747Y-4763D01*
X105734Y-4725D01*
X105729Y-4684D01*
X105686Y-4574D01*
X105649Y-4461D01*
X105627Y-4426D01*
X105612Y-4389D01*
X105543Y-4293D01*
X105479Y-4192D01*
X105449Y-4164D01*
X105426Y-4131D01*
X105334Y-4056D01*
X105247Y-3974D01*
X105212Y-3954D01*
X105181Y-3929D01*
X105073Y-3878D01*
X104969Y-3820D01*
X104929Y-3810D01*
X104893Y-3793D01*
X104776Y-3771D01*
X104661Y-3741D01*
X104601Y-3737D01*
X104581Y-3733D01*
X104560Y-3735D01*
X104500Y-3731D01*
X76500Y-3731D01*
X76382Y-3746D01*
X76263Y-3753D01*
X76225Y-3766D01*
X76184Y-3771D01*
X76074Y-3814D01*
X75961Y-3851D01*
X75926Y-3873D01*
X75889Y-3888D01*
X75793Y-3958D01*
X75692Y-4021D01*
X75664Y-4051D01*
X75631Y-4074D01*
X75556Y-4166D01*
X75474Y-4253D01*
X75454Y-4288D01*
X75429Y-4319D01*
X75378Y-4427D01*
X75320Y-4531D01*
X75310Y-4571D01*
X75293Y-4607D01*
X75271Y-4724D01*
X75241Y-4839D01*
X75237Y-4900D01*
X75233Y-4920D01*
X75235Y-4940D01*
X75231Y-5000D01*
X75231Y-27000D01*
X75246Y-27118D01*
X75253Y-27237D01*
X75266Y-27275D01*
X75271Y-27316D01*
X75314Y-27426D01*
X75351Y-27539D01*
X75373Y-27574D01*
X75388Y-27611D01*
X75458Y-27707D01*
X75521Y-27808D01*
X75551Y-27836D01*
X75574Y-27869D01*
X75666Y-27945D01*
X75753Y-28026D01*
X75788Y-28046D01*
X75819Y-28071D01*
X75927Y-28122D01*
X76031Y-28180D01*
X76071Y-28190D01*
X76107Y-28207D01*
X76224Y-28229D01*
X76339Y-28259D01*
X76400Y-28263D01*
X76420Y-28267D01*
X76440Y-28265D01*
X76500Y-28269D01*
X104500Y-28269D01*
X104618Y-28254D01*
G37*
G36*
X253926Y48746D02*
X253926Y48746D01*
X254045Y48753D01*
X254083Y48766D01*
X254124Y48771D01*
X254234Y48814D01*
X254347Y48851D01*
X254382Y48873D01*
X254419Y48888D01*
X254515Y48958D01*
X254616Y49021D01*
X254644Y49051D01*
X254677Y49074D01*
X254753Y49166D01*
X254834Y49253D01*
X254854Y49288D01*
X254879Y49319D01*
X254930Y49427D01*
X254988Y49531D01*
X254998Y49571D01*
X255015Y49607D01*
X255037Y49724D01*
X255067Y49839D01*
X255071Y49900D01*
X255075Y49920D01*
X255073Y49940D01*
X255077Y50000D01*
X255077Y77192D01*
X255065Y77290D01*
X255062Y77389D01*
X255045Y77447D01*
X255037Y77508D01*
X255001Y77600D01*
X254973Y77695D01*
X254943Y77747D01*
X254920Y77803D01*
X254862Y77883D01*
X254812Y77969D01*
X254746Y78044D01*
X254734Y78061D01*
X254724Y78068D01*
X254706Y78089D01*
X254249Y78546D01*
X254171Y78606D01*
X254099Y78674D01*
X254046Y78703D01*
X253998Y78740D01*
X253907Y78780D01*
X253821Y78828D01*
X253762Y78843D01*
X253706Y78867D01*
X253608Y78882D01*
X253513Y78907D01*
X253413Y78913D01*
X253392Y78917D01*
X253380Y78915D01*
X253352Y78917D01*
X246539Y78917D01*
X246539Y80500D01*
X246524Y80618D01*
X246517Y80737D01*
X246504Y80775D01*
X246499Y80816D01*
X246455Y80926D01*
X246419Y81039D01*
X246397Y81074D01*
X246382Y81111D01*
X246312Y81207D01*
X246249Y81308D01*
X246219Y81336D01*
X246195Y81369D01*
X246104Y81445D01*
X246017Y81526D01*
X245982Y81546D01*
X245950Y81571D01*
X245843Y81622D01*
X245739Y81680D01*
X245699Y81690D01*
X245663Y81707D01*
X245546Y81729D01*
X245431Y81759D01*
X245370Y81763D01*
X245350Y81767D01*
X245330Y81765D01*
X245270Y81769D01*
X242730Y81769D01*
X242612Y81754D01*
X242493Y81747D01*
X242455Y81734D01*
X242415Y81729D01*
X242304Y81686D01*
X242191Y81649D01*
X242156Y81627D01*
X242119Y81612D01*
X242023Y81543D01*
X241922Y81479D01*
X241894Y81449D01*
X241861Y81426D01*
X241786Y81334D01*
X241704Y81247D01*
X241684Y81212D01*
X241659Y81181D01*
X241608Y81073D01*
X241550Y80969D01*
X241540Y80929D01*
X241523Y80893D01*
X241501Y80776D01*
X241471Y80661D01*
X241467Y80601D01*
X241463Y80581D01*
X241465Y80560D01*
X241464Y80544D01*
X241463Y80543D01*
X241463Y80541D01*
X241461Y80500D01*
X241461Y78917D01*
X234500Y78917D01*
X234382Y78902D01*
X234263Y78895D01*
X234225Y78882D01*
X234184Y78877D01*
X234074Y78834D01*
X233961Y78797D01*
X233926Y78775D01*
X233889Y78760D01*
X233793Y78691D01*
X233692Y78627D01*
X233664Y78597D01*
X233631Y78574D01*
X233556Y78482D01*
X233474Y78395D01*
X233454Y78360D01*
X233429Y78329D01*
X233378Y78221D01*
X233320Y78117D01*
X233310Y78077D01*
X233293Y78041D01*
X233271Y77924D01*
X233241Y77809D01*
X233237Y77749D01*
X233233Y77729D01*
X233235Y77708D01*
X233231Y77648D01*
X233231Y50000D01*
X233246Y49882D01*
X233253Y49763D01*
X233266Y49725D01*
X233271Y49684D01*
X233314Y49574D01*
X233351Y49461D01*
X233373Y49426D01*
X233388Y49389D01*
X233458Y49293D01*
X233521Y49192D01*
X233551Y49164D01*
X233574Y49131D01*
X233666Y49056D01*
X233753Y48974D01*
X233788Y48954D01*
X233819Y48929D01*
X233927Y48878D01*
X234031Y48820D01*
X234071Y48810D01*
X234107Y48793D01*
X234224Y48771D01*
X234339Y48741D01*
X234400Y48737D01*
X234420Y48733D01*
X234440Y48735D01*
X234500Y48731D01*
X253808Y48731D01*
X253926Y48746D01*
G37*
G36*
X149590Y72751D02*
X149590Y72751D01*
X149642Y72752D01*
X149710Y72777D01*
X149780Y72792D01*
X149824Y72819D01*
X149873Y72837D01*
X149929Y72882D01*
X149991Y72918D01*
X150025Y72958D01*
X150065Y72990D01*
X150104Y73051D01*
X150151Y73105D01*
X150170Y73153D01*
X150198Y73197D01*
X150216Y73267D01*
X150243Y73333D01*
X150251Y73405D01*
X150259Y73436D01*
X150257Y73459D01*
X150261Y73500D01*
X150261Y96500D01*
X150247Y96590D01*
X150239Y96681D01*
X150227Y96711D01*
X150222Y96743D01*
X150179Y96823D01*
X150143Y96907D01*
X150117Y96939D01*
X150106Y96960D01*
X150083Y96982D01*
X150038Y97038D01*
X144124Y102952D01*
X144050Y103005D01*
X143981Y103065D01*
X143951Y103077D01*
X143925Y103096D01*
X143838Y103123D01*
X143753Y103157D01*
X143712Y103161D01*
X143689Y103168D01*
X143657Y103167D01*
X143586Y103175D01*
X139768Y103175D01*
X138875Y104068D01*
X138875Y112386D01*
X138861Y112476D01*
X138853Y112567D01*
X138841Y112597D01*
X138836Y112629D01*
X138793Y112709D01*
X138757Y112793D01*
X138731Y112825D01*
X138720Y112846D01*
X138697Y112868D01*
X138652Y112924D01*
X136761Y114815D01*
X136761Y121000D01*
X136758Y121020D01*
X136760Y121039D01*
X136738Y121141D01*
X136722Y121243D01*
X136712Y121260D01*
X136708Y121280D01*
X136655Y121369D01*
X136606Y121460D01*
X136592Y121474D01*
X136582Y121491D01*
X136503Y121558D01*
X136428Y121630D01*
X136410Y121638D01*
X136395Y121651D01*
X136299Y121690D01*
X136205Y121733D01*
X136185Y121735D01*
X136167Y121743D01*
X136000Y121761D01*
X130000Y121761D01*
X129980Y121758D01*
X129961Y121760D01*
X129859Y121738D01*
X129757Y121722D01*
X129740Y121712D01*
X129720Y121708D01*
X129631Y121655D01*
X129540Y121606D01*
X129526Y121592D01*
X129509Y121582D01*
X129442Y121503D01*
X129371Y121428D01*
X129362Y121410D01*
X129349Y121395D01*
X129310Y121299D01*
X129267Y121205D01*
X129265Y121185D01*
X129257Y121167D01*
X129239Y121000D01*
X129239Y93000D01*
X129254Y92910D01*
X129261Y92819D01*
X129273Y92789D01*
X129279Y92757D01*
X129321Y92677D01*
X129357Y92593D01*
X129383Y92561D01*
X129394Y92540D01*
X129417Y92518D01*
X129462Y92462D01*
X148962Y72962D01*
X149020Y72920D01*
X149072Y72871D01*
X149119Y72849D01*
X149161Y72818D01*
X149230Y72797D01*
X149295Y72767D01*
X149347Y72761D01*
X149397Y72746D01*
X149468Y72748D01*
X149539Y72740D01*
X149590Y72751D01*
G37*
G36*
X107039Y73131D02*
X107039Y73131D01*
X107101Y73133D01*
X107123Y73146D01*
X107149Y73150D01*
X107220Y73198D01*
X107253Y73216D01*
X107259Y73224D01*
X107269Y73231D01*
X126269Y92231D01*
X126298Y92279D01*
X126302Y92282D01*
X126308Y92293D01*
X126309Y92296D01*
X126353Y92358D01*
X126355Y92370D01*
X126360Y92378D01*
X126364Y92415D01*
X126365Y92422D01*
X126373Y92440D01*
X126373Y92460D01*
X126380Y92500D01*
X126380Y121500D01*
X126369Y121550D01*
X126367Y121601D01*
X126349Y121633D01*
X126341Y121669D01*
X126308Y121708D01*
X126284Y121753D01*
X126254Y121774D01*
X126231Y121802D01*
X126184Y121823D01*
X126142Y121853D01*
X126100Y121861D01*
X126072Y121873D01*
X126042Y121872D01*
X126000Y121880D01*
X120000Y121880D01*
X119950Y121869D01*
X119899Y121867D01*
X119867Y121849D01*
X119831Y121841D01*
X119792Y121808D01*
X119747Y121784D01*
X119726Y121754D01*
X119698Y121731D01*
X119677Y121684D01*
X119647Y121642D01*
X119639Y121600D01*
X119627Y121572D01*
X119628Y121542D01*
X119620Y121500D01*
X119620Y114658D01*
X117536Y112574D01*
X117496Y112509D01*
X117452Y112447D01*
X117450Y112435D01*
X117445Y112427D01*
X117441Y112390D01*
X117438Y112371D01*
X117432Y112358D01*
X117432Y112344D01*
X117425Y112305D01*
X117425Y105168D01*
X116532Y104275D01*
X113895Y104275D01*
X113821Y104258D01*
X113746Y104245D01*
X113736Y104238D01*
X113726Y104236D01*
X113697Y104212D01*
X113626Y104164D01*
X106731Y97269D01*
X106691Y97204D01*
X106647Y97142D01*
X106645Y97130D01*
X106640Y97122D01*
X106636Y97085D01*
X106620Y97000D01*
X106620Y73500D01*
X106626Y73475D01*
X106623Y73449D01*
X106645Y73392D01*
X106659Y73331D01*
X106676Y73311D01*
X106685Y73287D01*
X106730Y73245D01*
X106769Y73198D01*
X106793Y73187D01*
X106812Y73170D01*
X106871Y73152D01*
X106928Y73127D01*
X106953Y73128D01*
X106978Y73120D01*
X107039Y73131D01*
G37*
%LPC*%
G36*
X153750Y158134D02*
X153750Y158134D01*
X147459Y158134D01*
X147459Y159035D01*
X147632Y159681D01*
X147967Y160260D01*
X148289Y160583D01*
X148314Y160617D01*
X148345Y160646D01*
X148377Y160709D01*
X148418Y160767D01*
X148428Y160808D01*
X148448Y160846D01*
X148461Y160935D01*
X148474Y160984D01*
X148471Y161005D01*
X148475Y161031D01*
X148475Y164332D01*
X149368Y165225D01*
X156478Y165225D01*
X156520Y165232D01*
X156562Y165230D01*
X156629Y165252D01*
X156699Y165264D01*
X156735Y165286D01*
X156776Y165299D01*
X156849Y165353D01*
X156892Y165379D01*
X156905Y165395D01*
X156927Y165411D01*
X159981Y168465D01*
X160019Y168519D01*
X160064Y168567D01*
X160083Y168611D01*
X160109Y168650D01*
X160126Y168713D01*
X160152Y168774D01*
X160154Y168821D01*
X160165Y168867D01*
X160159Y168932D01*
X160162Y168998D01*
X160147Y169043D01*
X160142Y169090D01*
X160113Y169149D01*
X160093Y169212D01*
X160060Y169256D01*
X160043Y169291D01*
X160014Y169318D01*
X159981Y169362D01*
X159575Y169768D01*
X159575Y182032D01*
X160468Y182925D01*
X171732Y182925D01*
X172625Y182032D01*
X172625Y169768D01*
X171732Y168875D01*
X167122Y168875D01*
X167080Y168868D01*
X167038Y168870D01*
X166971Y168848D01*
X166901Y168836D01*
X166865Y168814D01*
X166824Y168801D01*
X166751Y168747D01*
X166708Y168721D01*
X166695Y168705D01*
X166673Y168689D01*
X159723Y161739D01*
X159337Y161353D01*
X159299Y161299D01*
X159254Y161251D01*
X159236Y161208D01*
X159209Y161169D01*
X159193Y161105D01*
X159167Y161045D01*
X159165Y160997D01*
X159153Y160952D01*
X159160Y160886D01*
X159157Y160820D01*
X159171Y160776D01*
X159176Y160728D01*
X159205Y160669D01*
X159225Y160607D01*
X159258Y160563D01*
X159276Y160527D01*
X159304Y160500D01*
X159337Y160456D01*
X159533Y160260D01*
X159868Y159681D01*
X160041Y159035D01*
X160041Y158134D01*
X153750Y158134D01*
X153750Y158134D01*
G37*
%LPD*%
G36*
X164857Y99052D02*
X164857Y99052D01*
X164900Y99050D01*
X164967Y99072D01*
X164971Y99073D01*
X168999Y99073D01*
X168999Y99072D01*
X169089Y99059D01*
X169137Y99046D01*
X169158Y99049D01*
X169185Y99045D01*
X173079Y99045D01*
X173144Y99056D01*
X173210Y99058D01*
X173253Y99076D01*
X173300Y99084D01*
X173357Y99118D01*
X173417Y99143D01*
X173452Y99174D01*
X173493Y99198D01*
X173535Y99250D01*
X173583Y99294D01*
X173605Y99336D01*
X173634Y99373D01*
X173655Y99435D01*
X173686Y99494D01*
X173694Y99548D01*
X173706Y99585D01*
X173705Y99625D01*
X173713Y99679D01*
X173713Y102441D01*
X173702Y102506D01*
X173700Y102572D01*
X173682Y102615D01*
X173674Y102662D01*
X173640Y102719D01*
X173615Y102779D01*
X173584Y102814D01*
X173559Y102855D01*
X173508Y102897D01*
X173464Y102945D01*
X173422Y102967D01*
X173385Y102996D01*
X173323Y103017D01*
X173264Y103048D01*
X173210Y103056D01*
X173173Y103068D01*
X173133Y103067D01*
X173079Y103075D01*
X172368Y103075D01*
X171702Y103741D01*
X171673Y103762D01*
X171649Y103789D01*
X171581Y103826D01*
X171518Y103870D01*
X171483Y103879D01*
X171451Y103896D01*
X171375Y103906D01*
X171301Y103925D01*
X171265Y103922D01*
X171229Y103927D01*
X171154Y103910D01*
X171078Y103902D01*
X171045Y103886D01*
X171010Y103878D01*
X170945Y103837D01*
X170877Y103803D01*
X170852Y103776D01*
X170821Y103757D01*
X170757Y103676D01*
X170723Y103640D01*
X170717Y103625D01*
X170705Y103610D01*
X170433Y103140D01*
X169960Y102667D01*
X169381Y102332D01*
X168735Y102159D01*
X164169Y102159D01*
X164169Y109065D01*
X164158Y109130D01*
X164156Y109195D01*
X164138Y109239D01*
X164129Y109286D01*
X164096Y109342D01*
X164071Y109403D01*
X164039Y109438D01*
X164015Y109479D01*
X163964Y109520D01*
X163920Y109569D01*
X163878Y109591D01*
X163841Y109620D01*
X163779Y109641D01*
X163720Y109671D01*
X163666Y109680D01*
X163629Y109692D01*
X163589Y109691D01*
X163535Y109699D01*
X162899Y109699D01*
X162899Y109701D01*
X163535Y109701D01*
X163600Y109713D01*
X163665Y109714D01*
X163709Y109732D01*
X163756Y109741D01*
X163813Y109774D01*
X163873Y109799D01*
X163908Y109831D01*
X163949Y109855D01*
X163990Y109906D01*
X164039Y109950D01*
X164061Y109992D01*
X164090Y110029D01*
X164111Y110091D01*
X164141Y110150D01*
X164150Y110204D01*
X164162Y110241D01*
X164161Y110281D01*
X164169Y110335D01*
X164169Y117241D01*
X168735Y117241D01*
X169381Y117068D01*
X169746Y116857D01*
X169774Y116846D01*
X169799Y116829D01*
X169879Y116809D01*
X169957Y116781D01*
X169987Y116781D01*
X170016Y116773D01*
X170099Y116782D01*
X170182Y116783D01*
X170210Y116793D01*
X170239Y116797D01*
X170314Y116833D01*
X170391Y116863D01*
X170414Y116883D01*
X170441Y116896D01*
X170497Y116956D01*
X170560Y117011D01*
X170574Y117037D01*
X170594Y117059D01*
X170627Y117136D01*
X170666Y117209D01*
X170670Y117238D01*
X170682Y117266D01*
X170686Y117349D01*
X170697Y117431D01*
X170691Y117460D01*
X170692Y117490D01*
X170667Y117569D01*
X170649Y117650D01*
X170632Y117675D01*
X170623Y117704D01*
X170552Y117801D01*
X170527Y117838D01*
X170518Y117845D01*
X170512Y117854D01*
X164739Y123627D01*
X164704Y123652D01*
X164675Y123683D01*
X164612Y123715D01*
X164554Y123756D01*
X164513Y123766D01*
X164475Y123786D01*
X164386Y123799D01*
X164337Y123812D01*
X164316Y123809D01*
X164290Y123813D01*
X157535Y123813D01*
X157447Y123798D01*
X157359Y123788D01*
X157337Y123778D01*
X157314Y123774D01*
X157237Y123728D01*
X157158Y123689D01*
X157141Y123672D01*
X157121Y123659D01*
X157065Y123590D01*
X157004Y123526D01*
X156994Y123504D01*
X156979Y123485D01*
X156951Y123401D01*
X156916Y123319D01*
X156915Y123295D01*
X156908Y123273D01*
X156910Y123184D01*
X156906Y123095D01*
X156913Y123072D01*
X156914Y123048D01*
X156948Y122966D01*
X156975Y122881D01*
X156991Y122860D01*
X156998Y122841D01*
X157032Y122803D01*
X157086Y122731D01*
X157719Y122098D01*
X157719Y117875D01*
X157730Y117810D01*
X157732Y117744D01*
X157750Y117701D01*
X157758Y117654D01*
X157792Y117597D01*
X157817Y117537D01*
X157848Y117502D01*
X157873Y117461D01*
X157924Y117419D01*
X157968Y117371D01*
X158010Y117349D01*
X158047Y117320D01*
X158109Y117299D01*
X158168Y117268D01*
X158222Y117260D01*
X158259Y117248D01*
X158299Y117249D01*
X158353Y117241D01*
X161631Y117241D01*
X161631Y110969D01*
X154859Y110969D01*
X154859Y112098D01*
X154843Y112186D01*
X154834Y112274D01*
X154824Y112295D01*
X154820Y112319D01*
X154774Y112396D01*
X154735Y112475D01*
X154718Y112492D01*
X154705Y112512D01*
X154636Y112568D01*
X154572Y112629D01*
X154550Y112639D01*
X154531Y112653D01*
X154447Y112682D01*
X154365Y112717D01*
X154341Y112718D01*
X154319Y112725D01*
X154230Y112723D01*
X154141Y112727D01*
X154118Y112719D01*
X154094Y112719D01*
X154012Y112685D01*
X153927Y112658D01*
X153906Y112642D01*
X153887Y112634D01*
X153849Y112600D01*
X153777Y112547D01*
X153111Y111881D01*
X153086Y111846D01*
X153055Y111817D01*
X153023Y111754D01*
X152982Y111696D01*
X152972Y111655D01*
X152952Y111617D01*
X152939Y111528D01*
X152926Y111479D01*
X152929Y111458D01*
X152925Y111432D01*
X152925Y104068D01*
X152032Y103175D01*
X147590Y103175D01*
X147502Y103159D01*
X147414Y103150D01*
X147392Y103140D01*
X147369Y103136D01*
X147292Y103090D01*
X147213Y103051D01*
X147196Y103034D01*
X147176Y103021D01*
X147120Y102952D01*
X147059Y102888D01*
X147049Y102866D01*
X147034Y102847D01*
X147006Y102763D01*
X146971Y102681D01*
X146970Y102657D01*
X146963Y102635D01*
X146965Y102546D01*
X146961Y102457D01*
X146969Y102434D01*
X146969Y102410D01*
X147003Y102328D01*
X147030Y102243D01*
X147046Y102222D01*
X147053Y102203D01*
X147087Y102165D01*
X147141Y102093D01*
X150003Y99230D01*
X150038Y99206D01*
X150067Y99175D01*
X150130Y99143D01*
X150188Y99102D01*
X150229Y99092D01*
X150267Y99072D01*
X150356Y99059D01*
X150405Y99046D01*
X150426Y99049D01*
X150452Y99045D01*
X164815Y99045D01*
X164857Y99052D01*
G37*
%LPC*%
G36*
X131134Y164459D02*
X131134Y164459D01*
X131134Y170750D01*
X131134Y177041D01*
X132035Y177041D01*
X132415Y176939D01*
X132451Y176936D01*
X132485Y176924D01*
X132562Y176926D01*
X132638Y176920D01*
X132673Y176930D01*
X132710Y176931D01*
X132781Y176960D01*
X132855Y176980D01*
X132884Y177001D01*
X132917Y177015D01*
X132974Y177067D01*
X133036Y177112D01*
X133056Y177142D01*
X133083Y177166D01*
X133118Y177235D01*
X133161Y177298D01*
X133169Y177334D01*
X133186Y177366D01*
X133201Y177468D01*
X133212Y177517D01*
X133210Y177532D01*
X133213Y177551D01*
X133213Y179741D01*
X133202Y179806D01*
X133200Y179872D01*
X133182Y179915D01*
X133174Y179962D01*
X133140Y180019D01*
X133115Y180079D01*
X133084Y180114D01*
X133059Y180155D01*
X133008Y180197D01*
X132964Y180245D01*
X132922Y180267D01*
X132885Y180296D01*
X132823Y180317D01*
X132764Y180348D01*
X132710Y180356D01*
X132673Y180368D01*
X132633Y180367D01*
X132579Y180375D01*
X128268Y180375D01*
X127375Y181268D01*
X127375Y189532D01*
X128268Y190425D01*
X138532Y190425D01*
X139425Y189532D01*
X139425Y181268D01*
X138532Y180375D01*
X138421Y180375D01*
X138356Y180364D01*
X138290Y180362D01*
X138247Y180344D01*
X138200Y180336D01*
X138143Y180302D01*
X138083Y180277D01*
X138048Y180246D01*
X138007Y180221D01*
X137965Y180170D01*
X137917Y180126D01*
X137895Y180084D01*
X137866Y180047D01*
X137845Y179985D01*
X137814Y179926D01*
X137806Y179872D01*
X137794Y179835D01*
X137795Y179795D01*
X137787Y179741D01*
X137787Y177551D01*
X137793Y177516D01*
X137791Y177480D01*
X137813Y177406D01*
X137826Y177331D01*
X137845Y177299D01*
X137855Y177265D01*
X137901Y177204D01*
X137941Y177137D01*
X137969Y177115D01*
X137990Y177086D01*
X138055Y177044D01*
X138115Y176996D01*
X138149Y176984D01*
X138180Y176965D01*
X138255Y176949D01*
X138327Y176924D01*
X138363Y176925D01*
X138399Y176918D01*
X138502Y176929D01*
X138552Y176931D01*
X138566Y176937D01*
X138585Y176939D01*
X138965Y177041D01*
X139866Y177041D01*
X139866Y170750D01*
X139866Y164459D01*
X138965Y164459D01*
X138319Y164632D01*
X137740Y164967D01*
X137417Y165289D01*
X137383Y165314D01*
X137354Y165345D01*
X137291Y165377D01*
X137233Y165418D01*
X137192Y165428D01*
X137154Y165448D01*
X137065Y165461D01*
X137016Y165474D01*
X136995Y165471D01*
X136969Y165475D01*
X134031Y165475D01*
X133989Y165468D01*
X133947Y165470D01*
X133880Y165448D01*
X133810Y165436D01*
X133774Y165414D01*
X133733Y165401D01*
X133660Y165347D01*
X133617Y165321D01*
X133604Y165305D01*
X133583Y165289D01*
X133260Y164967D01*
X132681Y164632D01*
X132035Y164459D01*
X131134Y164459D01*
G37*
%LPD*%
%LPC*%
G36*
X141134Y164459D02*
X141134Y164459D01*
X141134Y170750D01*
X141134Y177041D01*
X142035Y177041D01*
X142415Y176939D01*
X142451Y176936D01*
X142485Y176924D01*
X142562Y176926D01*
X142638Y176920D01*
X142673Y176930D01*
X142710Y176931D01*
X142780Y176960D01*
X142855Y176980D01*
X142884Y177002D01*
X142917Y177015D01*
X142974Y177067D01*
X143036Y177112D01*
X143056Y177142D01*
X143083Y177166D01*
X143118Y177235D01*
X143161Y177299D01*
X143169Y177334D01*
X143186Y177366D01*
X143201Y177468D01*
X143212Y177517D01*
X143210Y177532D01*
X143213Y177551D01*
X143213Y180868D01*
X143206Y180910D01*
X143208Y180952D01*
X143186Y181019D01*
X143174Y181089D01*
X143152Y181125D01*
X143139Y181166D01*
X143085Y181238D01*
X143059Y181282D01*
X143043Y181295D01*
X143027Y181316D01*
X142975Y181368D01*
X142975Y188632D01*
X143224Y188881D01*
X143245Y188911D01*
X143272Y188934D01*
X143309Y189002D01*
X143353Y189065D01*
X143362Y189100D01*
X143379Y189132D01*
X143389Y189208D01*
X143408Y189282D01*
X143405Y189318D01*
X143410Y189354D01*
X143393Y189429D01*
X143385Y189505D01*
X143369Y189538D01*
X143361Y189573D01*
X143320Y189638D01*
X143286Y189707D01*
X143259Y189731D01*
X143240Y189762D01*
X143159Y189826D01*
X143123Y189860D01*
X143108Y189867D01*
X143093Y189879D01*
X142940Y189967D01*
X142467Y190440D01*
X142132Y191019D01*
X141959Y191665D01*
X141959Y193731D01*
X146865Y193731D01*
X146930Y193742D01*
X146995Y193744D01*
X147039Y193762D01*
X147086Y193770D01*
X147142Y193804D01*
X147203Y193829D01*
X147238Y193861D01*
X147279Y193885D01*
X147320Y193936D01*
X147369Y193980D01*
X147391Y194022D01*
X147420Y194059D01*
X147441Y194121D01*
X147471Y194180D01*
X147480Y194234D01*
X147492Y194271D01*
X147491Y194311D01*
X147499Y194365D01*
X147499Y195001D01*
X147501Y195001D01*
X147501Y194365D01*
X147513Y194300D01*
X147514Y194235D01*
X147532Y194191D01*
X147541Y194144D01*
X147574Y194087D01*
X147599Y194027D01*
X147631Y193992D01*
X147655Y193951D01*
X147706Y193910D01*
X147750Y193861D01*
X147792Y193839D01*
X147829Y193810D01*
X147891Y193789D01*
X147950Y193758D01*
X148004Y193750D01*
X148041Y193738D01*
X148081Y193739D01*
X148135Y193731D01*
X153041Y193731D01*
X153041Y191665D01*
X152868Y191019D01*
X152533Y190440D01*
X152060Y189967D01*
X151907Y189879D01*
X151879Y189855D01*
X151847Y189839D01*
X151794Y189783D01*
X151736Y189734D01*
X151718Y189702D01*
X151693Y189676D01*
X151663Y189605D01*
X151625Y189538D01*
X151620Y189503D01*
X151605Y189469D01*
X151602Y189393D01*
X151590Y189317D01*
X151597Y189281D01*
X151595Y189245D01*
X151619Y189172D01*
X151634Y189097D01*
X151653Y189066D01*
X151664Y189031D01*
X151725Y188948D01*
X151752Y188906D01*
X151764Y188896D01*
X151776Y188881D01*
X152025Y188632D01*
X152025Y181368D01*
X151132Y180475D01*
X148421Y180475D01*
X148356Y180464D01*
X148290Y180462D01*
X148247Y180444D01*
X148200Y180436D01*
X148143Y180402D01*
X148083Y180377D01*
X148048Y180346D01*
X148007Y180321D01*
X147965Y180270D01*
X147917Y180226D01*
X147895Y180184D01*
X147866Y180147D01*
X147845Y180085D01*
X147814Y180026D01*
X147806Y179972D01*
X147794Y179935D01*
X147795Y179895D01*
X147787Y179841D01*
X147787Y175832D01*
X147794Y175790D01*
X147792Y175748D01*
X147814Y175681D01*
X147826Y175611D01*
X147848Y175575D01*
X147861Y175534D01*
X147915Y175462D01*
X147941Y175418D01*
X147957Y175405D01*
X147973Y175384D01*
X148225Y175132D01*
X148225Y166368D01*
X147332Y165475D01*
X144031Y165475D01*
X143989Y165468D01*
X143947Y165470D01*
X143880Y165448D01*
X143810Y165436D01*
X143774Y165414D01*
X143733Y165401D01*
X143661Y165347D01*
X143617Y165321D01*
X143604Y165305D01*
X143583Y165289D01*
X143260Y164967D01*
X142681Y164632D01*
X142035Y164459D01*
X141134Y164459D01*
G37*
%LPD*%
%LPC*%
G36*
X131769Y148769D02*
X131769Y148769D01*
X131769Y163041D01*
X143835Y163041D01*
X144481Y162868D01*
X145060Y162533D01*
X145533Y162060D01*
X145868Y161481D01*
X146041Y160835D01*
X146041Y148769D01*
X131769Y148769D01*
G37*
%LPD*%
%LPC*%
G36*
X114959Y148769D02*
X114959Y148769D01*
X114959Y160835D01*
X115132Y161481D01*
X115467Y162060D01*
X115940Y162533D01*
X116519Y162868D01*
X117165Y163041D01*
X129231Y163041D01*
X129231Y148769D01*
X114959Y148769D01*
G37*
%LPD*%
%LPC*%
G36*
X131769Y131959D02*
X131769Y131959D01*
X131769Y146231D01*
X146041Y146231D01*
X146041Y134165D01*
X145868Y133519D01*
X145533Y132940D01*
X145060Y132467D01*
X144481Y132132D01*
X143835Y131959D01*
X131769Y131959D01*
G37*
%LPD*%
%LPC*%
G36*
X117165Y131959D02*
X117165Y131959D01*
X116519Y132132D01*
X115940Y132467D01*
X115467Y132940D01*
X115132Y133519D01*
X114959Y134165D01*
X114959Y146231D01*
X129231Y146231D01*
X129231Y131959D01*
X117165Y131959D01*
G37*
%LPD*%
%LPC*%
G36*
X167369Y194169D02*
X167369Y194169D01*
X167369Y200941D01*
X171435Y200941D01*
X172081Y200768D01*
X172660Y200433D01*
X173133Y199960D01*
X173468Y199381D01*
X173641Y198735D01*
X173641Y194169D01*
X167369Y194169D01*
G37*
%LPD*%
%LPC*%
G36*
X94669Y112069D02*
X94669Y112069D01*
X94669Y118341D01*
X99235Y118341D01*
X99881Y118168D01*
X100460Y117833D01*
X100933Y117360D01*
X101268Y116781D01*
X101441Y116135D01*
X101441Y112069D01*
X94669Y112069D01*
G37*
%LPD*%
%LPC*%
G36*
X158559Y194169D02*
X158559Y194169D01*
X158559Y198735D01*
X158732Y199381D01*
X159067Y199960D01*
X159540Y200433D01*
X160119Y200768D01*
X160765Y200941D01*
X164831Y200941D01*
X164831Y194169D01*
X158559Y194169D01*
G37*
%LPD*%
%LPC*%
G36*
X94669Y103259D02*
X94669Y103259D01*
X94669Y109531D01*
X101441Y109531D01*
X101441Y105465D01*
X101268Y104819D01*
X100933Y104240D01*
X100460Y103767D01*
X99881Y103432D01*
X99235Y103259D01*
X94669Y103259D01*
G37*
%LPD*%
%LPC*%
G36*
X167369Y184859D02*
X167369Y184859D01*
X167369Y191631D01*
X173641Y191631D01*
X173641Y187065D01*
X173468Y186419D01*
X173133Y185840D01*
X172660Y185367D01*
X172081Y185032D01*
X171435Y184859D01*
X167369Y184859D01*
G37*
%LPD*%
%LPC*%
G36*
X157065Y102159D02*
X157065Y102159D01*
X156419Y102332D01*
X155840Y102667D01*
X155367Y103140D01*
X155032Y103719D01*
X154859Y104365D01*
X154859Y108431D01*
X161631Y108431D01*
X161631Y102159D01*
X157065Y102159D01*
G37*
%LPD*%
%LPC*%
G36*
X160765Y184859D02*
X160765Y184859D01*
X160119Y185032D01*
X159540Y185367D01*
X159067Y185840D01*
X158732Y186419D01*
X158559Y187065D01*
X158559Y191631D01*
X164831Y191631D01*
X164831Y184859D01*
X160765Y184859D01*
G37*
%LPD*%
%LPC*%
G36*
X183359Y133969D02*
X183359Y133969D01*
X183359Y137535D01*
X183532Y138181D01*
X183784Y138617D01*
X183809Y138685D01*
X183841Y138749D01*
X183848Y138795D01*
X183860Y138828D01*
X183860Y138871D01*
X183869Y138934D01*
X183869Y141431D01*
X188141Y141431D01*
X188141Y139311D01*
X188131Y139245D01*
X188131Y133969D01*
X183359Y133969D01*
G37*
%LPD*%
%LPC*%
G36*
X195669Y7969D02*
X195669Y7969D01*
X195669Y13741D01*
X198985Y13741D01*
X199631Y13568D01*
X200210Y13233D01*
X200683Y12760D01*
X201018Y12181D01*
X201191Y11535D01*
X201191Y7969D01*
X195669Y7969D01*
G37*
%LPD*%
%LPC*%
G36*
X52509Y7369D02*
X52509Y7369D01*
X52509Y10935D01*
X52682Y11581D01*
X53017Y12160D01*
X53490Y12633D01*
X54069Y12968D01*
X54715Y13141D01*
X58031Y13141D01*
X58031Y7369D01*
X52509Y7369D01*
G37*
%LPD*%
%LPC*%
G36*
X195669Y-341D02*
X195669Y-341D01*
X195669Y5431D01*
X201191Y5431D01*
X201191Y1865D01*
X201018Y1219D01*
X200683Y640D01*
X200210Y167D01*
X199631Y-168D01*
X198985Y-341D01*
X195669Y-341D01*
G37*
%LPD*%
%LPC*%
G36*
X54715Y-941D02*
X54715Y-941D01*
X54069Y-768D01*
X53490Y-433D01*
X53017Y40D01*
X52682Y619D01*
X52509Y1265D01*
X52509Y4831D01*
X58031Y4831D01*
X58031Y-941D01*
X54715Y-941D01*
G37*
%LPD*%
%LPC*%
G36*
X190669Y133969D02*
X190669Y133969D01*
X190669Y139741D01*
X193235Y139741D01*
X193881Y139568D01*
X194460Y139233D01*
X194933Y138760D01*
X195268Y138181D01*
X195441Y137535D01*
X195441Y133969D01*
X190669Y133969D01*
G37*
%LPD*%
%LPC*%
G36*
X41869Y152269D02*
X41869Y152269D01*
X41869Y158041D01*
X44435Y158041D01*
X45081Y157868D01*
X45660Y157533D01*
X46133Y157060D01*
X46468Y156481D01*
X46641Y155835D01*
X46641Y152269D01*
X41869Y152269D01*
G37*
%LPD*%
%LPC*%
G36*
X134669Y199669D02*
X134669Y199669D01*
X134669Y204441D01*
X138235Y204441D01*
X138881Y204268D01*
X139460Y203933D01*
X139933Y203460D01*
X140268Y202881D01*
X140441Y202235D01*
X140441Y199669D01*
X134669Y199669D01*
G37*
%LPD*%
%LPC*%
G36*
X105369Y199169D02*
X105369Y199169D01*
X105369Y203941D01*
X108935Y203941D01*
X109581Y203768D01*
X110160Y203433D01*
X110633Y202960D01*
X110968Y202381D01*
X111141Y201735D01*
X111141Y199169D01*
X105369Y199169D01*
G37*
%LPD*%
%LPC*%
G36*
X45669Y111469D02*
X45669Y111469D01*
X45669Y116241D01*
X49235Y116241D01*
X49881Y116068D01*
X50460Y115733D01*
X50933Y115260D01*
X51268Y114681D01*
X51441Y114035D01*
X51441Y111469D01*
X45669Y111469D01*
G37*
%LPD*%
%LPC*%
G36*
X37359Y111469D02*
X37359Y111469D01*
X37359Y114035D01*
X37532Y114681D01*
X37867Y115260D01*
X38340Y115733D01*
X38919Y116068D01*
X39565Y116241D01*
X43131Y116241D01*
X43131Y111469D01*
X37359Y111469D01*
G37*
%LPD*%
%LPC*%
G36*
X126359Y199669D02*
X126359Y199669D01*
X126359Y202235D01*
X126532Y202881D01*
X126867Y203460D01*
X127340Y203933D01*
X127919Y204268D01*
X128565Y204441D01*
X132131Y204441D01*
X132131Y199669D01*
X126359Y199669D01*
G37*
%LPD*%
%LPC*%
G36*
X97059Y199169D02*
X97059Y199169D01*
X97059Y201735D01*
X97232Y202381D01*
X97567Y202960D01*
X98040Y203433D01*
X98619Y203768D01*
X99265Y203941D01*
X102831Y203941D01*
X102831Y199169D01*
X97059Y199169D01*
G37*
%LPD*%
%LPC*%
G36*
X203359Y95569D02*
X203359Y95569D01*
X203359Y98135D01*
X203532Y98781D01*
X203867Y99360D01*
X204340Y99833D01*
X204919Y100168D01*
X205565Y100341D01*
X209131Y100341D01*
X209131Y95569D01*
X203359Y95569D01*
G37*
%LPD*%
%LPC*%
G36*
X134669Y197131D02*
X134669Y197131D01*
X140441Y197131D01*
X140441Y194565D01*
X140268Y193919D01*
X139933Y193340D01*
X139460Y192867D01*
X138881Y192532D01*
X138235Y192359D01*
X134669Y192359D01*
X134669Y197131D01*
G37*
%LPD*%
%LPC*%
G36*
X45669Y108931D02*
X45669Y108931D01*
X51441Y108931D01*
X51441Y106365D01*
X51268Y105719D01*
X50933Y105140D01*
X50460Y104667D01*
X49881Y104332D01*
X49235Y104159D01*
X45669Y104159D01*
X45669Y108931D01*
G37*
%LPD*%
%LPC*%
G36*
X105369Y196631D02*
X105369Y196631D01*
X111141Y196631D01*
X111141Y194065D01*
X110968Y193419D01*
X110633Y192840D01*
X110160Y192367D01*
X109581Y192032D01*
X108935Y191859D01*
X105369Y191859D01*
X105369Y196631D01*
G37*
%LPD*%
%LPC*%
G36*
X41869Y143959D02*
X41869Y143959D01*
X41869Y149731D01*
X46641Y149731D01*
X46641Y146165D01*
X46468Y145519D01*
X46133Y144940D01*
X45660Y144467D01*
X45081Y144132D01*
X44435Y143959D01*
X41869Y143959D01*
G37*
%LPD*%
%LPC*%
G36*
X34559Y152269D02*
X34559Y152269D01*
X34559Y155835D01*
X34732Y156481D01*
X35067Y157060D01*
X35540Y157533D01*
X36119Y157868D01*
X36765Y158041D01*
X39331Y158041D01*
X39331Y152269D01*
X34559Y152269D01*
G37*
%LPD*%
%LPC*%
G36*
X51559Y132169D02*
X51559Y132169D01*
X51559Y135735D01*
X51732Y136381D01*
X52067Y136960D01*
X52540Y137433D01*
X53119Y137768D01*
X53765Y137941D01*
X56331Y137941D01*
X56331Y132169D01*
X51559Y132169D01*
G37*
%LPD*%
%LPC*%
G36*
X210669Y144859D02*
X210669Y144859D01*
X210669Y150631D01*
X215441Y150631D01*
X215441Y147065D01*
X215268Y146419D01*
X214933Y145840D01*
X214460Y145367D01*
X213881Y145032D01*
X213235Y144859D01*
X210669Y144859D01*
G37*
%LPD*%
%LPC*%
G36*
X205565Y144859D02*
X205565Y144859D01*
X204919Y145032D01*
X204340Y145367D01*
X203867Y145840D01*
X203532Y146419D01*
X203359Y147065D01*
X203359Y150631D01*
X208131Y150631D01*
X208131Y144859D01*
X205565Y144859D01*
G37*
%LPD*%
%LPC*%
G36*
X36765Y143959D02*
X36765Y143959D01*
X36119Y144132D01*
X35540Y144467D01*
X35067Y144940D01*
X34732Y145519D01*
X34559Y146165D01*
X34559Y149731D01*
X39331Y149731D01*
X39331Y143959D01*
X36765Y143959D01*
G37*
%LPD*%
%LPC*%
G36*
X99265Y191859D02*
X99265Y191859D01*
X98619Y192032D01*
X98040Y192367D01*
X97567Y192840D01*
X97232Y193419D01*
X97059Y194065D01*
X97059Y196631D01*
X102831Y196631D01*
X102831Y191859D01*
X99265Y191859D01*
G37*
%LPD*%
%LPC*%
G36*
X128565Y192359D02*
X128565Y192359D01*
X127919Y192532D01*
X127340Y192867D01*
X126867Y193340D01*
X126532Y193919D01*
X126359Y194565D01*
X126359Y197131D01*
X132131Y197131D01*
X132131Y192359D01*
X128565Y192359D01*
G37*
%LPD*%
%LPC*%
G36*
X39565Y104159D02*
X39565Y104159D01*
X38919Y104332D01*
X38340Y104667D01*
X37867Y105140D01*
X37532Y105719D01*
X37359Y106365D01*
X37359Y108931D01*
X43131Y108931D01*
X43131Y104159D01*
X39565Y104159D01*
G37*
%LPD*%
%LPC*%
G36*
X205565Y88259D02*
X205565Y88259D01*
X204919Y88432D01*
X204340Y88767D01*
X203867Y89240D01*
X203532Y89819D01*
X203359Y90465D01*
X203359Y93031D01*
X209131Y93031D01*
X209131Y88259D01*
X205565Y88259D01*
G37*
%LPD*%
%LPC*%
G36*
X126134Y171384D02*
X126134Y171384D01*
X126134Y177041D01*
X127035Y177041D01*
X127681Y176868D01*
X127683Y176866D01*
X127695Y176862D01*
X127705Y176854D01*
X127800Y176824D01*
X127894Y176790D01*
X127907Y176790D01*
X127919Y176787D01*
X128019Y176791D01*
X128118Y176792D01*
X128130Y176797D01*
X128143Y176798D01*
X128317Y176866D01*
X128319Y176868D01*
X128965Y177041D01*
X129866Y177041D01*
X129866Y171384D01*
X126134Y171384D01*
G37*
%LPD*%
%LPC*%
G36*
X116134Y171384D02*
X116134Y171384D01*
X116134Y177041D01*
X117035Y177041D01*
X117681Y176868D01*
X117683Y176866D01*
X117695Y176862D01*
X117705Y176854D01*
X117800Y176824D01*
X117894Y176790D01*
X117907Y176790D01*
X117919Y176787D01*
X118019Y176791D01*
X118118Y176792D01*
X118130Y176797D01*
X118143Y176798D01*
X118317Y176866D01*
X118319Y176868D01*
X118965Y177041D01*
X119866Y177041D01*
X119866Y171384D01*
X116134Y171384D01*
G37*
%LPD*%
%LPC*%
G36*
X121134Y171384D02*
X121134Y171384D01*
X121134Y177041D01*
X122035Y177041D01*
X122681Y176868D01*
X122683Y176866D01*
X122695Y176862D01*
X122705Y176854D01*
X122800Y176824D01*
X122894Y176790D01*
X122907Y176790D01*
X122919Y176787D01*
X123019Y176791D01*
X123118Y176792D01*
X123130Y176797D01*
X123143Y176798D01*
X123317Y176866D01*
X123319Y176868D01*
X123965Y177041D01*
X124866Y177041D01*
X124866Y171384D01*
X121134Y171384D01*
G37*
%LPD*%
%LPC*%
G36*
X126134Y164459D02*
X126134Y164459D01*
X126134Y170116D01*
X129866Y170116D01*
X129866Y164459D01*
X128965Y164459D01*
X128319Y164632D01*
X128317Y164634D01*
X128305Y164638D01*
X128295Y164646D01*
X128200Y164676D01*
X128106Y164710D01*
X128093Y164710D01*
X128081Y164713D01*
X127981Y164709D01*
X127882Y164708D01*
X127870Y164703D01*
X127857Y164702D01*
X127683Y164634D01*
X127681Y164632D01*
X127035Y164459D01*
X126134Y164459D01*
G37*
%LPD*%
%LPC*%
G36*
X121134Y164459D02*
X121134Y164459D01*
X121134Y170116D01*
X124866Y170116D01*
X124866Y164459D01*
X123965Y164459D01*
X123319Y164632D01*
X123317Y164634D01*
X123305Y164638D01*
X123295Y164646D01*
X123200Y164676D01*
X123106Y164710D01*
X123094Y164710D01*
X123081Y164713D01*
X122981Y164709D01*
X122882Y164708D01*
X122870Y164703D01*
X122857Y164702D01*
X122683Y164634D01*
X122681Y164632D01*
X122035Y164459D01*
X121134Y164459D01*
G37*
%LPD*%
%LPC*%
G36*
X116134Y164459D02*
X116134Y164459D01*
X116134Y170116D01*
X119866Y170116D01*
X119866Y164459D01*
X118965Y164459D01*
X118319Y164632D01*
X118317Y164634D01*
X118305Y164638D01*
X118295Y164646D01*
X118200Y164676D01*
X118106Y164710D01*
X118094Y164710D01*
X118081Y164713D01*
X117981Y164709D01*
X117882Y164708D01*
X117870Y164703D01*
X117857Y164702D01*
X117683Y164634D01*
X117681Y164632D01*
X117035Y164459D01*
X116134Y164459D01*
G37*
%LPD*%
%LPC*%
G36*
X148769Y196269D02*
X148769Y196269D01*
X148769Y200541D01*
X150835Y200541D01*
X151481Y200368D01*
X152060Y200033D01*
X152533Y199560D01*
X152868Y198981D01*
X153041Y198335D01*
X153041Y196269D01*
X148769Y196269D01*
G37*
%LPD*%
%LPC*%
G36*
X197869Y124069D02*
X197869Y124069D01*
X197869Y128341D01*
X199935Y128341D01*
X200581Y128168D01*
X201160Y127833D01*
X201633Y127360D01*
X201968Y126781D01*
X202141Y126135D01*
X202141Y124069D01*
X197869Y124069D01*
G37*
%LPD*%
%LPC*%
G36*
X141959Y196269D02*
X141959Y196269D01*
X141959Y198335D01*
X142132Y198981D01*
X142467Y199560D01*
X142940Y200033D01*
X143519Y200368D01*
X144165Y200541D01*
X146231Y200541D01*
X146231Y196269D01*
X141959Y196269D01*
G37*
%LPD*%
%LPC*%
G36*
X197869Y117259D02*
X197869Y117259D01*
X197869Y121531D01*
X202141Y121531D01*
X202141Y119465D01*
X201968Y118819D01*
X201633Y118240D01*
X201160Y117767D01*
X200581Y117432D01*
X199935Y117259D01*
X197869Y117259D01*
G37*
%LPD*%
%LPC*%
G36*
X56565Y114259D02*
X56565Y114259D01*
X55919Y114432D01*
X55340Y114767D01*
X54867Y115240D01*
X54532Y115819D01*
X54359Y116465D01*
X54359Y118531D01*
X58631Y118531D01*
X58631Y114259D01*
X56565Y114259D01*
G37*
%LPD*%
%LPC*%
G36*
X111759Y171384D02*
X111759Y171384D01*
X111759Y174835D01*
X111932Y175481D01*
X112267Y176060D01*
X112740Y176533D01*
X113319Y176868D01*
X113965Y177041D01*
X114866Y177041D01*
X114866Y171384D01*
X111759Y171384D01*
G37*
%LPD*%
%LPC*%
G36*
X166099Y192899D02*
X166099Y192899D01*
X166099Y192901D01*
X166101Y192901D01*
X166101Y192899D01*
X166099Y192899D01*
G37*
%LPD*%
%LPC*%
G36*
X104099Y197899D02*
X104099Y197899D01*
X104099Y197901D01*
X104101Y197901D01*
X104101Y197899D01*
X104099Y197899D01*
G37*
%LPD*%
%LPC*%
G36*
X133399Y198399D02*
X133399Y198399D01*
X133399Y198401D01*
X133401Y198401D01*
X133401Y198399D01*
X133399Y198399D01*
G37*
%LPD*%
%LPC*%
G36*
X44399Y110199D02*
X44399Y110199D01*
X44399Y110201D01*
X44401Y110201D01*
X44401Y110199D01*
X44399Y110199D01*
G37*
%LPD*%
%LPC*%
G36*
X40599Y150999D02*
X40599Y150999D01*
X40599Y151001D01*
X40601Y151001D01*
X40601Y150999D01*
X40599Y150999D01*
G37*
%LPD*%
%LPC*%
G36*
X130499Y147499D02*
X130499Y147499D01*
X130499Y147501D01*
X130501Y147501D01*
X130501Y147499D01*
X130499Y147499D01*
G37*
%LPD*%
D10*
X107250Y162500D03*
X107250Y157500D03*
X107250Y152500D03*
X107250Y147500D03*
X107250Y142500D03*
X107250Y137500D03*
X107250Y132500D03*
D11*
X115500Y124250D03*
X120500Y124250D03*
X125500Y124250D03*
X130500Y124250D03*
X135500Y124250D03*
X140500Y124250D03*
X145500Y124250D03*
D10*
X153750Y132500D03*
X153750Y137500D03*
X153750Y142500D03*
X153750Y147500D03*
X153750Y152500D03*
X153750Y157500D03*
X153750Y162500D03*
D11*
X145500Y170750D03*
X140500Y170750D03*
X135500Y170750D03*
X130500Y170750D03*
X125500Y170750D03*
X120500Y170750D03*
X115500Y170750D03*
D12*
X130500Y147500D03*
D13*
X110400Y110800D03*
X93400Y110800D03*
X145900Y109700D03*
X162900Y109700D03*
D14*
X166100Y175900D03*
X166100Y192900D03*
D15*
X147500Y185000D03*
X147500Y195000D03*
D16*
X44800Y64700D03*
X44800Y77700D03*
X44400Y97200D03*
X44400Y110200D03*
X210500Y61300D03*
X210500Y48300D03*
X210400Y94300D03*
X210400Y81300D03*
D17*
X223900Y48900D03*
X223900Y60500D03*
X30300Y76700D03*
X30300Y65100D03*
D18*
X182800Y6700D03*
X194400Y6700D03*
X59300Y6100D03*
X70900Y6100D03*
D15*
X176000Y107600D03*
X176000Y117600D03*
X79900Y118400D03*
X79900Y108400D03*
X186600Y122800D03*
X196600Y122800D03*
X69900Y119800D03*
X59900Y119800D03*
D16*
X133400Y198400D03*
X133400Y185400D03*
X104100Y197900D03*
X104100Y184900D03*
D15*
X77400Y141700D03*
X67400Y141700D03*
X172600Y142700D03*
X182600Y142700D03*
D19*
X57600Y130900D03*
X70600Y130900D03*
X189400Y132700D03*
X176400Y132700D03*
D15*
X172600Y152500D03*
X182600Y152500D03*
X77400Y151600D03*
X67400Y151600D03*
D19*
X209400Y151900D03*
X196400Y151900D03*
X40600Y151000D03*
X53600Y151000D03*
D20*
X244000Y86983D03*
X244000Y113018D03*
D21*
X90000Y85126D03*
X90000Y30874D03*
X167000Y30874D03*
X167000Y85126D03*
D22*
X93400Y110800D02*
X93400Y120400D01*
X96000Y123000D01*
D23*
X96000Y123000D03*
D22*
X162900Y119632D02*
X162900Y109700D01*
X162900Y119632D02*
X162500Y120032D01*
D23*
X162500Y120032D03*
D22*
X194400Y6700D02*
X205800Y6700D01*
X206000Y6500D01*
D23*
X206000Y6500D03*
D22*
X59300Y6100D02*
X59200Y6000D01*
X47500Y6000D01*
D23*
X47500Y6000D03*
D22*
X133400Y198400D02*
X134500Y199500D01*
X134500Y208000D01*
D23*
X134500Y208000D03*
D22*
X147500Y203000D02*
X147500Y195000D01*
X147500Y203000D02*
X146000Y204500D01*
D23*
X146000Y204500D03*
D22*
X104000Y207500D02*
X104000Y198000D01*
X104100Y197900D01*
D23*
X104000Y207500D03*
D22*
X67400Y141700D02*
X51200Y141700D01*
X50000Y140500D01*
D23*
X50000Y140500D03*
D22*
X48400Y130900D02*
X57600Y130900D01*
X48400Y130900D02*
X48000Y130500D01*
D23*
X48000Y130500D03*
D22*
X50700Y119800D02*
X59900Y119800D01*
X50700Y119800D02*
X50000Y120500D01*
D23*
X50000Y120500D03*
D22*
X40600Y141100D02*
X40600Y151000D01*
X40600Y141100D02*
X40000Y140500D01*
D23*
X40000Y140500D03*
D22*
X115500Y170750D02*
X130500Y170750D01*
X125500Y170750D02*
X125500Y177500D01*
X123500Y179500D01*
X123500Y181000D01*
D23*
X123500Y181000D03*
D22*
X115500Y180000D02*
X115500Y170750D01*
X115500Y180000D02*
X114500Y181000D01*
D23*
X114500Y181000D03*
D22*
X166100Y192900D02*
X166100Y204400D01*
X166000Y204500D01*
D23*
X166000Y204500D03*
D22*
X209400Y151900D02*
X209400Y142400D01*
X208500Y141500D01*
D23*
X208500Y141500D03*
D22*
X190894Y142700D02*
X182600Y142700D01*
X190894Y142700D02*
X191500Y142094D01*
D23*
X191500Y142094D03*
D22*
X191500Y134800D02*
X189400Y132700D01*
X191500Y134800D02*
X191500Y142094D01*
X202500Y128700D02*
X196600Y122800D01*
X202500Y128700D02*
X202500Y131500D01*
D23*
X202500Y131500D03*
D22*
X44400Y110200D02*
X39068Y115532D01*
X39068Y120000D01*
D23*
X39068Y120000D03*
D22*
X210400Y99600D02*
X210400Y94300D01*
X210400Y99600D02*
X205500Y104500D01*
D23*
X205500Y104500D03*
D22*
X157250Y162500D02*
X166100Y171350D01*
X157250Y162500D02*
X153750Y162500D01*
X166100Y171350D02*
X166100Y175900D01*
X145500Y170750D02*
X145500Y183000D01*
X147500Y185000D01*
X79900Y108400D02*
X79900Y95226D01*
D24*
X90000Y93500D02*
X90000Y85126D01*
X90000Y85500D01*
D25*
X90000Y85126D02*
X90000Y79500D01*
D22*
X176000Y94126D02*
X176000Y107600D01*
X176000Y94126D02*
X167000Y85126D01*
D25*
X167000Y79500D01*
X167000Y85126D02*
X167000Y94500D01*
D26*
X167000Y30874D02*
X167000Y6500D01*
X167000Y-16000D01*
X167200Y6700D02*
X182800Y6700D01*
X167200Y6700D02*
X167000Y6500D01*
D22*
X223000Y48900D02*
X223900Y48900D01*
D26*
X184426Y48300D02*
X167000Y30874D01*
X184426Y48300D02*
X210500Y48300D01*
X211100Y48900D01*
X223000Y48900D01*
X56174Y64700D02*
X44800Y64700D01*
X56174Y64700D02*
X90000Y30874D01*
X90000Y6500D01*
X90000Y-15000D01*
X70900Y6100D02*
X71300Y6500D01*
X90000Y6500D01*
X44800Y64700D02*
X30700Y64700D01*
X30300Y65100D01*
X210500Y61300D02*
X223100Y61300D01*
X223900Y60500D01*
X210400Y61400D02*
X210400Y81300D01*
X210400Y61400D02*
X210500Y61300D01*
D27*
X160629Y152276D02*
X153974Y152276D01*
X153750Y152500D01*
X167777Y159424D02*
X218076Y159424D01*
X220500Y157000D02*
X220500Y124000D01*
X167777Y159424D02*
X160629Y152276D01*
X218076Y159424D02*
X220500Y157000D01*
D22*
X216300Y81300D02*
X210400Y81300D01*
X218500Y83500D02*
X218500Y122000D01*
X218500Y83500D02*
X216300Y81300D01*
X218500Y122000D02*
X220500Y124000D01*
D26*
X44800Y77700D02*
X43800Y76700D01*
X30300Y76700D01*
X44400Y78100D02*
X44800Y77700D01*
X44400Y78100D02*
X44400Y97200D01*
D22*
X98068Y157500D02*
X107250Y157500D01*
X98068Y157500D02*
X97000Y158568D01*
D23*
X97000Y158568D03*
X33000Y97500D03*
D22*
X44100Y97500D01*
X44400Y97200D01*
X174000Y117600D02*
X176000Y117600D01*
X174000Y117600D02*
X165500Y126100D01*
X146350Y126100D01*
X145500Y125250D01*
X145500Y124250D01*
X94000Y132500D02*
X79900Y118400D01*
X94000Y132500D02*
X107250Y132500D01*
X107250Y137500D02*
X89100Y137500D01*
X71400Y119800D01*
X69900Y119800D01*
X153750Y132500D02*
X163500Y132500D01*
X180033Y122800D02*
X186600Y122800D01*
X180033Y122800D02*
X176947Y125886D01*
X170114Y125886D01*
X163500Y132500D01*
X135500Y170750D02*
X135500Y183300D01*
X133400Y185400D01*
X107250Y162500D02*
X105250Y162500D01*
X104100Y163650D01*
X104100Y184900D01*
X153750Y142500D02*
X162000Y142500D01*
X163000Y142500D01*
X172400Y142500D02*
X172600Y142700D01*
X172400Y142500D02*
X163000Y142500D01*
X84700Y147500D02*
X78900Y141700D01*
X77400Y141700D01*
X84700Y147500D02*
X107250Y147500D01*
X107250Y142500D02*
X88500Y142500D01*
X76900Y130900D02*
X70600Y130900D01*
X76900Y130900D02*
X88500Y142500D01*
X153750Y147500D02*
X160500Y147500D01*
X165500Y152500D01*
X172600Y152500D01*
X107250Y152500D02*
X103000Y152500D01*
X93500Y152500D01*
X78300Y152500D02*
X77400Y151600D01*
X78300Y152500D02*
X93500Y152500D01*
X183200Y151900D02*
X196400Y151900D01*
X183200Y151900D02*
X182600Y152500D01*
X67400Y151600D02*
X54200Y151600D01*
X53600Y151000D01*
X153750Y137500D02*
X163567Y137500D01*
X167653Y133414D01*
X175686Y133414D01*
X176400Y132700D01*
D28*
X241000Y83983D02*
X244000Y86983D01*
X241000Y83983D02*
X241000Y73500D01*
D22*
X115500Y115900D02*
X115500Y124250D01*
X115500Y115900D02*
X110400Y110800D01*
X140500Y115100D02*
X140500Y124250D01*
X140500Y115100D02*
X145900Y109700D01*
D23*
X108000Y122000D03*
D22*
X145900Y109700D02*
X147100Y110900D01*
D23*
X152412Y119900D03*
X226500Y113000D03*
X226500Y103000D03*
X226500Y93000D03*
D25*
X226500Y113000D02*
X226500Y113018D01*
D24*
X244000Y113018D01*
X226500Y113000D02*
X226500Y93000D01*
D26*
X110400Y119600D02*
X108000Y122000D01*
X110400Y119600D02*
X110400Y110800D01*
X152412Y116212D02*
X152412Y119900D01*
X152412Y116212D02*
X147100Y110900D01*
M02*
