G04 EAGLE Gerber RS-274X export*
G75*
%MOMM*%
%FSLAX34Y34*%
%LPD*%
%INCopper Layer 15*%
%IPPOS*%
%AMOC8*
5,1,8,0,0,1.08239X$1,22.5*%
G01*
%ADD10C,0.756400*%
%ADD11C,0.152400*%
%ADD12C,0.406400*%

G36*
X237520Y82242D02*
X237520Y82242D01*
X237539Y82240D01*
X237641Y82262D01*
X237743Y82279D01*
X237760Y82288D01*
X237780Y82292D01*
X237869Y82345D01*
X237960Y82394D01*
X237974Y82408D01*
X237991Y82418D01*
X238058Y82497D01*
X238130Y82572D01*
X238138Y82590D01*
X238151Y82605D01*
X238190Y82701D01*
X238233Y82795D01*
X238235Y82815D01*
X238243Y82833D01*
X238261Y83000D01*
X238261Y119000D01*
X238258Y119020D01*
X238260Y119039D01*
X238238Y119141D01*
X238222Y119243D01*
X238212Y119260D01*
X238208Y119280D01*
X238155Y119369D01*
X238106Y119460D01*
X238092Y119474D01*
X238082Y119491D01*
X238003Y119558D01*
X237928Y119630D01*
X237910Y119638D01*
X237895Y119651D01*
X237799Y119690D01*
X237705Y119733D01*
X237685Y119735D01*
X237667Y119743D01*
X237500Y119761D01*
X168568Y119761D01*
X168548Y119758D01*
X168529Y119760D01*
X168427Y119738D01*
X168325Y119722D01*
X168308Y119712D01*
X168288Y119708D01*
X168199Y119655D01*
X168108Y119606D01*
X168094Y119592D01*
X168077Y119582D01*
X168010Y119503D01*
X167938Y119428D01*
X167930Y119410D01*
X167917Y119395D01*
X167878Y119299D01*
X167835Y119205D01*
X167833Y119185D01*
X167825Y119167D01*
X167807Y119000D01*
X167807Y117834D01*
X164698Y114725D01*
X160302Y114725D01*
X157193Y117834D01*
X157193Y119000D01*
X157190Y119020D01*
X157192Y119039D01*
X157170Y119141D01*
X157154Y119243D01*
X157144Y119260D01*
X157140Y119280D01*
X157087Y119369D01*
X157038Y119460D01*
X157024Y119474D01*
X157014Y119491D01*
X156935Y119558D01*
X156860Y119630D01*
X156842Y119638D01*
X156827Y119651D01*
X156731Y119690D01*
X156637Y119733D01*
X156617Y119735D01*
X156599Y119743D01*
X156432Y119761D01*
X104500Y119761D01*
X104480Y119758D01*
X104461Y119760D01*
X104359Y119738D01*
X104257Y119722D01*
X104240Y119712D01*
X104220Y119708D01*
X104131Y119655D01*
X104040Y119606D01*
X104026Y119592D01*
X104009Y119582D01*
X103942Y119503D01*
X103871Y119428D01*
X103862Y119410D01*
X103849Y119395D01*
X103810Y119299D01*
X103767Y119205D01*
X103765Y119185D01*
X103757Y119167D01*
X103739Y119000D01*
X103739Y83000D01*
X103742Y82980D01*
X103740Y82961D01*
X103762Y82859D01*
X103779Y82757D01*
X103788Y82740D01*
X103792Y82720D01*
X103845Y82631D01*
X103894Y82540D01*
X103908Y82526D01*
X103918Y82509D01*
X103997Y82442D01*
X104072Y82371D01*
X104090Y82362D01*
X104105Y82349D01*
X104201Y82310D01*
X104295Y82267D01*
X104315Y82265D01*
X104333Y82257D01*
X104500Y82239D01*
X237500Y82239D01*
X237520Y82242D01*
G37*
%LPC*%
G36*
X203302Y99193D02*
X203302Y99193D01*
X200193Y102302D01*
X200193Y106698D01*
X203302Y109807D01*
X207698Y109807D01*
X210807Y106698D01*
X210807Y102302D01*
X207698Y99193D01*
X203302Y99193D01*
G37*
%LPD*%
D10*
X96000Y123000D03*
X162500Y120032D03*
X206000Y6500D03*
X47500Y6000D03*
X134500Y208000D03*
X146000Y204500D03*
X104000Y207500D03*
X50000Y140500D03*
X48000Y130500D03*
X50000Y120500D03*
X40000Y140500D03*
X123500Y181000D03*
X114500Y181000D03*
X166000Y204500D03*
X208500Y141500D03*
X191500Y142094D03*
X202500Y131500D03*
X39068Y120000D03*
X205500Y104500D03*
X97000Y158568D03*
D11*
X96500Y159068D01*
X35568Y159068D01*
X33000Y156500D02*
X33000Y97500D01*
D10*
X33000Y97500D03*
D11*
X33000Y156500D02*
X35568Y159068D01*
D10*
X108000Y122000D03*
X152412Y119900D03*
D12*
X108000Y122000D02*
X108000Y114000D01*
X107500Y113500D01*
D10*
X226500Y113000D03*
X226500Y103000D03*
X226500Y93000D03*
M02*
